<?xml version="1.0" encoding="UTF-8"?>
<svg id="Layer_1" data-name="Layer 1" xmlns="http://www.w3.org/2000/svg" viewBox="0 0 138.96 128.09">
  <path d="M35.32,110.59c-3.15-.44-6.13-3.53-6.87-6.56L16.3,20.63l-.44-.47c-5.16-2.52-13.65-2.91-15.47-9.31C-1.54,4.08,3.93-1.06,10.65.19c3.02.56,13.33,4.66,16.38,6.13,6.62,3.18,5.5,9.89,6.5,16.21l104.42.43,1,2.46-13.6,61.07c-.21.3-1.35,1.19-1.57,1.19H43.02l.79,5.93,82.36-.02c7.52-.16,11.79,8.93,6.5,14.43-.6.62-3.87,2.57-4.54,2.57h-12.83c2.94,5.46,1.58,12.49-3.82,15.73-10.47,6.27-21.92-5.3-15.92-15.73h-32.78c2.91,5.5,1.64,12.44-3.82,15.73-10.47,6.28-21.9-5.29-15.92-15.73-2.41-.24-5.37.33-7.7,0ZM39.58,98.23c-.42-.5-.73-1.81-.87-2.49L26.95,13.9c-.34-1.11-.61-1.72-1.6-2.35-1.69-1.06-13.44-5.45-15.49-5.84-4.1-.77-5.97,2.64-3.39,4.97,2.16,1.94,10.31,3.44,13.34,5.22.72.43,1.28.8,1.47,1.69l12.35,84.8c.25,1.76,1.46,2.75,3.24,2.69h90.08c3.35-.44,3.35-5.52,0-5.96l-84.95.05c-.74.04-1.97-.39-2.42-.93ZM132.66,28.05H34.33l7.9,54.11h78.76s11.68-54.11,11.68-54.11ZM58.87,116.57c0-3.33-2.7-6.02-6.02-6.02s-6.02,2.7-6.02,6.02,2.7,6.02,6.02,6.02,6.02-2.7,6.02-6.02ZM111.39,116.56c0-3.32-2.69-6.01-6.01-6.01s-6.01,2.69-6.01,6.01,2.69,6.01,6.01,6.01,6.01-2.69,6.01-6.01Z"/>
  <path d="M109.76,46.21l-.37-5.75-16.41-.18c-2.28-.44-2.81-4.72.77-5.13,3.76-.44,15.3-.5,18.98-.01,1.67.22,2.59,1.7,2.57,3.36-.77,10.56.96,22.41,0,32.81-.13,1.39-.3,2.77-1.7,3.44l-62.87.28c-1.21-.19-2.59-1.22-2.61-2.52.8-11.07-1-23.49,0-34.4.18-1.92.53-2.71,2.58-2.95,5.96-.7,13.24.53,19.35.02,3.02.57,2.14,5.12.4,5.12h-16.78v29.22h24.09c-.72-4.81,1.56-10.22,6.69-11.28,2.7-.56,7.45.92,8.54-2.52.74-2.36.11-3.84,1.99-6.31.84-1.11,3.83-3.19,5.1-3.19h9.68ZM109.76,51.74h-9.28c-.11,0-1.47,1.38-1.57,1.59-.47,1.06-.36,3.02-.8,4.33-1.07,3.17-4.06,5.25-7.28,5.75-4.96.77-8.19-1.4-7.52,6.1h26.46v-17.77Z"/>
  <path d="M61.07,46.3l20.05-.07c3.22,1.44,2.78,4.98-.82,5.48-3.18.45-15.4.5-18.5.01s-3.7-4.38-.73-5.42Z"/>
  <path d="M61.87,56.97c2.84-.51,9.84-.43,7.71,4.16-.81,1.75-7.58,1.67-9.09.99-2.33-1.07-1.61-4.61,1.38-5.14Z"/>
  <circle cx="81.64" cy="37.77" r="2.7"/>
</svg>