<?xml version="1.0" encoding="UTF-8"?>
<svg id="Layer_2" data-name="Layer 2" xmlns="http://www.w3.org/2000/svg" viewBox="0 0 225.36 179.31">
  <defs>
    <style>
      .cls-1 {
        fill: #33373d;
      }

      .cls-2 {
        fill: #2d5560;
      }

      .cls-3 {
        fill: #396574;
      }

      .cls-4 {
        fill: #a3a8a7;
      }

      .cls-5 {
        fill: #036d61;
      }

      .cls-6 {
        fill: #624669;
      }

      .cls-7 {
        fill: #bcc3c3;
      }

      .cls-8 {
        fill: #124950;
      }

      .cls-9 {
        fill: #f6f1f0;
      }
    </style>
  </defs>
  <path class="cls-6" d="M83,2.51c.14.69-.31.6-.77.75-1.69.54-3.5.56-5.15.99-6.01,1.59-11.21,5.07-16.65,6.89.11-.95,1.76-1.57,2.6-2,6.68-3.39,12.64-5.18,19.96-6.64Z"/>
  <path class="cls-6" d="M26.18,33.42c.82,0,2.19-.67,3-.19.09.05.06.48.22.48.39,0,.98-.36,1.66-.32.54.04.25.55.8.61,1.91.21,6.35-.33,8.53-.46.58-.03.46-.23.82.44-3.42,1.09-10.52.58-14.36.28-.85-.07-.72.14-.68-.84Z"/>
  <path class="cls-6" d="M123.66,1.4v.56c-1.53-.23-4.63-.29-5.67-.56-.22-.06-.16-.54-.3-.53-2.65.13-5.34-.06-8-.13-.49-.01-.92.47-.8-.45,4.96-.46,9.87.29,14.76,1.11Z"/>
  <path class="cls-6" d="M103.61.29c.14.97-.37.39-.8.44-2.08.25-3.6.44-5.76.4-1.65-.03-.61.14-1.15.27-1.33.34-4.81.22-6.53.45-.46.06-2.09,1.01-1.92-.17,3.22-.52,5-.74,8.24-.59.14,0,.08-.48.3-.53,2.21-.54,5.35-.16,7.62-.28Z"/>
  <path class="cls-6" d="M139.82,6.13v.56c-3.78-1.19-6.21-2-9.75-3.62.83.38,1.75.29,2.63.57,2.33.74,4.75,1.7,7.11,2.49Z"/>
  <path class="cls-6" d="M123.66,1.4c2.09.35,3.16.27,5.01,1.11-.27.52-.98.24-1.41.16-1.21-.23-2.38-.53-3.61-.71v-.56Z"/>
  <path class="cls-6" d="M108.34.29v.56c-1.08-.2-2.23.11-3.34,0l-.28-.56c1.18-.52,2.55-.1,3.62,0Z"/>
  <path class="cls-6" d="M105,.84c-.92-.09-.37-.1-.56-.56h.28l.28.56Z"/>
  <path class="cls-6" d="M103.89.29l.28-.28s-.16.27-.28.28Z"/>
  <path class="cls-6" d="M7.8,35.09l1.4,1.11c.57.1.05-.83.42-.84.74-.01.43.84.97.84v-.84c.73.5,1.6.14,2.32.29.19.04.19.42.41.54.9.47,1.22-.22,1.86-.23,1.5-.03,3.38.88,4.89.25-.2,1.38.45.6,1.52.54,1.32-.07,2.8.31,3.77.29v.56s-1.01.06-1.06.09c-1,.63-5.12.32-6.88.19-3.59-.26-5.98-1-9.33-1.67l-.56-1.11c.08.02.18-.01.28,0Z"/>
  <path class="cls-6" d="M17.55,33.7c.02,1.61-.61.88-1.27.87-.16,0-.09.53-.27.54-.37.02-1.27-.41-1.93-.42-2.07-.03-4.18.68-6.27.41-.09-.01-.19.02-.28,0-.97-.22-.78-.48-2.23-.56.32-1.28.54-.58,1.34-.73.35-.07.9-.38,1.02-.38h5.01c1.63,0,3.15.4,4.87.28Z"/>
  <path class="cls-6" d="M34.26,37.32c-.32.12-.58.45-1.12.28.33-.37.39-.76-.14-.55-.08.03-.08.24-.14.28l-.56.28c-1.67.29-3.32.2-4.87.33-.54.05-1.67.47-2.04.15-.13-.11-.02-.45-.05-.49v-.56c1.82-.03,3.87-.19,5.71-.25.95-.03,3.03-1.05,3.2.53Z"/>
  <path class="cls-6" d="M176.02,26.74c-.72.44-1.97-.78-2.52-1.24s-3.38-2.84-3.6-3.21c.66-.15.92.12,1.41.4,1.76,1.03,3.25,2.7,4.72,4.05Z"/>
  <path class="cls-6" d="M143.99,7.8c-2.07-.27-2.27-.52-4.18-1.11v-.56c1.36.46,2.93.97,4.18,1.67Z"/>
  <path class="cls-6" d="M44.01,33.42c-.16.23.15.69-.69.84-.66.12-1.82.2-1.54-.56.08,0,.28.24.42.25.1,0,.71-1.01,1.64-.74l.16.21Z"/>
  <path class="cls-6" d="M144.55,7.8c.31.03,2.64.78,2.75.88.11.1.04.36.04.52-.91-.26-2.75-.26-2.79-1.39Z"/>
  <path class="cls-6" d="M18.66,33.42c.71-.07,1.63-.22,1.39.56-.31.19-.47.86-1.39.56v-1.11Z"/>
  <path class="cls-4" d="M32.86,37.32c-.12.06-.09.2-.56.28l.56-.28Z"/>
  <path class="cls-6" d="M171.29,42.06v-.28c.09-.02.2.03.28,0l-.28.28Z"/>
  <path class="cls-6" d="M122.27,11.15c-.02.18.03.38,0,.56,0,.03-.42.13-.28.56.36.13.52-.28.56-.28,1.29-.06,1.95,1.11,2.43-1.05.13-.57-.02-1.13.08-1.59.24-.98.91-2.14.84-3.33-.03-.2-1.09-.36-1.41-.44-.11-.9.26-.48.79-.37.44.09,1.16.2,1.45.55.15.63-.35,3.63-.58,4.36-.08.25-.53.18-.52.32.06.79.36,1.4-.03,2.38.31-.05,1.32.08,1.39,0,.1-.1.17-2.31.29-2.93.14-.73-.31-.77.83-.69-.05.78-.73,3.83-.25,4.15.39.25,1.34-.41,1.5.59.7-.29,1.65-5.84,2.37-6.82.08-.62-.1-.32-.41-.42-.84-.26-2.07-.51-2.93-.27.03-.28-.69-.14-.56-.55.78.04,1.59-.07,2.38-.01,4.06.27,2.3,1,1.54,3.51-.11.36.04.89-.08,1.31-.42,1.38-2.27,3.64.34,3.82.05-.78.12-1.75.28-2.51h.84c-.09.55-.46,2.79-.25,3.04.09.11,2.35.59,2.76.86-.23-.69.37-.77.53-1.07.93-1.71,1.39-4.02,1.96-5.87l-4.16-1.42s-.41-.18-.28-.56c.26-.24,5.37,1.43,5.54,1.7.45.69-.59.88-.84,1.47-.76,1.75-.72,4.56-1.92,6.3l1.39.28c.3-2.61,1.46-5.03,2.23-7.52.5-.11.18.41.28.56-.04,1.39-2.35,6.68-1.82,7.52.45.72,1.85.65,2.38.83.04.01.13.21.28.28.27.13.92,1.01,1.67.84.66-2.28,1.22-4.66,2.51-6.68-.04.38.04.75-.06,1.18-.27,1.11-2.02,5.11-1.85,5.9.12.51,1.64.94,1.9.71.05-.05.02-.58.14-.83.14-.27.37-.44.43-.55l.56.28c-.66,1.37-.87,1.7.69,2.23.41-.84.54-1.53,1.26-2.23-.05.21,0,.58-.06.9-.11.65-.79.96-.36,1.88.16.35,1.68,1.42,2.08,1.55,1.83.6,1.23-.22,1.76-1.33.9-1.89,2.41-3.66,2.99-5.78-1.47-.06-3.46-3.05-4.4-1.19-.47.94-1.02,3.13-1.43,3.81-.18.29-.54.13-.58.16.33-1.35.53-1.73,1.05-2.99.37-.89.66-2.99,2.08-2.52.49.16,3.28,1.61,3.65,1.93,1.14.97.05,1-.09,1.28-.33.69-.43,1.7-.8,2.49-.35.73-2.56,4.42-2.55,4.69.01.28.85.58,1.1.41.27-.18.84-3.18,1.96-3.06-.13.14-1.24,3.21-1.33,3.55-.41,1.49,1.03,2.37,2.39,1.95l4.48-7.36-.53-1.21s.06-.21.26-.14c.46.17,1.6.99,1.37,1.6-1.77,2.46-3.59,4.86-4.69,7.72l.89-.64,4.54-6.88c.52.32,3.86,2.08,4,2.27.98,1.37-2.09,3.96-2.87,4.99-.24.31-.26.75-.4.93-.23.3-.73.1-.82.2-.13.14.12,1.15-1.08,2.4-.93.97.08,1.37.72.45.8-.83,4.82-6.98,5.25-7.06.98-.19,2.37.66,3.14,1.27.65.52,1.38,1.27.98,2.07-.04.08-.97,1.29-1.04,1.33-.27.18-.66,0-.77.06.05-.86.11-1.28.9-1.4.93-.14-.94-1.79-1.25-2-.52-.34-1.29-.68-1.88-.36l-5.29,7.66c.47.1,1.01.41,1.38.71.41.34.53,1.13.98.96.68-.26,1.39-1.78,1.87-2.32.8-.92,2.37-2.75,3.29-3.24,0,.13.4.49.24.79-.02.04-.37.06-.51.25-.74,1.01-1.45,1.95-2.24,2.93-.52.64-.67.1-.27,1.6,1.36-1.05,2.28-2.62,3.43-3.82.08-.08,1.45-1.04,1.58-1.19h.28c-.94,1.13-5.17,5.91-5.25,6.87-.04.5,1.75,2.16,1.91,2.87.33-.52,1.77-1.21,1.94-1.39v.28c-.77.62-.71,2.61.28,2.51h.28s-.03.92,0,1.11c.01.08.24.19.28.28s-.09.37.05.5.46.01.5.05c.73.75.91,1.44,1.37,2.06.66.89,1.98-1.61,2.38-2.07.22-.26.56-.38.7-.54.2,1.55-1.19,1.93-1.73,3.14-.24.53-.51.86.34.76-.02.08,0,.2,0,.28.1.96,1.5,1.75,2.09,2.5.41,0,5.07-5.1,6.55-4.73-1.24,1.46-2.65,2.12-4.03,3.35-.73.65-1.38,1.4-2.09,2.08.41.41.75.97,1.39.97-.03.07.01.18,0,.28,0,.03-.2.08-.18.14.02.09.17.09.18.13.45,1.02,1,1.04,1.53,1.67.45.54.15,1.38,1.1,1.1l2.12-2.04c1.07-.81,5.22-3.4,5.7-4.35.43-.86-1.89-1.25-.99-2.51.38.56,1.67,1.38,1.83,1.67.74,1.36-2.86,3.65-3.76,4.34-.19.15-.25.48-.5.67-1.19.9-2.77,1.54-3.94,2.53.4,2.52,1.03.6,2.06-.31.75-.66,2.02-1.44,2.92-1.96l-.55-.55c1.63.36,3.83-2.86,5.29-2.1.55.28,2.06,4.01,2.49,4.86-2.44,1.69-5.28,3.2-7.48,5.2-1.11,1.01-.63,1.23.57.57,2.06-1.13,4.33-3.44,6.59-4.61.19-.1,1.06-.37,1.16-.3.7,1.26,1.24,2.57,1.85,3.87.18.38.71.67.83,1.13.42,1.55-.71,1.29-1.47,1.62-1.4.6-4.99,2.28-5.8,3.39-.86,1.18-.38,1.47.81.81,2.15-1.19,4.37-3.15,6.66-4.2.34-.16.65-.28,1.03-.22-.34,1.42,3.09,5.51,2.48,6.37-.08.11-1.94.84-2.38,1.1-1.96,1.16-3.98,2.39-5.38,4.22.51.08.83-.05,1.27-.26,1.95-.91,5.25-4.48,7.52-4.76.61-.08,2.12.77,2.02-.37-.04-.37-1.37-2.56-1.66-3.07-2.47-4.26-5.11-8.58-7.22-13.06-.58-1.23-1.51-2.76-2.39-4.05-2.09-3.06-4.93-5.75-7.28-8.59-2.28-2.75-4.18-5.69-6.72-8.33-.78-.81-1.91-1.39-2.67-2.34-.26-.32-.77-.84-.13-1.13,3.42,3.2,6.82,6.79,9.76,10.45.94,1.17,2.23,2.11,3.11,3.56.26.43.44,1.4.57,1.52.14.14.66.11,1.06.47s1.74,2.25,2.17,2.83c3.45,4.62,6.28,11.12,9.09,16.27.69,1.27,3.84,5.33,2.66,6.54-.57.58-1.28.11-1.96.24-1.56.32-5.03,2.69-6.26,3.8-.66.6-1.21,1.01-.99,2.03.05.21.43.2.55.39,1.47,2.37,2.84,4.98,4,7.38.8,1.67,1.74,3.4,2.14,5.23-.16-.04-.38.03-.56,0-.25-.8-2.26-3.39-1.9-3.87.09-.13.63.17.51-.3-1.65.7-1.19-.39-1.69-1.18-1.76-2.8-3.35-5.47-5.01-8.35-.23-.4-.72-.23-.77-1.19-.01-.23.27-.68.24-.7-.09-.05-.42.04-.62-.07-.7-.36-1.32-1.92-1.8-2.65-2.24-3.42-4.6-6.68-7.04-9.95-7.23-9.65-14.98-19.07-24.21-26.76-2.02-1.69-5.73-4.02-7.26-5.56-.28-.29-.63-1.35-1.14-1.62-4.17-2.21-8.07-5.17-12.24-6.96-1.61-.69-4.24-1.24-5.95-1.89-.45-.17-.41-.7-.49-.76-.11-.07-.58.36-.77.23-.08-.05-.12-.48-.33-.66-.85-.73-1.3-.04-2.03-.15-.18-.03-.14-.45-.56-.61-2.45-.93-7.69-1.98-10.38-2.43-2.95-.49-5.31-.35-8.19-.59-.07-.72,0-.53.56-.56.18-.01.37,0,.56,0,1.12-.04,1.24.37,1.39-.56,1.46.22,1.33-.2,2.23-.28.08,0,.24-.02.28,0,.2.11.13.34.84.56.3.09,1.16-.22,2.23,0,.22.05.61.5,1.11.28,0-.43-.12-.88.28-1.12.95.46.11,1.4,1.39,1.12.11-1.78.34-3.61.63-5.37.04-.25.12-.84.49-.76.21,1.78-.38,3.53-.44,5.29-.02.68-.04.79.72.83ZM164.15,25.17c.24-.3.69-.31.9-.92.57-1.65-2.27-3.5-2.96-2.97-.33.25-.42,1.32-.7,1.82-.76,1.35-2.61,2.84-3.05,4.46s.31,3.79,2.08,2.36c.91-.73,2.81-3.62,3.74-4.76ZM166.27,34.82c-.39-.2-.74.18-.55.27.39.2.74-.18.55-.27ZM192.99,53.72c-.01-.77-1.83-4.01-2.58-3.85-.27.06-1.2,1.19-1.58,1.5-.48.4-1.08.92-1.51,1.26-.85.66-3.64,2.36-4.07,2.92-.15.19-.26,1.18-.21,1.22.14.14.7.12,1,.39.33.29.83,1.78,1.32,1.8,1-.07,1.23-.99,1.66-1.33.41-.32,1.07-.82,1.47-1.1,1.37-.97,3.08-1.88,4.51-2.82ZM194.68,55.7c-.52-.64-6.94,4.74-7.68,5.28.07,1.32,1.53,1.8,1.86,3.05l7.65-3.59c.42-.66-2.27-3.62-1.83-4.74ZM199.93,66.8c.14-.22-1.48-4.17-2.27-4.09-1.14.11-3.96,2.85-5.39,3.11l-1.14,1.44,2.04,2.94v1.1c2.37-1.29,4.74-2.87,6.77-4.49Z"/>
  <path class="cls-6" d="M156.53,13.09c3.93,1.36,8.06,4.55,11.32,6.91.95.69,1.19.89,1.77,1.72-.71.15-1.53-.46-2.08-.83-3.55-2.38-6.54-4.77-10.32-6.97-.38-.22-.82-.23-.69-.83Z"/>
  <path class="cls-6" d="M51.8,30.92c.4,1.39-1.12,1.7-1.81.84-.23.19.27.62.14.81-.42.59-4.88,1.02-5.84,1.41l.84-1.11c.27-.05.62.08.92,0,.27-.08.09-.78.89-.56.26.07-.05.69.41.56-.33-1.15,1.65-1.17,2.57-1.47.76-.25.91-1.02,1.89-.48Z"/>
  <path class="cls-6" d="M54.87,28.69c.09-.01,1.66.49,1.67.83-.48.23-1.81.46-2.16.65-.3.17-.57,1-1.66,1.25-.98.23-.51-.33-.63-.51-.06-.94.91-.79,1.49-1.15.29-.19,1.21-1.06,1.29-1.07Z"/>
  <path class="cls-6" d="M51.8,20.33c.45-.75.55-.09.68.28.75,2.03,1.83,4.88,2.1,6.96-1.56-2.08-1.83-4.95-2.79-7.24Z"/>
  <path class="cls-6" d="M150.12,10.31c.16-.56.83,0,1.13.13,1.46.58,2.81,1.26,4.24,1.9.42.19.91.04.76.76-2.52-.91-3.84-1.35-6.13-2.78Z"/>
  <path class="cls-6" d="M76.31,37.04c.06-.04.72-.87.85-1.04.48-.63.02-1.51,1.8-.64.18-.26-.22-.55-.11-.92.09-.32,3-2.16,3.57-2.58,1.75-1.29,2.52-1.93,4.54-2.93.37-.19.14-.96,1.33-.25v-.84c.74.56.48-.15.84-.39,3.59-2.48,13.01-4.82,17.41-5.18,2.84-.23,5.11.19,7.89.41.96.08,2.08-.22,3.22-.1,1.34.14,6.13.98,7.23,1.41.44.18.4.8.62.8.27,0,.62-.3,1.06-.27.89.05,2.03.29,1.84,1.37.55.08.15-.65.28-.84.06-.09,1.91.21,1.39,1.12,1.57-.52,3.93.66,5.51,1.3.18.08.66.33.97.47,7.17,3.26,15.81,9.2,21.11,15.06,2.75,3.04,5.85,6.37,8.47,9.91,1.53,2.07,3.32,4.6,4.7,6.73.71,1.11,3.5,5.41,3.22,6.42-.24.86-.97.61-1.63.48-.71-1.21-.24-1.22-1.39-2.72-.96-1.24-.18-1.96-.27-2.01-.17-.09-.63.11-.97-.28-.38-.44-.38-1.34-.52-1.61-.1-.19-.65-1.12-.81-1.39-.11-.18-.65-.19-.75-.52-.11-.36.39-1.14.26-1.22-.2-.14-1.15-.12-1.58-.65-.77-.95-1.68-2.94-2.49-4.06-7.35-10.1-16.72-18.52-28.73-23.06-11.91-4.49-25.15-6.95-37.6-3.22-.9.27-5.6,1.64-5.86,1.81-2.6,1.63-5.48,3.52-8.19,5.25-1.36.87-2.65,1.78-4.01,2.73-.92.64-2.07,1.57-3.17,1.72v-.28ZM173.38,66v.28c.18-.09.18-.19,0-.28Z"/>
  <path class="cls-6" d="M87.18,5.02c-.23-.97,2.68-.95,2.79-.84-.3,1.42.63,3.11-.28,4.17.93-.13.51,1.32.55,2.1.02.41.29.82.3,1.09,0,.31-.7-.05-.57.43l1.11.28c.72-1.59-.63-3.42.28-5.01.26,2.37.4,2.61,1.11,4.73.07.2-.05.59,0,.84-1.36.23-3.09,1.33-4.17.28.04,1.54-3.95,1.32-4.14,1.45-1.89,1.33-1.84.77-3.75,1.39-3.25,1.06-6.25,2.8-9.33,4.32-1.48.73-3.52,1.28-4.88,2.03-.71.39.32.63-1.58.28-.08-.01-.28-.29-.56-.28.5-1-.66-2.27-1.05-3.27-.59-1.52-1.19-3.21-1.46-4.81h.28c.12.39.66.95.89,1.48.45,1.06,1.73,5.34,2.45,5.62.14.05.81-.11.84-.14.13-.16-1.59-3.14-1.68-3.74-.45-3.18-3.08-4.89,1.41-5.72-.68.91-1.55.75-1.65.86-.28.32,1.91,7.51,2.24,7.74.28.2,2.84.35,2.19-.8l.83.28c.19-1.24-.7-2.13-1.03-3.28-.45-1.55-.83-3.48-.92-5.07-.59-.08-1.12.18-1.67.28.07-.09-.21-.41.33-.64.68-.28,1.46-.19,2.17-.19-.29,2.12.72,4.94,1.53,6.96.54,1.35,1.72.93,1.41-.01-1.08-3.27-4.53-8.64,1.16-9.67,2.11-.38.9.59.91,1.33-.27-.61-.86-.07-1.21.04-.4.13-2.29.68-2.39.82-.22.31,1.94,6.95,2.25,7.17.67.47,2.18-.73,3.03-.52-.2-1.31-.54-2.61-.84-3.9l.56-.41c.21,1.11.53,2.22.84,3.3.14.5,1.21.08,1.12-.51-.32-1.02-1.51-4.14-1.35-5,.03-.19.39-.53.5-.44l.56,1.95c-.02.18,0,.37,0,.56.01.57-.14.62.56.56.14.87.22,1.67.57,2.5,1.08-.04,2.08-.41,3.05-.83-1.05-2.26-1.14-4.9-1.95-7.24-.43-1.23-2.98.61-3.34.28-.47-.42.34-.6.54-.7.9-.44,2.04-.66,3.05-.67.81,2.53,1.34,5.16,2.23,7.67.11.3-.14.49.42.36,1.42-.33.21-1.4-.03-2.42-.27-1.14-1-4.28-.36-5.07l1.67,6.96c.63-.44,1.35-.17,1.95-.28.12-.02.23.03.27-.14,0-.17-.26-.13-.27-.14-.04-.06.05-.24,0-.28.55-.97.92.29.97.28.08-.02.68-.34.71-.47.22-.82-.5-3.78-.66-4.88-.07-.52-.55-.9.37-.79.32,1.86,1.04,3.66,1.12,5.57.13.2,2.03-.38,2.18-.6.55-.77-.58-5.9-.23-7.2-.61.07-1.38-.1-1.95,0Z"/>
  <path class="cls-6" d="M101.1,3.63c-.09-.53-.06-1.17.69-.82,1.44.66.38,6.31.43,7.79h1.4c.2-.2-.22-4.5,0-5.29.67-.16.61.35.7.82.21,1.14-.1,4.15.72,4.72.08.05,1.71-.38,1.8-.51.36-.51-.16-3.91-.17-4.91,0-.41.27-1.06.23-1.19-.01-.04-.65-.59-.69-.6-.5-.11-1.19.01-1.75,0,.38-1.08,3.09-.48,3.31.18.35,1.05-.05,4.35-.22,5.55-.02.13.55.09.55.27,0,.22-.44.83-.3.96.06.06,1.05-.36,1.39,0,.35-.34-.61-5.15.56-5.85.26,1.73-.42,4.05.3,5.64.11.25.71.21.54.77-.56.03-.63-.17-.56.56-1.13-.09-.86-.25-1.53-.56-.09-.04.08.86-1.61.5-.42-.09-.69-.43-.9-.5-.17-.05-.07.5-.31.56-.61.16-1.96-.04-2.75,0-.46.02-1.02.34-1.37.3-.32-.04.02-.73-.44-.58.11.89-1.7.58-2.22,0,.03.21.02.44-.21.54-1.23.52-4.68.59-6.2.85-.05-.25.07-.64,0-.84.62-.84,3.4-.11,2.6-1.1-.42-.51-.55-.73-.62-1.57l.53-5.12-3.9.28c-.02-.06-.41-.19-.28-.55.26-.32,4.05-.44,4.47-.16.62,2.35.34,4.97.82,7.4.98.06,1.33-.27,1.67-1.11.22,1.67,2.5.4,3.61.55.27-2.32-.14-4.61.29-6.95-.18-.01-.37,0-.56,0ZM96.51,11.7v.28c.18-.09.18-.19,0-.28Z"/>
  <path class="cls-6" d="M55.7,16.44s.16-.33.38-.26c.62.56,3.48,8.75,3.93,8.62.17-.05.88-.31.66-.65-.75-1.12-1.04-2.56-1.57-3.73-.59-1.28-1.8-1.86-1.45-3.83.08-.45,2.13-2.81,2.58-3,.33-.14,1.47-.36,1.6-.21.09.11-.07.63,0,.83h-.28c-.09,0-.19,0-.28,0-.54-.04-.95-.28-.84.56-.43.19-1.48,1.05-1.86,1.48-1.13,1.27.24.87.61,1.3.96,1.12,1.19,4.79,2.64,6,.43.32,1.32-1.24,2.23-1.27.28,0,.48.26.56.28.06.72.12.87-.5,1.32-1.9,1.36-4.22,2.22-5.97,3.43-.37.26-1.27,1.48-1.74,1.37-.73-1.2-4.18-8.89-3.72-9.69.03-.06.75-.5,1.07-.89.05.11.27.23.28.28.28,2.19,1.41,5.25,2.09,7.52.64,2.11,1.36.9,2.49.11.34-.24.89,0,.88-.81l-3.17-6.2c-.17-.37,0-.84-.06-1.18-.09-.51.17-.81-.56-1.11v-.28Z"/>
  <path class="cls-6" d="M176.3,71.29c1.36,3.05,3.69,5.84,5.31,8.7.16.27.7.21.54.77-.02-.03-.32.05-.46-.09-.54-.53-.11-.68-1.21-.74-1.12-1.21-2.29-2.83-3.12-4.26-.24-.4-.94-1.57-1.05-1.79-.33-.71-.59-1.51-.56-2.31.14-.01.38-.23.56-.28Z"/>
  <path class="cls-6" d="M171.57,29.52c.17-.21.49-.61.67-.86.29-.39-.07-1.11.86-.82.22.07.09.52.14.56-.36-.29-.72.14-.56.56-.55.05-.53.19-.84.56h-.28Z"/>
  <path class="cls-6" d="M173.24,28.41c.19.19,2.25,1.49,2.64,1.65l1.81,1.69-.99.27-6.25,6.14v-.28c.33-.35.98-1.66,1.53-2.23s3.65-3.29,3.72-3.53c.34-1.18-.71-1.21-1.21-1.75-.42-.44-.66-1.2-1.25-1.39-.03-.16.04-.52,0-.56Z"/>
  <path class="cls-6" d="M145.39,11.98c0-.19,0-.37,0-.56,1.02.34,5.73,1.12,4.55,2.78-.38.54-1.09,1.19-1.48,1.82-.57.91-1.55,2.36-1.96,3.2l-.56-.28c.83-1.73,1.71-4.08,3.34-5.15-1.13-.9-2.55-1.36-3.9-1.81Z"/>
  <path class="cls-6" d="M119.48,10.03c-.4.24-.28.68-.28,1.12-.5.22-.89-.24-1.11-.28.57-1.01,2.05-4.45,1.96-5.43s-1.64-.65-2.24-1.25c1.04-.17,2.42-.51,2.93.83.25.66-.25,4.49-.7,4.88-.16.14-.45.07-.56.13Z"/>
  <path class="cls-6" d="M170.73,40.66l1.44-2.32c.83-1.12,4.59-4.95,5.73-5.16s1,.96,1.48,1.48c.53.58,2.01,1.22,2.49,2.24l-1.11.7c.05-.86-1.73-3.34-2.43-3.56-1.31-.43-1.31.55-2.16,1.34-1.92,1.77-2.98,3.23-4.63,5.1-.16.18-.51.16-.53.18h-.28Z"/>
  <path class="cls-6" d="M141.77,10.31l1.3-.07c.17.44,1.76.51,1.48,1.04-.17.31-.78.4-.97.7-.4.66-1.18,4.21-1.62,5.35-.17.44-.24.87-.76,1.05-.15-.07-.24-.27-.28-.28.03-1.24,2.46-6.46,1.91-7.2-.04-.05-.89-.5-1.07-.6Z"/>
  <path class="cls-6" d="M176.3,71.29c-.18.05-.41.27-.56.28-1.19.1-1.24-.74-.83-1.67h-.84c.68-1.37-.32-.55-.71-1.1-.28-.39-.02-1.06-.12-1.41,1.61-1.71,2.28,1.49,2.88,2.85.15.35.09.85.19,1.05Z"/>
  <path class="cls-6" d="M114.47,3.63c.18.01.37-.02.56,0,.39,2.06-.56,3.9-.78,5.8-.08.64-.02.57.5.89-.9.08-.77.5-2.23.28-.15.93-.27.52-1.39.56.1-1.22.66-.67,1.39-.56.14-.82.42-.44.64-.9.92-1.88,1.04-4.01,1.31-6.06Z"/>
  <path class="cls-6" d="M184.1,45.68l-1.8,2.22c-.91.39-2.68,2.51-3.49,2.51.37-.99,1.16-1.63,1.95-2.37,1.02-.96,2.09-1.8,3.35-2.36Z"/>
  <path class="cls-6" d="M181.87,39.27c-1.26,1.16-2.98,3.59-4.31,4.47-.28.19-.6.2-.7.26-.39,1-1.07,1.61-1.95,2.23,0-.08-.02-.2,0-.28.23-1.14,1.22-1.47,1.95-1.95.05-.13-.08-.42.08-.76.1-.22,3.02-3.09,3.39-3.43.27-.25.66-.62,1-.72.41-.12.52.17.55.17Z"/>
  <path class="cls-6" d="M97.76,9.75c-.67.16-.61-.35-.7-.82-.17-.96-.42-4.1.14-4.75.66,1.58.64,3.42.75,5.11.01.19-.2.39-.19.45Z"/>
  <path class="cls-6" d="M81.61,6.13c.04-.12-.09-.41.03-.52.18-.17,2.32-.45,2.47-.3s.66,3.98.53,4.14c-.09.12-.44-.02-.52.02l-.23-.19c-.14-.24.01-.83-.05-.92-.08-.54.13-1.29.01-1.78-.08-.34-.43-.12-.57-.17-.58-.24-.94-.42-1.67-.28Z"/>
  <path class="cls-6" d="M133.97,8.36c-.06,1.09-.64,2.4-.84,3.62h-.84c.22-1,.51-1.99.8-2.97.2-.65-.22-.77.87-.65Z"/>
  <path class="cls-6" d="M116.14,6.97c-.17,1.28-.34,2.6-.28,3.9-.71-.21-.64-.45-.84-.56.33-.68.33-1.49.42-2.23.06-.47-.4-1.75.69-1.11Z"/>
  <path class="cls-7" d="M44.56,37.6c-.62-.15-1.26.23-1.81.22-.73,0-1.53-.42-2.09-.5l.18-.23c1.27-.23,2.52.14,3.72.5Z"/>
  <path class="cls-6" d="M157.08,17.83c.06-.07-.15-.49.17-.57.86-.21,2.22.11,2.33,1.13-.83-.18-1.69-.3-2.51-.56Z"/>
  <path class="cls-6" d="M84.95,10.03c.17.2-.31.93-.21,1.06.11.16.82.05.49,1.16-1.56.13-1.01-3.1-.28-2.23Z"/>
  <path class="cls-6" d="M55.7,16.44v.28c-.5.19-.61.61-.56,1.11-.46.07-.76.28-1.11.56,0-.05-.23-.17-.28-.28.83-1.03.42-1.35,1.95-1.67Z"/>
  <path class="cls-6" d="M116.42,5.3c-.11.36-.21.74-.28,1.11-1.08-.81-.13-1.99-.28-3.06l.55,1.95Z"/>
  <path class="cls-6" d="M186.33,44.28c-.83.78-.81.89-1.95,1.39.05-.84,1.19-1.39,1.95-1.39Z"/>
  <path class="cls-6" d="M180.48,38.43c-.4.76-.57.56-1.11.84-.49.99-.26.94-1.39,1.39-.26.8-.4,1.17-1.39,1.11.71-.76-.19-.49,1.39-1.11.06-.17-.12-.51.06-.77s1.02-.47,1.33-.62c.27-.53.05-.97,1.11-.84Z"/>
  <path class="cls-6" d="M75.48,9.47c-.9.22-.49-.64-.55-1.39.69.15.32.86.55,1.39Z"/>
  <path class="cls-6" d="M104.17,3.63c-.03.27.04.58,0,.84l-.55-.98c.16-.27.34.12.55.14Z"/>
  <path class="cls-6" d="M186.61,44c-.08.04-.24-.04-.28,0l.14-.27.14.27Z"/>
  <path class="cls-4" d="M173.24,28.41s-.03.4,0,.56c-.1-.03-.41-.01-.56,0-.16-.42.2-.85.56-.56Z"/>
  <path class="cls-4" d="M104.44.29c.19.46-.37.46.56.56,1.11.11,2.26-.2,3.34,0V.29c.17.02.39.02.56,0-.13.92.3.44.8.45,2.66.08,5.34.27,8,.13.14,0,.08.47.3.53,1.04.27,4.14.32,5.67.56,1.22.18,2.4.48,3.61.71.43.08,1.14.36,1.41-.16.41.19,1.05.4,1.39.56,3.54,1.62,5.97,2.43,9.75,3.62,1.91.6,2.11.84,4.18,1.11.18.02.38-.02.56,0,.04,1.13,1.88,1.14,2.79,1.39,1.5.42,1.52.32,2.79,1.11,2.29,1.44,3.61,1.88,6.13,2.78.08.03.2-.03.28,0-.13.6.31.61.69.83,3.78,2.2,6.77,4.59,10.32,6.97.55.37,1.38.98,2.08.83.11.16.17.38.28.56.22.37,3.03,2.74,3.6,3.21s1.81,1.68,2.52,1.24c.1.09.18.19.28.28-.65.28-.13.8.13,1.13.76.95,1.89,1.53,2.67,2.34,2.54,2.64,4.44,5.58,6.72,8.33,2.35,2.84,5.19,5.53,7.28,8.59.88,1.29,1.81,2.82,2.39,4.05,2.11,4.48,4.75,8.8,7.22,13.06.29.51,1.63,2.7,1.66,3.07.11,1.14-1.4.29-2.02.37-2.27.28-5.57,3.85-7.52,4.76-.44.21-.76.34-1.27.26,1.41-1.84,3.42-3.06,5.38-4.22.44-.26,2.31-.99,2.38-1.1.62-.87-2.82-4.95-2.48-6.37-.39-.06-.69.06-1.03.22-2.29,1.04-4.51,3.01-6.66,4.2-1.19.66-1.67.38-.81-.81.81-1.11,4.4-2.79,5.8-3.39.77-.33,1.89-.07,1.47-1.62-.12-.45-.65-.74-.83-1.13-.61-1.3-1.15-2.61-1.85-3.87-.09-.07-.96.2-1.16.3-2.25,1.17-4.53,3.48-6.59,4.61-1.2.66-1.68.44-.57-.57,2.19-2,5.04-3.51,7.48-5.2-.43-.85-1.94-4.57-2.49-4.86-1.46-.76-3.66,2.46-5.29,2.1l.55.55c-.89.52-2.16,1.3-2.92,1.96-1.03.9-1.66,2.83-2.06.31,1.16-1,2.74-1.63,3.94-2.53.25-.19.31-.53.5-.67.9-.7,4.51-2.98,3.76-4.34-.16-.29-1.44-1.11-1.83-1.67-.06-.09.07-.48,0-.56-.05-.05-.63.39-.8.27-.31-.22.13-1.02-.87-.54l-.14-.27-.14.27s.05.23,0,.28c-.76,0-1.9.55-1.95,1.39-.08.03-.2-.03-.28,0-1.25.56-2.33,1.4-3.35,2.36-.78.74-1.58,1.38-1.95,2.37-.64,0-.98-.56-1.39-.97.7-.68,1.36-1.43,2.09-2.08,1.38-1.23,2.79-1.89,4.03-3.35.06-.07.04-.44.26-.7.48-.57,1.5-.55,1.31-1.53-.06-.3-.93-2.09-1.12-2.24-.5-.42-1.46-.24-2.12-.25-.03,0-.14-.3-.55-.17-.34.1-.73.47-1,.72-.36.34-3.28,3.21-3.39,3.43-.16.34-.03.63-.08.76-.72.48-1.72.81-1.95,1.95-.85.1-.58-.23-.34-.76.54-1.21,1.94-1.6,1.73-3.14.09-.1.19-.18.28-.28.99.06,1.13-.31,1.39-1.11,1.13-.45.9-.41,1.39-1.39.55-.27.72-.07,1.11-.84.04-.07.28-.79.28-.84l1.11-.7c-.48-1.02-1.96-1.66-2.49-2.24-.48-.53-.4-1.68-1.48-1.48-1.13.21-4.89,4.04-5.73,5.16l-1.44,2.32c-.98.11-1.05-1.89-.28-2.51l6.25-6.14.99-.27-1.81-1.69c-.4-.16-2.45-1.46-2.64-1.65-.04-.04.09-.49-.14-.56-.93-.29-.57.42-.86.82-.18.25-.5.65-.67.86-.12.15-1.5,1.11-1.58,1.19-1.15,1.2-2.08,2.77-3.43,3.82-.4-1.51-.25-.96.27-1.6.79-.98,1.51-1.92,2.24-2.93.14-.19.49-.2.51-.25.16-.3-.25-.67-.24-.79.11-.06.5.12.77-.06.07-.05,1-1.26,1.04-1.33.4-.8-.34-1.55-.98-2.07-.76-.61-2.16-1.45-3.14-1.27-.43.08-4.45,6.23-5.25,7.06-.64.92-1.66.52-.72-.45,1.2-1.25.96-2.26,1.08-2.4.09-.1.59.1.82-.2.14-.18.17-.62.4-.93.78-1.02,3.85-3.61,2.87-4.99-.13-.19-3.48-1.95-4-2.27l-4.54,6.88-.89.64c1.11-2.86,2.92-5.27,4.69-7.72.23-.61-.91-1.43-1.37-1.6-.21-.08-.25.14-.26.14-.09-.02-.19.02-.28,0-.11-1.02-1.47-1.34-2.33-1.13-.33.08-.12.5-.17.57-.09.12-.64.13-.77.33-.42.64.17,2.27-1.18,1.9.59,1.82-.1,1.19-.28,1.39-1.12-.12-1.69,2.87-1.96,3.06-.25.17-1.09-.13-1.1-.41-.01-.27,2.2-3.95,2.55-4.69.37-.79.48-1.8.8-2.49.14-.29,1.23-.32.09-1.28-.37-.31-3.17-1.77-3.65-1.93-1.42-.46-1.71,1.64-2.08,2.52-.52,1.25-.73,1.64-1.05,2.99-.72.7-.85,1.39-1.26,2.23-1.56-.54-1.36-.86-.69-2.23.41-.84,1.38-2.28,1.96-3.2.39-.63,1.09-1.28,1.48-1.82,1.18-1.66-3.53-2.44-4.55-2.78,0,.18,0,.37,0,.56,0,.25.04.21,0,.56-1.29,2.02-1.86,4.4-2.51,6.68-.75.18-1.4-.71-1.67-.84.52-.18.59-.61.76-1.05.44-1.14,1.21-4.69,1.62-5.35.19-.3.8-.39.97-.7.29-.53-1.31-.59-1.48-1.04l-1.3.07c-.1-.05-1.21-.28-1.39-.56-.1-.15.22-.66-.28-.56-.77,2.48-1.94,4.91-2.23,7.52l-1.39-.28c1.19-1.74,1.16-4.55,1.92-6.3.26-.59,1.29-.78.84-1.47-.17-.27-5.28-1.94-5.54-1.7-.13.38.27.52.28.56.04.23.01.58,0,.84-1.09-.11-.67,0-.87.65-.29.98-.59,1.97-.8,2.97-.16.75-.23,1.73-.28,2.51-2.61-.18-.76-2.44-.34-3.82.13-.42-.03-.95.08-1.31.76-2.52,2.52-3.24-1.54-3.51-.78-.05-1.59.06-2.38.01-.13.41.58.27.56.55,0,.04-.23.24-.28.69-.07.75.04,1.5,0,2.1-1.14-.08-.69-.04-.83.69-.12.62-.18,2.82-.29,2.93-.08.08-1.09-.05-1.39,0,.39-.98.09-1.59.03-2.38,0-.13.44-.07.52-.32.23-.73.73-3.73.58-4.36-.29-.35-1.01-.46-1.45-.55-.52-.11-.9-.53-.79.37-.65-.16-1.26-.36-1.95-.28.15.83-.14,1.66-.18,2.41-.05,1.09.04,2.24-.1,3.43-.75-.05-.74-.15-.72-.83.06-1.76.65-3.51.44-5.29-.36-.07-.45.51-.49.76-.28,1.76-.52,3.59-.63,5.37-1.28.29-.45-.65-1.39-1.12.1-.06.4,0,.56-.13.45-.38.94-4.22.7-4.88-.5-1.35-1.89-1-2.93-.83-.28.05-.99-.1-1.1.02-.04.04-.19.78-.3,1.1l-.55-1.95c.15,1.07-.8,2.25.28,3.06,0,.03.05.16,0,.56-1.09-.64-.64.64-.69,1.11-.09.74-.1,1.55-.42,2.23-.04-.02-.19,0-.28,0-.52-.32-.58-.24-.5-.89.22-1.9,1.17-3.73.78-5.8-.18-.01-.37.01-.56,0-1.74-.11-3.26-.64-5.01-.28.09.47.21.92.28,1.39-1.17.7-.21,5.51-.56,5.85-.34-.36-1.33.05-1.39,0-.14-.14.3-.74.3-.96,0-.17-.57-.14-.55-.27.17-1.21.57-4.51.22-5.55-.22-.65-2.93-1.26-3.31-.18-.09,0-.19,0-.28,0-.21-.02-.39-.42-.55-.14l.55.98c-.12.75-.52.7-.56.84-.22.79.2,5.09,0,5.29h-1.4c-.05-1.48,1.01-7.13-.43-7.79-.75-.34-.77.29-.69.82-.99-.05-3.25-.2-3.9.56-.56.65-.32,3.79-.14,4.75.09.47.03.98.7.82,0,.09-.01.19,0,.28-.34.85-.69,1.18-1.67,1.11-.48-2.43-.2-5.04-.82-7.4-.42-.28-4.22-.16-4.47.16-.13.36.26.5.28.55.36,1.06.17,1.8.28,2.78-.91,1.6.44,3.42-.28,5.01l-1.11-.28c-.13-.48.58-.12.57-.43,0-.27-.28-.68-.3-1.09-.04-.78.38-2.23-.55-2.1.91-1.06-.03-2.75.28-4.17-.11-.11-3.02-.14-2.79.84-.07.01-1.34.51-1.39.57-.09.12.21,1.31.27,1.66-.92-.11-.44.27-.37.79.16,1.09.88,4.06.66,4.88-.03.13-.64.45-.71.47-.05.01-.42-1.26-.97-.28-.04-.03-.33.09-.48-.07-.32-.33-.72-2.56-.64-3.08.03-.17.4-.38.56-.48.08-.05.43.09.52-.02.13-.16-.38-4-.53-4.14s-2.29.13-2.47.3c-.12.11.01.4-.03.52-.26.77-.2.4-.56.84-.64.79.08,3.94.36,5.07.25,1.02,1.45,2.09.03,2.42-.56.13-.31-.06-.42-.36-.89-2.51-1.42-5.14-2.23-7.67-1.01.01-2.15.23-3.05.67-.2.1-1.01.28-.54.7.36.33,2.91-1.5,3.34-.28-2.53-.14-1.91,2.34-2.01,4.04-.01.23-.22.37-.22.41l-.56-1.95c-.11-.08-.47.26-.5.44-.16.86,1.03,3.98,1.35,5,.09.59-.98,1.01-1.12.51-.3-1.08-.63-2.19-.84-3.3l-.56.41c-.26-1.09-.82-2.4-.84-3.62,0-.74,1.2-1.71-.91-1.33-5.69,1.02-2.24,6.39-1.16,9.67.31.94-.87,1.36-1.41.01-.82-2.02-1.83-4.84-1.53-6.96-.71,0-1.49-.1-2.17.19-.55.23-.26.55-.33.64-4.49.83-1.86,2.55-1.41,5.72.1.6,1.82,3.59,1.68,3.74-.03.03-.7.2-.84.14-.72-.29-2-4.57-2.45-5.62-.23-.53-.76-1.1-.89-1.48-.07-.21.08-.73,0-.83-.12-.15-1.26.07-1.6.21-.45.19-2.5,2.55-2.58,3-.34,1.97.87,2.55,1.45,3.83.53,1.16.82,2.61,1.57,3.73.22.34-.49.6-.66.65-.46.14-3.32-8.05-3.93-8.62-.22-.06-.35.26-.38.26-1.53.32-1.12.64-1.95,1.67-.32.39-1.03.83-1.07.89-.47.8,2.99,8.49,3.72,9.69.48.11,1.37-1.11,1.74-1.37,1.75-1.21,4.07-2.07,5.97-3.43.62-.44.56-.6.5-1.32,1.9.35.87.11,1.58-.28,1.36-.74,3.41-1.3,4.88-2.03,3.08-1.51,6.08-3.26,9.33-4.32,1.91-.62,1.86-.06,3.75-1.39.19-.13,4.18.08,4.14-1.45,1.08,1.05,2.82-.05,4.17-.28,1.52-.26,4.98-.33,6.2-.85.23-.1.23-.33.21-.54.53.58,2.34.89,2.22,0,.46-.15.12.54.44.58.35.04.9-.29,1.37-.3.78-.03,2.13.16,2.75,0,.24-.06.14-.61.31-.56.21.07.48.41.9.5,1.69.36,1.52-.54,1.61-.5.68.3.4.46,1.53.56,2.88.24,5.24.1,8.19.59,2.69.44,7.93,1.5,10.38,2.43.43.16.39.59.56.61.73.11,1.18-.58,2.03.15.21.18.25.61.33.66.18.12.66-.3.77-.23.08.06.04.59.49.76,1.71.65,4.34,1.2,5.95,1.89,4.17,1.78,8.07,4.75,12.24,6.96.51.27.86,1.34,1.14,1.62,1.53,1.54,5.23,3.88,7.26,5.56,9.23,7.69,16.98,17.11,24.21,26.76,2.45,3.27,4.81,6.53,7.04,9.95.48.73,1.11,2.29,1.8,2.65.21.11.54.02.62.07.03.02-.25.46-.24.7.05.96.54.78.77,1.19,1.67,2.88,3.26,5.56,5.01,8.35.49.79.04,1.87,1.69,1.18.12.48-.41.18-.51.3-.36.48,1.65,3.08,1.9,3.87.05.14-.03.38,0,.56-.46-.04-.98.38-1.39.56-.3-.08-1.57-.05-1.95,0-2.08-.1-2.91-2.26-4.45-3.49-.35-.28-1.34-.97-1.7-1.11-.64-.24-1.22.15-1.4.02-.32-.23-.37-1.67-.95-.15-.26,0,0-.49-.32-.57-.89-.22-2.25.16-3.45-.13-.63-.15-3.28-1.28-3.59-1.71-.21-.3-.23-.85-.3-.94.16-.56-.39-.49-.54-.77-1.62-2.86-3.94-5.65-5.31-8.7-.09-.21-.03-.7-.19-1.05-.59-1.36-1.27-4.56-2.88-2.85-.04-.17-.62-.47-.84-.84.66.13,1.39.38,1.63-.48.28-1.01-2.5-5.31-3.22-6.42-1.37-2.13-3.16-4.66-4.7-6.73-2.62-3.54-5.72-6.87-8.47-9.91-5.29-5.86-13.94-11.8-21.11-15.06-.31-.14-.78-.4-.97-.47-1.58-.64-3.93-1.83-5.51-1.3.51-.91-1.33-1.21-1.39-1.12-.13.19.27.92-.28.84.19-1.08-.95-1.32-1.84-1.37-.44-.03-.79.26-1.06.27-.22,0-.18-.62-.62-.8-1.1-.43-5.88-1.27-7.23-1.41-1.13-.12-2.26.17-3.22.1-2.78-.22-5.05-.64-7.89-.41-4.4.36-13.82,2.7-17.41,5.18-.36.25-.1.95-.84.39v.84c-1.2-.71-.97.06-1.34.25-2.01,1-2.79,1.64-4.54,2.93-.57.42-3.48,2.26-3.57,2.58-.11.37.29.67.11.92-1.78-.87-1.31.02-1.8.64-.13.17-.79,1-.85,1.04-.09.06-.48-.17-.85.18-.73.69-1.27,2.51-1.39,2.59-.14.1-3.04-.4-3.48-.54-.83-.27-1.38-.67-1.5-1.55-.29-2.14-.08-1.87,1.92-1.8.34-.33-1.09-1.74-1.3-2.02-.06-.09.16-.35.1-.42-.05-.06-.87-.84-.93-.86-.21-.07-1.97-.08-2.33-.04-2.71.27-6.25,2.04-8.39,3.3-.09.05-.92-.03-1.86.25-2.5.74-5.07,1.78-7.85,2.02-.45.04-.8-.25-.99-.26-.14,0-.11.53-.26.55-.64.1-1.35-.98-2.37-.29l.28-.55c-.18-.05-.42.04-.56,0-1.2-.37-2.45-.73-3.72-.5l-.18.23c-1.08-.16-2.14-.08-3.19-.58-.3,0,.03.73-.43.57.23-.72-1.68-.98-1.91-.78-.13.11,0,.46-.04.51-.03.03-.62.19-.84.28-.18-1.58-2.26-.56-3.2-.53-1.84.06-3.89.22-5.71.25-.97.02-2.46-.37-3.77-.29-1.06.06-1.71.83-1.52-.54-1.51.63-3.38-.27-4.89-.25-.63.01-.96.7-1.86.23-.22-.12-.21-.49-.41-.54-.72-.15-1.59.22-2.31-.29v.84c-.54,0-.24-.85-.97-.84-.37,0,.16.94-.42.84l-1.4-1.11c2.08.27,4.19-.44,6.27-.41.66,0,1.56.44,1.93.42.18,0,.11-.54.27-.54.66,0,1.29.74,1.27-.87.35-.03.75-.25,1.11-.28v1.11c.93.3,1.08-.37,1.39-.56.43-.26.95-.8,1.01-.82s1.25-.04,1.31-.03c.34.04,0,.71.46.57-.14-.83.69-.88.56,0,.47.12.15-.44.4-.51.55-.16,1.88.23,2.38.23-.03.98-.17.77.68.84,3.84.31,10.94.81,14.36-.28.17-.06.38-.26.56-.28-.28.76.87.68,1.54.56.84-.15.53-.61.69-.84.54-.75.38-.43,1.11-.56l-.84,1.11c.96-.39,5.42-.81,5.84-1.41.13-.19-.37-.62-.14-.81.7.86,2.22.55,1.81-.84.07.04.25-.05.28,0,.12.18-.35.73.63.51,1.09-.25,1.35-1.08,1.66-1.25.35-.19,1.68-.43,2.16-.65-.01-.34-1.58-.85-1.67-.83-.26-.34-.23-.72-.28-1.11-.27-2.08-1.35-4.92-2.1-6.96-.14-.38-.23-1.03-.68-.28-.02-.04-.4-.12-.5-.46-.24-.79,0-2.08.5-2.76.54-.75,4.17-4.06,4.93-4.58,1.17-.79,2.58-1.02,3.7-1.39,5.44-1.82,10.63-5.3,16.65-6.89,1.65-.43,3.46-.45,5.15-.99.46-.15.91-.06.77-.75,1.5-.3,2.97-.59,4.46-.84-.17,1.18,1.46.23,1.92.17,1.72-.23,5.2-.11,6.53-.45.54-.14-.51-.31,1.15-.27,2.16.04,3.68-.14,5.76-.4.42-.05.94.52.8-.44.09,0,.19,0,.28,0,.12-.01.26-.27.28-.28.29-.05.23.15.28.28ZM75.48,9.47c-.23-.53.14-1.24-.55-1.39.06.75-.35,1.61.55,1.39ZM84.95,10.03c-.74-.88-1.28,2.35.28,2.23.33-1.11-.38-1.01-.49-1.16-.09-.13.38-.86.21-1.06Z"/>
  <path class="cls-6" d="M171.29,42.06c-.04-.09-.27-.2-.28-.28h.28v.28Z"/>
  <path class="cls-6" d="M171.85,42.61s-.36.08-.5-.05-.01-.41-.05-.5l.28-.28s.04-.35.28-.28v1.11Z"/>
  <path class="cls-4" d="M122.55,11.98s-.2.4-.56.28c-.14-.42.27-.53.28-.56l.28.28Z"/>
  <path class="cls-4" d="M166.27,34.82c.19.1-.16.47-.55.27-.19-.1.16-.47.55-.27Z"/>
  <path class="cls-6" d="M178.81,50.97s-.17-.05-.18-.13c-.01-.06.18-.11.18-.14v.28Z"/>
  <path class="cls-4" d="M173.38,66c.18.09.18.19,0,.28v-.28Z"/>
  <path class="cls-4" d="M76.31,12.54c.79-.09.48.06.56.56-.7.07-.54.02-.56-.56Z"/>
  <path class="cls-4" d="M84.67,13.65v-.28s.27-.03.27.14c-.05.17-.15.12-.27.14Z"/>
  <path class="cls-4" d="M96.51,11.7c.18.09.18.19,0,.28v-.28Z"/>
  <path class="cls-4" d="M55.7,16.71c.72.31.47.61.56,1.11-.36.04-.77-.05-1.11,0-.06-.5.06-.92.56-1.11Z"/>
  <path class="cls-4" d="M61.27,14.21c-.21.62-.57.44-.84.56-.11-.84.3-.6.84-.56Z"/>
  <path class="cls-4" d="M83.28,6.41c.14.06.49-.17.57.17.11.48-.1,1.24-.01,1.78-.04-.06-.51.06-.56,0-.15-.21.34-1.49,0-1.95Z"/>
  <path class="cls-3" d="M66.57,33.42c.41,0,.67-.3,1.33-.1.3.09,1.7.96,1.74,1.13.35,1.46-.63.68-1.08.96-.62.4-.12,3.65.3,4.08.06.06,1.31.48,1.55.54,2.61.67,5.52,1.03,8.14.35-.26.23,1.55,2.99.28,2.51-.16-.13-1.34-.26-1.72-.36-.35-.09-1.37-.98-1.62-.05-.12.45.17.68.4.98.66.85,1.87,1.45,2.64,2.09,1.78,1.48,3.49,2.97,5.4,4.21.47.31,1.25.59,1.03-.18.13-.22.9,1.12,1.11,1.24.47.26,1,.07,1.46.23,3.65,1.28,6.72,1.44,10.58.97,1.48-.18,1.63-.22,3.14-.21,2.4.02,3.88-.17,6.04,1.14.52.31,2.2,2.32,3.01,1.64.59-.49-1.66-1.05-1.93-1.27-.89-.7-2-2.54-3.08-2.91l-.91-1.32c-3.22-1.2-5.24-1.94-8.75-2.2-4.51-.34-8.01-.88-12.4-2.42-1.34-.47-2.18-1.65-3.13-2.72-.32-.36-.88-1.95-1.56-1.37.06-.01.26-.34.54-.42,1.84-.54,3.23-.9,5.04-1.67.63-.27.64-.19.55-.97.37-.02.75.03,1.11,0,.02,0,.14.21.35.19,1.87-.15,5.23-1.49,6.4.71.59,1.1-.09.92-.24,1.15-.19.32-.2.89-.56,1-1.27.38-1.1-.85-1.23-1.1-.07-.14-1.57.4-1.95.28.65,1.07.97,2.49,2.38,2.77.88.18.71-.17.69-.83,3.07-.04,6.08-1.22,8.78-1.4,3.45-.22,4.31,2.13,6.39,4.2.52.52,1.09.35.98,1.1,0,.05-.43.2-.17.55.42.56,1.65.63,2.11,1,.28.22.25.66.28.68.43,1.24-1.37.9-1.11,1.53.16.39,2.83,3.05,3.35,3.63.21.23.19.7.36.88,1.83,2,5.07,2.79,7.56,3.72,3.99,1.49,7.5,3.25,11.58,4.85,1.93.76,4.39,1.51,6.12,2.52.18.11.2.52.49.68.33.18,2.32.51,2.85.56.09,0,.19,0,.28,0,.18.51.62.58,1.04.77,5.07,2.21,8.29,5.67,12.27,9.52,2.08,2.02,2.8,2.88,4.07,5.57.5,1.06,1.45,2.52,2.08,3.81.56,1.16,1.05,2.05,1.15,3.44l.55-.55c-.2.73.72,1.1.75,1.17.03.06.3.98.37,1.2.05.16-.44.12-.49.18-.3.37.89,1.73,1.17,2.21,1.41,2.49,2.75,4.65,4.83,6.43.2.17,0,.69.06.78.03.05,1.15-.04.56.56s-.51-.52-.56-.56c-.09-.08-.86.05-1.11,0-2.44-2.98-4.97-5.92-7.24-9.05-.54-.74-2.96-4.99-3.53-5.12-.47-.11-.72.4-1.48-.31l.83-.69c-2.17-2.65-4.21-5.44-6.71-7.77-1.19-1.11-1.53-1.35-2.95-2.2-.44-.26-1.85-2.62-2.17-.48l-1.74-1.66-4.8-2.79c-.01-.09.02-.27,0-.28l-.14-.28c-.52-.1-.44.08-.42.55-.19-.03-.3-.51-.63-.64-4.09-1.68-9.81-4.34-13.86-5.48.74-.43.11-.55-.28-.69-4.22-1.45-8.69-2.65-13.24-2.61-.67,0-1.14.55-1.8.51.48-.7.06-.6-.69-.84l-.42.84c-.03-.49.27-.79-.41-.84-1.18-.09-2.45.12-3.63,0-5.09-.47-12.45-1.75-16.94-4.22-.67-.37-1.46-1.29-1.87-1.47-1.76-.81-2.92-1.23-4.28-2.96-2.18-2.77-2.82-3.72-5.72-5.99-3.89-3.04-7.98-5.58-12.3-8.31-1.02-.65-3.82-1.3-2.08-2.13,1.49-.72,3.66-1.06,5.11-1.84.37-.2.35-.58.38-.6.06-.04.89.23,1.35.23Z"/>
  <path class="cls-3" d="M117.81,74.08l-.55,1.39c.93-.59.34.07.62.47.16.23,1.08.58,1.6,1.2.79.91-.05.74,1.67,1.11-.22.69.53.52.56.56.04.05.07.71.37,1.15,1.18,1.71,1.41,1.89,2.33,3.79,1.96,4.06,4.96,7.69,7.87,11.13.33.39.7,2.09,1.68,1.47.84,1.14,2.1,3.35,3.06,4.18-.8-.08-.68.15-.28.7,1.61,2.21,6.22,7.07,8.63,7.94.03.14-.08.35.04.5.16.2,4.24,2.09,4.67,2.14.31.04.55-.14.58-.14,2.43.39,5.44,1.56,7.67,1.68.95.05,2.09-.34,3.05-.3,2.5.11,5.6,1.34,7.94,2.24.63.24,1.14.9,2.23.56l-.55.41c.43.99,1.93,1.56,2.21,1.97.5.74.91,2.61,1.84,3.45.61.55,2.15,1.22,2.81,1.8,1.45,1.26,3.23,4.92,4.58,6.68.41.54.75.5,1.36.45.44,1.36.39.8.77,1.58s1.01,3.46.71,4.2c-.19.46-1.73.6.19,1.04-.65,2.57-.91,5.87-2.56,8.02-1.11,1.45-4.99,3.83-6.8,4.06-.86.11-2.18.08-2.97-.28-.2-.09-.23-.42-.44-.51-2.39-1.01-2.66-.84-4.39-2.79-.47-.53-.71-1.18-1.24-1.69-.19-1.49-.68-1.6-.8-2.67-.11-.91-.38-3.1.52-3.31-1.1-.7,0-3.18.57-4.11,1.44-2.38,6.75-2.25,8.63-.36.53.53,1.59,2.11,1.66,2.82.04.41-.73,2.79-.85,2.89-.09.08-.59-.03-.82.01.28-1.78-2.95-3.13-4.38-2.58-1.27.49-1.08,2.17-.57,3.21.7,1.43,3.02,2.62,4.55,2.68.13,0,.06-.44.31-.52.81-.23,1.47-.08,2.23-.93.43-.48,1.77-3.41,1.91-4.08.1-.46.17-3.71.07-3.87-.03-.05-.41-.04-.51-.23-1.39-2.73-2.67-4.82-4.88-7.04-2.04-2.05-5.87-4.57-8.76-5.72-5.76-2.27-12.39-3.94-18.38-5.71.58-.88.11-.4-.39-.58-4.25-1.55-8.36-3.42-11.29-6.88-.61-.72-1.71-2.03-2.2-2.73-.14-.2-.83-1.48-.88-1.64-.09-.29.69.09.55-.41h-1.39c-.94-1.67-1.87-3.34-2.79-5.02.84.13.58-.32.44-.85-.23-.89-3.02-6.85-3.54-7.6-.36-.53-.83-.59-1.09-.94-1.15-1.52-2.12-4.4-3.49-5.91-.38-.42-.38-.46-.96-.57.09-.63-.18-.86-.55-1.27-2.07-2.26-3.46-4.05-6.14-5.83-.4-.26-.59-.89-.55.13-.91-.6-5.54-2.15-5.8-2.55-1.29-1.91,3.33-1.29,4.41-.93,1.7.57,3.19,2.18,4.54,2.71.3.12.71.01,1.32.2Z"/>
  <path class="cls-2" d="M83.56,84.38c1.23.41,3.55,2.1,3.9,3.34.04.16-.05.41,0,.56-.89-.39-3.35-2.97-3.9-3.9-1.61-.53-2.39-1.61-3.82-2.44-1.08-.63-.78.08-1.75-1.18,1.73.42,4.07,1.66,5.29,2.94.3.31.2.55.28.68Z"/>
  <path class="cls-2" d="M87.45,88.28c1.15.51,1.24.86,2.23,1.39.03.51.26.86.56,1.25,1.16,1.53,6.17,5.1,7.97,5.95,1.51.72,3.89,1.57,5.54,1.7s2.83-.34,4.38.08c.69.19.54.96.95-.08,1.56.26,3.46-.26,4.9-.2.85.03,4,.66,4.95.9,6.76,1.72,11.39,10,16.27,14.63,1.78,1.69,4.09,2.59,5.17,4.73.76.33,2.93,1.39,3.43,1.94.33.36.12.56.19.85.13.03.35-.05.48.07.16.15.04.38.08.48-.16.03-.39.06-.5-.06-.11-.16-.02-.36-.05-.5-1.35-.36-2.99-1.54-3.62-2.78-.69-.3-1.66-.9-2.37-.57.47-1.94-.46-.69-.67-.84-.04-.03-.1-.57-.42-.84-.58-.48-1.94-1.06-2.57-1.47-.21-.14-.29-.61-.72-.82-.7-.34-1.26.12-1.31.08-.1-.07-.6-1.7-.93-2.14-.49-.67-3.63-3.8-4.35-4.42-.64-.55-1.89-.57-1.97-1.51-.56-.09-.09,1.21,0,1.39-.18-.01-.37.02-.56,0,.13-1.43.13-1.82-1.32-2.16-3.88-.91-8.24-.59-12.12-1.24-1.76-.3-3.39-.91-5.22-1.05-.3-.02-.57.05-.9-.06-.57-.18-2.89-1.75-3.12-1.78-.21-.02-1.02.06-.99.45,1.97.79,2.78,2.68,4.45,4.05,1.72,1.4,2.78,1.94,4.85,2.09.19.01.12.45.37.54.87.3,3.34-.1,3.42,1.13-6.03-.71-8.93-2.25-12.69-6.96-.22-.27-.37-.48-.4-.84-1.08-.44-2.57-2.62-4.1-3.06-.52.16-1.12-1.2-1.47-.84-.11.12.31,1.15.44,1.37,2.06,3.4,4.56,6.2,6.8,9.35.33.46.38,1.25.61,1.48.24.24,2.26,1.99,2.61,2.24,2.62,1.91,7.89,3.06,11.1,2.83,1.25-.09,3.3-.89,4.48-.72.26.04.44.42.82.44.18.01.11-.41.2-.49.11-.09,2.47-.09,2.82-.06,1.13.1,2.58.46,3.67.81.18-.15-.34-.76-.42-.83-.21-.81.78-.59,1.39-.84.09.24.24,1.08.28,1.12.14.11,1.05-.41,1.11-.28.05.1-.06.44.09.74.58,1.08,5.68,3.75,6.97,4.6,1.93,1.27,3.45,2.76,5.56,3.92.34.19.98.18,1.02.22.09.07-.16,1.13,1.39.28-.35,1.53.81,1.18,1.06,1.44.15.16.03,1.13.6,1.77.39.44,2.5,1.9,3.07,2.08.75,1.53,2.56,2.77,3.98,3.63.18.11.2.45.25.48.15.08,1.86-.37,1.21.63h-.7c.44-.12.55.51.76.55.33.08,1.13-.06,1.19,0,.05.05-.05.84.05,1.19.28.9,1.99,2.62,3.01,2.71.04.22-.11.53.06.77.34.51,2.17,1.08,2.84.91.34-.08.11-.44.17-.57.28-.62.3-1.03,1.11-.84.14,1.2,1.03,4.42,1.65,5.4.18.29.54.13.58.17.18,1.42.2,1.58.89,2.87,1.27,2.36,3.77,4.42,4.96,6.88-.08-.06-.43-.07-.7-.26-.95-.69-2.46-2.46-2.65-3.63-.62-.28-.6.47-.55.84-.12-.43-.93-.55-.84.14.15,1.07.91,1.35,1.1,1.74.44.93.63,2.24,1.17,3.23.51.93,1.85,3,3.02,2.69-.77,1.31.3,1.22.74,1.76,1.09,1.32,2.7,3.47,4.36,4.17.84.36.36,0,1.32.58,3.77,2.27,7.92,3.67,11.96,5.19.91.34,1.73,1.22,2.14,1.34.56.16,1.23-.09,1.69.13.09.04,1.18,1.22.9,1.6-2.61-.15-5.53.28-8.09-.13-3.34-.53-8.23-2.34-10.82-4.5s-7.73-8.56-8.81-11.55c-.19-.54.15-.96.1-1.06-1.24-2.26-1.19-3.61-1.98-5.95-.41-1.2-1.29-2.61-1.73-3.84-.62-1.72-.98-3.59-1.67-5.29-.87-1-1.94-.48-2.72-.62-3.67-.66-6.59-1.63-9.27-4.38-4.59-4.71-5.83-9.48-11.85-13.22-2.05-1.27-4.36-2.15-6.45-3.23-.33-.17-.36-.68-.78-.96-2.9-1.94-8.46-1.42-11.84-1.53-5.16-.18-11.05.17-15.79-2.31-1.34-.7-3.08-2.55-4.12-3.68-2.57-2.78-4.81-6.61-6.67-9.89,1.04.14,1.19,1.2,1.9,1.93.28.29.33.8.28-.07-1.17-2.2-1.99-4.95-3.25-7.06-1.01-1.71-3.27-3.85-4.09-5.39-.17-.33-.06-.89-.21-1.05-.05-.05-1.06-.24-1.24-.69-.14-.35-.04-.6-.09-.75ZM194.54,172.66v.28c.18-.09.18-.19,0-.28Z"/>
  <path class="cls-3" d="M18.1,44.56c-.42-.46-2.01-.69-2.66-.83-.49-.1-.81.27-.68-.56,1.35.07,3.18.08,4.46.41,1.02.26,3.25,1.97,4.01,2.67,2.3,2.09,5.98,6.99,7.14,9.87s2.66,4.56,4.55,7.12c1.19,1.61,2.39,3.73,3.78,4.6,1.63,1.02,3.9,4.08,6.06,5.11,1.02.48,3.36.36,3.69,1.68h.27c.06-.11-.11-.58.12-.54,1.65.29,3.5,1.26,5.1,1.59,2.54.52,5.03.16,7.45.34s9.7,1.4,11.66,2.55c.51.3.31.87.74.79.09-1.55,1.07.18,1.16.23.11.06.51-.24.86-.17.51.11,1.83.9,2.16,1.34.96,1.25.67.55,1.75,1.18,1.43.83,2.22,1.91,3.82,2.44.55.93,3.01,3.51,3.9,3.9.05.15-.06.4.09.75.19.45,1.19.63,1.24.69.15.16.03.72.21,1.05.81,1.54,3.08,3.68,4.09,5.39,1.25,2.12,2.08,4.86,3.25,7.06.04.87,0,.36-.28.07-.72-.73-.87-1.79-1.9-1.93-1.55-2.72-2.17-4.69-4.73-6.68-.15-.12-.54-.34-.84-.56.11-.64-.21-.85-.55-1.26-2.88-3.57-7.77-5.28-12.26-5.14v-.56c.75.14,1.8-.08,2.64.28v-.57c-2.02-.87-3.64-2.44-5.77-3.13-1.58-.52-6.68-1.78-8.19-1.86-1.05-.05-1.97.58-3.01.55-3.92-.12-9.98-1.3-13.8-2.38-.26-.07-.5-.23-.7-.42l-.14.55h-.27c-.06-1.16-1.1-.78-1.7-1s-2.4-.86-2.75-1.09c-.45-.3-.54-.9-.84-1.09-.18-.11-.54.15-.56.12-.08-.1.13-.73-.06-1.06-.07-.13-.48-.17-.62-.35-1.97-2.65-5.14-6.35-6.01-9.46-.7-2.49-.56-3.63-2.36-5.85-1.78-2.19-1.81-1.17-2.78-4.18-.54-1.67-5.36-8.7-6.74-9.69-1.13-.82-2.69-1.08-3.31-2.54l-.68.54Z"/>
  <path class="cls-3" d="M93.02,86.89c-3.34-2.77-5.09-6.7-3.7-11.08,2.23-7.01,8.24-9.44,15.27-8.98,1.76.11,3.35.92,5.14.29l-.55.55c.3.05,1.58-.16,1.67-.28,2.51.44,4.83,1.65,7.38,1.95l-.13-.84c.44.02,1.24.02,1.81.03.71,0,1.09-.77.97.25-.53.03-1.31-.31-1.11.56,1.1-.16,2.12.28,3.2.3,2.01.04,4.01-1.26,5.99-.57.14.64-.3.94-.56,1.39-2.94.84-9.77,1.73-12.63,1.13-.22-.05-.15-.55-.3-.54-2.56.12-5.02-.86-7.54-1.27-3-.49-7.76-.57-10.55.72-.79.36-3.3,2.47-3.52,2.47-.04,0-.2-.28-.38-.24-.34.08-2.12,4.09-2.27,4.68-.27,1.05.21,5.01.79,5.78.13.18.63.34.91.62,1.01,1.02,2.77,2.69,4.1,3.41,2.73,1.48,5.47.72,7.97-.78,2.3-1.39,3.85-3.82,3.31-6.59-.22-1.12-1.7-3.66-2.74-4.22-.35-.19-1.11-.38-1.51-.39-.65,0-2.99.16-3.56.28-.44.1-2.21,1.5-2.58,1.88-.52.55-.48.84-.78,1.31-.11.17-.49.2-.68.56-.62,1.24-.16,2.01.22,3.15,1.82.73,2.36,1.67,4.52.76.94-.39,2.52-1.81,2.8-2.77.13-.42-.2-1.51.47-1.61,2.21,3.53-2.32,6.25-5.36,5.78-1.97-.3-1.93-.63-2.43-2.16-.69-.28-.64-.12-.97-1.12-.51-1.57-.68-3.35.17-4.83.16-.27,1.51-2.2,1.63-2.27.4-.2.96-.11,1.4-.27.88-.34,2.03-1.1,2.94-1.24.57-.09,3.46-.02,4.03.11,2.15.48,2.66,2.16,3.36,3.83.11.25.46.21.52.42.29,1.11.23,2.75.76,3.92.17.38.63.32.61.46-.15,1.58-.14,2.84-.97,4.31-2.08,3.64-4.69,3.45-8.33,3.94-.52.07-1.13-.36-.98.54-.37.01-.74-.01-1.11,0-.03.33.82.69,1.03.73,3.31.67,8.02.62,11.5.94.03,1.13,2.19.76,2.89.87,1.42.23,3.12.8,4.48.81,1.77.02-.45-1.5-.77-2.03-1.21-1.98-2.11-5.28-3.29-7.55-1.07-2.06-2.79-5.21-4.03-7.11-.38-.59-1.02-1.07-1.37-1.69-.36-.15-.76,1.3-1.25.13-.28-.66,1.25-.36,1.39-.97,1.56.87,7.51,7.04,8.72,8.7,2.28,3.13,3.17,7.26,5.6,10.12,1.11,1.3,3.7,2.65,2.95,4.57l1.14.18c1.88,2.84,3.07,5.99,4.56,9.02.29.59,2.18,3.22,1.82,3.61-.49.54-2.09-2.22-2.36-2.51-.83-.92-2.7-2.03-3.22-2.62-.55-.63-.98-2.07-1.8-2.94-6.07-6.46-16.3-4.8-24.23-5.57-3.66-.35-10.33-5.37-13.79-7.24-.99-.53-1.08-.88-2.23-1.39-.05-.15.04-.4,0-.56l1.39.56c.42-.41-1.41-1.12-.97-1.67,1.59.21,2.7.99,4.31,1.12.09,0,.19,0,.28,0-.2.93.31.99,1.11,1.11,1,.86,2.32,1.23,3.62,1.11-.04-.37-.98-.43-1.39-.55-.26-1.3-1.87-1.74-2.79-2.51Z"/>
  <path class="cls-2" d="M182.99,120.3c-.15-.05-.39-.01-.62-.08-.76-.24-1.65-1.24-2.45-.89,2.78,3.24,5.04,7.33,8.29,10.15,1.46,1.27,5.04,3.33,6.11,4.54.25.28.23.86.41.99.21.15.88.08,1.28.24.15.06,2.46,1.78,2.57,1.91.34.39.22.87.29.97.05.08.72-.27,1.12-.17.43.11,1.67,1.25,2.31,1.61,1.05.59,2.36,1.33,3.53,1.62l-13.09-12.25c2.54,1.3,3.82,2.84,5.99,4.48,1.07.81,2.45,2.29,3.78,3.45,2.06,1.79,4.45,3.55,6.25,5.44.6.63,1.02,1.71,1.75,2.22,1.92,1.32,2.19,2.02,3.76,3.55.68.67,2.08,1.14,2.33,2.22.09.36-.38.87.24,1.2.28-1.03.6-.44,1.25,0,.44,2.58-.03,2.12,1.38,4.38.33.52,1.57,2.38,1.68,2.72.42,1.38-2.01-1.06-2.22-.14-5.97-3.96-13.61-5.4-18.84-10.4-2.17-2.07-3.91-4.64-5.85-6.83-1.35-1.53-3.33-3.13-4.55-4.7-.33-.43-.78-1.66-.86-1.72-.05-.04-.42.28-.49.23-.48-.32-2.26-4.07-3.56-4.52l-1.5-2.13c-.52-.08-.18.55-.09.78.21.51.47.88.65,1.44-.61.05-.95.09-1.36-.45-1.36-1.76-3.14-5.42-4.58-6.68-.66-.57-2.2-1.25-2.81-1.8-.93-.84-1.34-2.71-1.84-3.45-.28-.41-1.78-.98-2.21-1.97l.55-.41c-1.09.34-1.6-.32-2.23-.56-.88-.69-1.33-1.32-1.39-2.5l4.73,1.11c.13-.11-1.73-2.25-1.95-2.5.12-.53.82.15.95.3,1.33,1.54,2.68,2.87,4.49,4.15,2.2,1.56,5.01,2.76,6.82,4.46Z"/>
  <path class="cls-8" d="M57.1,41.22c1.08.39,3.58,1.47,4.6,2.23,7.39,5.49,6.66,12.15,10.2,19.6.97,2.04,2.82,5.52,4.19,7.23,1.24,1.54,3.59,3.03,3.84,5.09.13,1.1-.11,1.9-1.31,1.3-2.87-3.43-7.18-5.82-9.66-9.56-1.39-2.1-3-5.31-3.5-7.77-.05-.23-.3-1.57-.25-1.64.07-.09.61-.07.77-.48.32-.83-.12-.99-.8-1.23-.18,1.11-.33,2.3-1.67,1.95-.44-1.36.58-1.42.77-1.72.38-.61-.55-3.43-.72-4.35-.13-.76.11-.85-.21-1.92-.06-.19.09-.49,0-.65-.8-1.31-2.88-1.1-4.02-1.39-.85-.22-1.52-.83-2.38-1.1-1.04-.33-3.38-.64-4.43-.56-.47.03-2.35.81-2.76,1.15-1,.81-1.68,2.73-1.59,4,.14,1.95,2.07,5.02,4.33,4.6,1.81-.33.74-4.36,1.26-4.74,1.12-.11,3.16,2,3.32,2.94.17.99-.17,2.53-.54,3.47-1.78.39-4.06,1.85-5.94,1.39-.21-.05-.16-.51-.37-.55-.56-.12-1.09.14-1.76-.15s-1.89-1.65-2.53-2.21-1.93-.76-1.67-2.21c.06-.31.7.03.57-.44-1.6-.03-.83-.58-.89-1.25-.09-.89-.28-1.56-.23-2.52.19-3.42,3.92-7.62,7.19-8.41,1.24-.3,5.1-.47,6.19-.07Z"/>
  <path class="cls-2" d="M33.98,66.28c-1.12.77-.14,3.59.2,4.67.76,2.43,4.67,7.92,6.62,9.53,1.68,1.39,6.32,2.73,8.49,3.21s4.26.76,6.55.7c.59-2.14.68-.03.86,0,1.31.24,3.51-.11,5-.02,1.04.06,2.69.64,3.63.58,1.16-.07.35-.52,2.02-.09,2.45.63,5.6,1.75,8.42,2.29v.56c-2.47.08-4.46.81-6.84.59-.11-.01-.08.42-.5.57-1.14.41-2.68.33-3.87.58-4.11.87-7.08,2.09-11.49,1.6-2.68-.3-4.51-.91-6.77-1.94-.52-.24-1.46.01-1.84-.26-.33-.24-.09-.73-.17-.87-.04-.08-.67.29-1.1.14-3.34-1.14-9.25-7.23-9.21-10.72,0-.18,0-1.83-.06-1.91-.1-.12-.45.01-.5-.03-.94-.89-1.11-5.35-1.47-7.02-1.37-6.3-5.46-16.5-10.3-20.55-1.35-1.13-2.45-2.12-3.55-3.34l.68-.54c.62,1.46,2.18,1.72,3.31,2.54,1.38.99,6.2,8.02,6.74,9.69.97,3.01,1,1.99,2.78,4.18,1.8,2.22,1.67,3.37,2.36,5.85Z"/>
  <path class="cls-2" d="M20.61,53.75c.74.12.47.34.66.44,6.97,3.85,8.11,17.76,11.17,24.62.88,1.96,4.07,7.35,5.53,8.81.48.48,1.59.68,1.57,1.49-.18.02-.47.57-1.12.15-.17-.11-2.33-2.82-2.63-3.23-2.64-3.65-4.9-8.85-6.37-13.13-1.7-4.98-2.45-10.9-5.54-15.35-.35-.51-2.18-2.9-2.74-2.41.72,1.37.27,3,1.16,4.28.22.31.65.35.78.66.21.47.23,1.45.29,2.01-.05,0-.19.3-.39.3-.16,0-.21-1.11-.72-.58-.1.1-.09,2.68,0,2.78.61.72.51-1.58,1.11-.83.07.08.05,1.7.28,2.08-.37.51-.22-.36-.42-.42-.25-.08-.96-.05-.7.42.19.35.97.46,1.09.88.11.38-.31,1.02-.26,1.61.41,4.29,4.96,14.79,7.68,18.24.77.98,4.73,5.31,5.63,5.54.41.11,1.73-.19,2.01.05.1.09-.33,1.04,1.11.28-.36.74,1.2,1.33,1.89,1.59,2.42.9,7.75,1.24,10.19.63.22-.05.17-.55.32-.56.47-.02,1.09.76,1.91.59.2-.04.14-.56.35-.58,1.67-.22,2.58.03,4.21-.52,1.72-.58,4.09-.22,5.92-.58.12-.47-.47-.11-.56-.46-.07-.28.03-.63,0-.93-4.33.79-8.57.89-12.96.82-2.51-.04-6.35-.17-8.76-.97-.5-.17-3.26-1.21-2.23-2.08,1.24.4,2.21,1.34,3.5,1.65,1.88.46,5.23.83,7.21.87,7.96.19,16.02-1.59,23.97-1.96,6.44-.3,8.73.46,13.79,4.18.29.21.68.44.84.56l1.53,2.79c.05,1.23,1.1,2.14,1.46,2.99.1.24.62,2.18.64,2.43.02.43.03.49-.43.43-1.68-.22-3.59-3.73-4.89-4.86-4.25-3.69-9.82-4.07-15.15-4.49-5.79-.46-10.57-.45-16.35.8-1.46.32-2.84.92-4.34,1.23-13.74,2.87-26.13-7.64-29.88-19.77-.07-.23-.45-.2-.52-.42-.34-1.16-1.13-4.73-.86-5.74.06-.21.89-.23.56-.45-.13-.09-.5.24-.58-.4-.21-1.63-.03-4.67.03-6.42.05-1.49.55-3.57.56-5.02,0-1.19-.96-1.98-.84-3.48.01-.17.21-.38.28-.56ZM85.23,93.57c-.08-.08.34-.47.16-.83-.16-.34-2.31-1.21-2.83-1.37-2.49-.75-5.45-.77-7.96-.52-.69.07-1.32.12-.78.77-.93.21-.4-.53-.56-.84-.98.67-2.31.04-3.2.14-.47.05-1.52.53-2.31.62-.68.08-2.81-.5-2.01.63-.75-.33-1.19.54-.84.84.16.14,3.73-.18,4.33-.14.55.03,1.04.46,1.65.42.54-.03.98-.58,1.4-.57.15,0,.1.52.33.57.62.14,1.5-.14,2.18.28l-.41-.84c.92-.32.76.6,1.37.72,1.62.3,3.83.15,5.61.52,2.15.45,2.61,1.31,4.07,2.11.64.35,1.97.72,2.54,1.19.17.14.18.64.49.72.29.07,1.06-.4,1.52-.25.08-1.48-.78-1.2-1.05-1.45-.13-.12,0-.53-.25-.79-.33-.33-2.14-1.84-2.45-1.97-.47-.19-.92.09-.99.03Z"/>
  <path class="cls-8" d="M180.48,79.93c1.1.06.68.21,1.21.74.14.14.44.07.46.09.07.09.09.64.3.94.31.43,2.96,1.56,3.59,1.71,1.19.28,2.56-.1,3.45.13.32.08.05.56.32.57.58-1.52.64-.08.95.15.18.13.75-.26,1.4-.02.36.14,1.35.83,1.7,1.11,1.54,1.23,2.36,3.39,4.45,3.49-.19.02-.66.47-1.11.28-.05.31.27.26.28.28,1.05,2.29,4.31,4.11,6.68,4.46.78.11,1.47.23,2.33.6.59.26.33,1.44,1.01.23.51.42.73.43,1.39,1.11.18.19.2.47.57.68.29.17.79.13.82.15.02.02,0,.4,0,.56,0,.66.23.79.27,1.27.21,2.81-.47,5.73-1.21,8s-1.32,3.58-.94,6.13c.18,1.19,1.2,2.86,1.23,3.91,0,.31-.21,1.92-.32,2.15-.24.49-.95.51-.98.56-.19.26,2.76,3.48,2.23,4.45-.74-.56-1.47-1.26-2.11-1.93-2.86-3.04-6.57-6.36-10.17-9.04-2.4-1.78-4.15-2.7-6.94-3.79l.28-.84c3.51,1.52,7.02,3.29,9.73,6.28l3.08,2.35-1.57-2.52c-2.96-1.84-5.5-4.58-8.18-6.94-1.14-1.01-2-2.07-3.39-2.59-.53-.2-.89-.57.05-.48.09.06.57-.03.83.13,2.33,1.4,3.94,3.34,6.08,4.84.17.12.52.68.89.31.28-.28-.25-.87-.41-1.12-2.39-3.84-6.61-6.06-11.01-6.67-.17.63.39.61.83.83-.63.51-2.67-.26-2.23-1.11-1.96,1.08-2.74-1.19-1.01-1.1,8.36.42,12.11,5.03,16.68,11.2.61.82.35,1.75,1.88,1.6-.26-1.09-.89-2.03-1.31-3-.45-1.03-.66-1.48-1.15-2.47-1.31-2.62-2.56-6.11-5.56-6.98-.16-.05-1.4-.3-1.6-.33-4.39-.65-9.2.53-13.21-1.7.01,0,.01-.24,0-.28l.28-.28c.03.05.89.5,1.11.56.49.13,1.39.2,1.95.28.12.02.51.23,1.11.28,2.71.2,5.81.03,8.49.28,6.11.57,8.2,7.74,10.37,12.48.18.4-.17.76.63.61.09-.9-.23-2.4.26-3.15.17-.27.75-.3.81-.63.16-.81.06-1.2.4-2.41.36-1.3,1.59-4.8,1.52-5.86-.06-.97-1.12-3.08-1.87-3.71-.98-.83-1.76-.53-2.8-.68-.81-.11-1.33-.25-2.23-.28-.2-.48-1.68-.52-2.2-.73-.64-.25-2.94-1.79-3.23-2.34-.36-.67-.84-2.14-1.41-2.78-.23-.26-.63-.23-.68-.28-.03-.03.04-.36-.09-.46-.88-.67-3.34-1.62-4.44-1.86s-4.69-.25-5.34-.72c-.32-.23-.09-.73-.16-.86-.06-.1-.69.34-1.1.15-.98-.45-1.69-1.72-2.33-2.29-.29-.26-1.15-.18-1.3-.92,1.21.15,3.49,1.93,3.9,0-1.42-.49-3.36-2.04-4.74-2.4-.43-.11-.99.13-1.12.04-.45-.3-.17-.99-.27-1.27,1.28.58,2.52.76,3.9.84ZM199.69,110.28c.2-.39-.18-.74-.27-.55-.2.39.18.74.27.55ZM204.71,114.73c.11-.36-.42-1.4-.55-1.11-.08.5.01.98.55,1.11ZM204.71,116.68c-.1.62.59.93.97,1.39l.13-.13c-.37-.41-.52-1.08-1.11-1.26Z"/>
  <path class="cls-2" d="M25.07,45.68c-1.01-.32-1.69-1.18-2.68-1.64-.34-.16-2.97-.86-2.61-1.15.45.05.89-.24,1.29-.26.62-.04,2.07.51,1.49-.29-.13-.17-3.98-.85-4.16-1.14-.42-.64.69-1.27,1.25-1.36,7.1-1.18,12.21.17,16.74,5.95,1.62,2.07,2.6,4.77,4.05,6.94,1.18,1.77,2.19,2.98,3.37,4.85.21.33,2.55,2.12,2.92,2.67.17.26.02.69.07.75-.95-.79-1.84-.82-2.72-1.19-1.82-.78-6.64-9.26-8.2-11.43-1.79-2.49-4.82-6.88-7.96-7.39-.51-.08-.92.21-1.28.15-.27-.04-.56-.42-1.14-.49-1.48-.18-3.18-.08-4.61.3l5.2,1.62c3.4,1.78,6.04,3.35,8.28,6.48,2.01,2.81,5.97,10.45,8.82,11.79.77.36,1.88.52,2.76.87.75.3,1.53,1.18,2.23.83-.27-.41-.79-.56-1.1-.86-.26-.24-.26-.65-.29-.68.23.3,6.44,2.71,7.09,2.79,3.6.43,6.13-1.3,7.31-4.68,1.31-3.76.59-8.12-1.87-11.2,1.13.29,3.22.07,4.02,1.39.09.15-.06.45,0,.65.32,1.07.08,1.16.21,1.92.16.91,1.1,3.74.72,4.35-.19.3-1.21.37-.77,1.72,1.34.35,1.49-.84,1.67-1.95.68.23,1.12.39.8,1.23-.16.41-.7.39-.77.48-.05.07.2,1.41.25,1.64-.69.53-.65,1.47-.84,2.23-.77.49-1.29,2.18-2.12,3.03-3.27,3.38-7.26,2.55-11.32,1.63-6.96-1.57-12.85-5.49-16.58-11.54-.32-.51-1.06-2.5-1.17-2.59-.18-.15-.71-.08-.55.41.08.26.49.02.57.32.12.48-.07,1.22,0,1.77l-.56.38c.11-.6-.92-3.02-.81-3.15s.66.19.53-.29c-1.1.24-.93-.75-1.44-1.49-1.64-2.39-3.73-3.77-5.95-5.47-.63-.27-.16,1.04-.13,1.11ZM32.03,49.85c.7-.77-5.36-6.27-6.68-6.12.33.82,1.51.97,2.02,1.38,1.45,1.16,2.9,2.72,3.94,4.22.11.17.29.99.72.52ZM32.17,50.13v.28c.18-.09.18-.19,0-.28Z"/>
  <path class="cls-8" d="M107.79,45.4c1.54.57,4.07.17,5.5.77,1.66.69,2.95,3.98,4.99,5.04,1.3.67,2.88.77,4.27,1.3,1.17.45,2.16,1.24,3.24,1.77s2.73.97,3.7,1.59,1.68,2.92,2.59,3.27c1.66.63,3.78-.06,5.37-.09.54,0,1.13.27,1.81.28.15.84-.43.54-.96.56-.84.03-1.69-.04-2.52,0-.54.03-.44-.03-.41.56,1.29-.41,1.67.85,2.02,1.05,2.27,1.31,4.92,2.24,7.53,3.47,1.96.93,2.7,1.3,4.92,1.76,1.57.33,3.14.77,4.75.68-.65-.79-1.7-1.13-2.52-1.79-.32-.26-.45-.82-.61-.92-.3-.18-.88.02-1.19-.34-.74-.87.71-.35.98-.28,2.46.65,5.11,3.65,7.93,4.74.82.32,2.61.49,2.94.68.4.24.39,1.05.61,1.2.09.07,1.66.42,2.17.61.41.64.41.64-.35.5-2.1-.4-4.14-1.22-6.33-1.61-1.04-.19-2.45-.39-3.51-.53-.29-.04-.74-.2-.66.25.89.17,1.81.93,2.51,1.53,3.25,2.79,6.73,6.76,8.67,10.54,2.52,4.92,4.07,9.92,6.98,14.75.15.25.19.72.22.75.06.04.69-.39.83-.28l.56.83c.14.32.14.81.28,1.11l-.28.69c-.03-.68-1.07-1.04-.83-.28.06.18.84,1.54,1.01,1.79.25.38,1.72,1.67,1.89,1.97.11.19-.13.54-.11.55.11.09.61-.05.83,0,1.39.37,1.08.85,1.39,1.11-.93.74-2.93-.76-3.69-1.39-2.29-1.92-5.79-10.37-7.23-13.46-1.55-3.34-3.2-9.05-5.9-11.5-3.34-3.03-5.45-6.18-9.27-8.98-1.12-.82-.71-.84-.97-1.1-.1-.1-2.32-.54-2.75-.61s-.68-.11-1.11,0l.28-.83c-.24-.19-1.87-.33-2.23-.45-1.83-.59-1.66-.46-3.62-.66-.09,0-.19,0-.28,0v-1.67c-.46.67-.89-.82-1.4-.27-.09.1.7.6-.14.56-.26-.01-.04-.57-.3-.57s-.48.3-.94.15c-2.55-.83-6.42-3.58-9.11-4.84-4.9-2.3-9.7-3.26-14.08-7.02-1.26-1.09-3.12-3.67-4.25-4.46-.38-.26-.94-.22-.99-.26-.03-.02,0-.46-.28-.68-.46-.37-1.69-.44-2.11-1-.26-.35.16-.5.17-.55Z"/>
  <path class="cls-5" d="M25.07,45.68c-.03-.07-.49-1.38.13-1.11,2.21,1.7,4.3,3.09,5.95,5.47.51.74.34,1.73,1.44,1.49.13.48-.43.17-.53.29s.92,2.54.81,3.15l.56-.38c.09.8.4,1.5.88,2.32,3.62,6.19,7.56,7.29,13.26,10.47,1.36.76.99.03,1.18-.25.22-.34.28.47.31.5.03.03.52-.14.8-.1,3.58.56,7.15.79,10.69,1.3,4.53.65,8.98,3.24,12.5,6.09,1.18.95,1.21,1.29,1.26,2.72.01.37.23.4-.35.35-3.57-2.05-6.96-4.24-11.29-3.62l.14-.56c-2.38,1.39-6.42.99-9.15.52-8.49-1.48-14.87-7.97-19.41-14.85-2.63-3.99-4.82-8.81-7.92-12.41-.56-.65-.88-.32-1.26-1.38Z"/>
  <path class="cls-8" d="M66.57,32.59v.84c-.46,0-1.29-.27-1.35-.23-.03.02-.01.4-.38.6-1.44.79-3.62,1.13-5.11,1.84-1.74.83,1.06,1.49,2.08,2.13,4.32,2.73,8.4,5.26,12.3,8.31,2.9,2.27,3.54,3.22,5.72,5.99,1.36,1.73,2.52,2.14,4.28,2.96.4.19,1.2,1.1,1.87,1.47,4.49,2.47,11.85,3.75,16.94,4.22,1.18.11,2.45-.1,3.63,0,.68.05.37.35.41.84l.42-.84c.75.24,1.17.13.69.84.66.04,1.13-.51,1.8-.51,4.55-.04,9.02,1.16,13.24,2.61.39.13,1.02.26.28.69-10.76-3.05-22.85-.3-33.49-3.42-2.11-.62-4.75-2.04-6.77-2.98l.14,1.11c-.08-.03-.19.03-.28,0-.39-.13-1.02-.15-1.26-.55-.56-.97.55-1.34-1.25-1.67-1.08-.87-2.11-1.69-3.07-2.63-3.03-2.96-5.35-5.93-8.76-8.51-.63-.48-2.41-1.74-2.93-1.95l.42-.56c-.32-.14-.78-.15-1.07-.33-1.94-1.24-3.69-3.34-6.18-3.56-1.17-.1-2.44.12-3.6-.02-.76-.1-1.35-.53-2.25-.56-1.42-.04-2.59.71-4.19.58-.8-.06-.29-.68-.41-1.12,2.78-.24,5.35-1.28,7.85-2.02.94-.28,1.77-.2,1.86-.25,2.14-1.25,5.68-3.02,8.39-3.3ZM116.84,62.38v.28c.18-.09.18-.19,0-.28Z"/>
  <path class="cls-2" d="M117.81,74.08c2.4.75,4.9,1.34,7.17,2.43,3.19,1.53,6.18,4.14,9.26,5.64,4.69,2.29,8.59,2.65,13.65,1.53.99-.22,1.92-.96,3.07-.58.3.15.25,1.44.2,1.5-.55.69-5.14,2.46-6.2,2.56-.62.06-4.71.18-4.87,0-.62-.65-.58-.32-1.95-.56-.19-.1-.36-.19-.56-.28-5.55-2.57-10.49-5.43-15.88-8.08.07.07-.07.46,0,.56.02.02.3-.02.44.12,2.4,2.31,3.29,5.47,5.03,8.2,1.91,3.02,4.68,6.35,6.79,9.23-.98.62-1.35-1.08-1.68-1.47-2.91-3.44-5.91-7.08-7.87-11.13-.92-1.9-1.16-2.09-2.33-3.79-.3-.44-.33-1.11-.37-1.15-.03-.04-.77.13-.56-.56.17.04.51-.05.56,0-.59-.29-1.26-1.07-2.23-1.11-.53-.61-1.45-.97-1.6-1.2-.28-.4.31-1.06-.62-.47l.55-1.39Z"/>
  <path class="cls-2" d="M138.14,101.09c-.6-1.24-1.55-2-1.97-2.91-2.34-5.01-6.03-9.08-9.05-13.78-.36-.55-2.04-1.92-.97-2.68.76-.54,3.44,2.01,4.54,2.11,2.01,1.55,4.37,2.02,6.89,2.5.08.02.29.23.56.28,1.09.56.98.33,1.95.56,4.94,1.16,8.55,2.14,12.89,4.74,2.16,1.3,6.02,6.18,7.44,8.35-1.47.85-1.79-.44-2.35-.85-1.17-.85-3.15-2.42-4.24-3.02-.74-.41-1.44.04-1.49-.03-.08-.11.16-.83-.27-1.26-.21-.21-.76-.3-1.11-.56-2.01-1.56-6.85-4.12-9.47-4.74-.84-.2-1.65.02-2.33-.13-.09-.02-1.22-1.14-1.37-1.19-.39-.16-1.15-.11-1.29-.25-.1-.1.05-.52-.22-.8-.35-.36-3.34-1.87-3.87-1.94-.61-.08-.43.5-.68.84-1.18-1-2.36-2.04-3.52-3.07-.47-.07-1.07,0-1.21.56,2.2,1,3.32,3.56,4.9,5.27,5.2,5.6,11.61,7.6,18.01,11.18.21.12.24.33.21.54l1.11-1.11c.06.04.21-.04.28,0,.13.88-1.09.66-.83,1.25.12.27,3.69,2.23,4.11,2.32.35.07.79-.23.87-.18.06.04.14.52.48.76,1.83,1.29,4.76,2.94,6.8,3.93.35.17,1.22.85,1.39.13s-1.71-2.12-.28-2.08c.64.89,2.42,3.48,3.05,4.05s2.95,1.41,3.04,1.55c.11.18,0,.55.03.8-.51.13-.62-.37-1.02-.47-.24-.06-.61.16-.94.07-.23-.06-2.78-2.18-3.98-2.71-4.93-2.2-10.78-4.25-15.78-6.18-2.72-1.05-5.1-2.6-8.08-3.24-.71-.15-1.13.07-1.49.01-.17-.03-.25-1.07-.74-.57-.07.07.75,1.46.28,1.95-.06-.04-.22.04-.28,0Z"/>
  <path class="cls-2" d="M137.03,100.53c.38.32.96.44,1.11.56.79,1.63,2.79,4.15,4.46,5.01.25.8.42,1.18,1.39,1.11.06.1.22.17.28.28.74,1.29.88.63,1.11.84.06.05-.04.62,0,.84.25.09.73-.03,1.03.22l4.27,2.29s-.27.17-.58.14c-.43-.05-4.51-1.94-4.67-2.14-.12-.16-.02-.36-.04-.5-2.42-.87-7.03-5.73-8.63-7.94-.4-.55-.52-.78.28-.7Z"/>
  <path class="cls-3" d="M158.2,70.18l.4,1.41c1.4.79,3.31,1.45,4.6,2.37.62.44,1.62,1.92,1.76,2,.28.16.77,0,1.06.2s.18.73.33.92c.23.31.81.05.99.15.64.35,1.57,1.4,2.01,1.86.33.56-1.07.6-.56,1.11.12.12.72-.29.95-.29s.22.56.43.72c.24.19.75-.09,1.13-.03.44.08,2.15.26,1.94.99-.95.15-.99.75-.84,1.67-.5-.33-.74-.5-.46.32.56,1.6,2.11,3.87,2.96,5.53,1.5,2.91,4.68,4.33,7.59,5.64,1.32.59,1.72.92,3.41,1.05s3.52.07,5.15-.56l-.83-.55c.19-.03.58-.38.84-.28.24.09.2,1.01.8.11,1.45-2.2-.41-5.26-2.48-4.15-.48.26-.34.97-.83.98-.45-2.39,2.25-2.28,3.81-1.45s.49,1.41.67,1.68c.06.09.52.15.77.49,1.09,1.55.32,3.37-1.16,4.34-2.85,1.88-5.32,1.75-8.55,1.34-.7-.09-1.2-.07-1.95-.28-.41-.11-.7-.18-.98-.55.02.23.12,1.06.14,1.11l-.28.28c-.1-.31-.97-1.05-1.39-.84-.13-.53,1.8-.02,1.11-.83-.11-.12-2.82-1.31-2.98-1.33-.22-.04-.34.22-.36.22-.73-.15-1.19-.29-1.84-.67l-4.28-3.51v1.39s.55-.28.55-.28c.25,1.86,1.18,3.83,1.95,5.57l-.56-.83c-.14-.11-.77.32-.83.28-.03-.02-.07-.49-.22-.75-2.91-4.83-4.46-9.83-6.98-14.75-1.94-3.79-5.42-7.75-8.67-10.54-.7-.6-1.61-1.36-2.51-1.53-.08-.45.37-.28.66-.25,1.06.14,2.47.34,3.51.53Z"/>
  <path class="cls-5" d="M191.06,127.54l.55-1.11c-.02.21-.04.44.2.54,1.01.42,4.01.93,5.36,1.28,1.01.26,2.91-.01,3.08,1.24h.27s.14-.55.14-.55c.74.94,1.96.86,2.93,1.25,3.07,1.24,8.58,4.83,10.43,7.4.91,1.26,1.79,3.02,2.38,4.08.51.91.35,1.35.57,2.11.07.25.58.21.55.33-.13.56-.85.75-.84.84s.76.12.84,1.53c.11,2,.22,3,.56,5.01-.65-.44-.98-1.03-1.25,0-.62-.34-.15-.84-.24-1.2-.25-1.07-1.65-1.55-2.33-2.22-1.56-1.54-1.84-2.23-3.76-3.55-.73-.51-1.15-1.59-1.75-2.22-1.81-1.89-4.19-3.65-6.25-5.44-1.33-1.15-2.7-2.64-3.78-3.45-2.17-1.64-3.45-3.18-5.99-4.48-.07-.04-.2.04-.28,0,.13-.89-.41-1.1-1.11-1.39-.08-.03-.21.04-.28,0Z"/>
  <path class="cls-5" d="M39.55,89.12c.35-.05.48.25.56.28-1.03.87,1.73,1.92,2.23,2.08,2.41.8,6.24.93,8.76.97,4.39.07,8.63-.03,12.96-.82.03.3-.08.65,0,.93.09.36.68,0,.56.46-1.83.36-4.2,0-5.92.58-1.63.55-2.54.31-4.21.52-.21.03-.15.54-.35.58-.82.18-1.44-.61-1.91-.59-.16,0-.1.51-.32.56-2.44.61-7.77.28-10.19-.63-.7-.26-2.26-.85-1.89-1.59-1.45.77-1.01-.19-1.11-.28.8-.41.52-.34.14-.83-.7-.91-2.15-1.82-3.07-2.78-5.87-6.16-8.58-13.57-10.58-21.72-.31-1.25-.21-4.84-1.81-4.74-.06-.56-.08-1.54-.29-2.01-.13-.31-.57-.35-.78-.66-.88-1.28-.43-2.91-1.16-4.28.56-.48,2.38,1.9,2.74,2.41,3.08,4.45,3.83,10.37,5.54,15.35,1.46,4.28,3.73,9.48,6.37,13.13.29.41,2.45,3.11,2.63,3.23.65.42.93-.12,1.12-.15Z"/>
  <path class="cls-2" d="M86.34,78.81c.15.63,1.77,2.85.27,2.37-3.91-4.48-8.31-9.72-10.16-15.46-.52-1.63-.6-3.5-1.05-5.07-.65-2.24-4.16-7.86-5.66-9.94-.94-1.3-2.33-2.29-3.36-3.46-.24-.27-1.48-1.6-1.48-1.72,0-.29.65-.44.97-.44.96,0,3.21,2.11,4.19,2.81,1.57,1.12.93,1.2,1.89,2.4,1.09,1.38,2.98,2.68,4.21,4.3,1.72,2.27,2.9,4.95,4.62,7.22,0,.09-.01.19,0,.28.21,1.38,1.09,2.91,1.48,4.23.75,2.51,1.26,5.14,2.13,7.62.55,1.56,1.29,3.08,1.96,4.58.02.09-.02.19,0,.28Z"/>
  <path class="cls-3" d="M169.06,150.94c-.05-.36-.07-1.11.55-.84.18,1.17,1.69,2.94,2.65,3.63.27.19.62.21.7.26,1.72,1.33,3.22,2.85,4.87,4.18,1.15.93,2.58,2.1,3.8,2.88,7.25,4.6,16.56,5.63,21.69,12.85.69.97,2.32,3.66,2.24,4.73-.09,1.19-1.93.51-2.44.06-.26-.23-.46-1.13-.79-1.58-.35-.47-2.18-2.83-2.44-2.98-.96-.55-2.19-.6-3.25-.66.28-.37-.81-1.55-.9-1.6-.46-.22-1.13.03-1.69-.13-.41-.12-1.23-1-2.14-1.34.18-.99-.12-.66-.59-.93-1.09-.64-2.21-.46-3.08-1.04-2.32-1.54-4.95-2.91-7.46-4.31-.38-.21-2.15-.86-2.23-.99-.11-.16.34-.77.28-.81-.07-.05-.65-.02-1.14-.4-.46-.35-1.21-1.44-1.66-1.96-1.62-1.88-3.32-3.41-4.45-5.24-.32-.51-1.73-1.85-2.15-2.5-.05-.08-.33-1.14-.36-1.32ZM190.37,165.69v.28c.18-.09.18-.19,0-.28Z"/>
  <path class="cls-3" d="M131.74,86.33c.25-.34.07-.92.68-.84.53.07,3.53,1.57,3.87,1.94.27.28.12.7.22.8.14.13.9.09,1.29.25.15.06,1.28,1.18,1.37,1.19.68.15,1.49-.07,2.33.13,2.62.62,7.46,3.17,9.47,4.74.34.27.9.35,1.11.56.44.44.19,1.15.27,1.26.05.06.75-.39,1.49.03,1.09.61,3.06,2.17,4.24,3.02.57.41.88,1.7,2.35.85.38.58.55,1.57.61,1.63.11.12.58-.07.8.21.62.77,1.44,2.66,2.21,3.73-1.43-.03.46,1.34.28,2.08s-1.04.04-1.39-.13c-.27-.97-.02-1.3-1.11-.83-.03-.61-.33-1.1,0-1.67-.32-.27-1.47.69-1.12-1.11l-.41.55c-.51-1.3-1.41-.87-2.37-1.25-1.32-.52-3.4-2.74-3.69-2.84-1.02-.37-1.43-.17-2.72-.92-.07-.04-.21.04-.28,0-.48-.31-1.65-1.86-1.85-1.92-.41-.13-.93.32-1.32.28-.17-.02-.28-.56-.65-.8-2.46-1.62-5.4-2.8-7.86-4.41-2.72-1.78-5.29-4.36-7.82-6.51Z"/>
  <path class="cls-2" d="M138.42,70.46l4.8,2.79,1.74,1.66c.31-2.15,1.73.21,2.17.48,1.43.85,1.76,1.1,2.95,2.2,2.51,2.33,4.54,5.12,6.71,7.77l-.83.69c.77.71,1.01.2,1.48.31.57.13,2.99,4.39,3.53,5.12,2.27,3.13,4.8,6.07,7.24,9.05.3.36.56,1.18,1.11,1.82.92,1.07,3.34,2.55,3.75,3.49.43,1,.11,2.21,1.83,2.21l-.55.55,4.45,3.07v.28c-3.64-1.63-8.15-5.64-11.27-8.36-3.97-3.45-5.58-6.58-8.78-10.44-1.73-2.09-2.11-3.13-3.5-5.41-2.48-4.05-5.91-8.08-9.52-11.15-.87-.74-2.03-1.91-3.13-1.96.56-.76-.09-.47-.42-.83-.26-.28-.34-.63-.61-.85-.58-.46-2.71-1.51-3.08-2-.13-.18-.04-.34-.06-.49ZM145.94,75.19c-.39-.2-.74.18-.55.27.39.2.74-.18.55-.27ZM147.06,76.03l-1.11-.28c.4.61,1.21,1.45,1.11.28Z"/>
  <path class="cls-3" d="M144.55,121.97c.34-.05.67-.39,1.21-.29.22.04.19.48.37.57.49.25,1.22.48,1.77.69,1.25.48,6.23,1.64,6.79,2.07.28.21.16.57.17.87.46.15.13-.54.43-.58.54-.07,3.85,1.8,4.44,2.25,1.12.86,4.39,6.73,4.52,7.97.07.65-.44,1.8-.2,2.61.49.21.07-2.29.83-1.39.09.1-.05,1.53,0,1.95-.82-.2-.83.22-1.11.84-.41-.13-1.12.29-1.4.14-.05-.03-.75-.71-.78-.76-.13-.29.36-.56.09-.76-.15.11-.87.28-.98.27-.22-1.21-.27-.57-.64-1.18-1.19-1.95-2.98-4.45-4.94-5.62-.52-.31-1.84-.78-2.48-1l.27-.53c-.95-.2-.95-.53-1.95-.85-.57-.18-2.68-1.64-3.07-2.08-.57-.64-.45-1.61-.6-1.77-.25-.27-1.41.08-1.06-1.44-1.55.86-1.3-.21-1.39-.28.11-.64-.08-1.1-.28-1.67ZM157.92,127.26l-.7-.83-.13.13c.44.43.06.88.83.7Z"/>
  <path class="cls-2" d="M138.7,113.06c1.49.81,2.15.62,3.35.96.83.24,2.13,1.35,3,1.74,5.24,2.39,10.37,4.09,15.38,5.77,2.96.99,4.59,1.76,7.24,3.22-.39.37-.73.11-.35.75.41.69,1.88,1.03,2.5,1.56.7.6,1.37,2.11,2.5,2.52l1.21,1.86c-.06-.05-1.02-.14-1.46-.35-6.27-3.05-12.41-6.07-19.1-7.91-1.58-.44-7.45-3.66-8.94-4.71-1.81-1.28-3.92-4.07-5.59-4.85l.28-.56Z"/>
  <path class="cls-5" d="M2.51,60.43c2.74,1.92,5.27,3.62,7.8,5.85.18,1.6,1.99,2.36,2.9,3.37,3.4,3.74,5.22,8.79,8.52,12.23,1.96,2.04,4.95,4.56,6.61,6.48.3.34.27.94.36,1.04l-.28.84c-2.02-1.03-5.62-2.69-7.24-4.18-.06-.12-.16-.23-.28-.28-.08-.03-.21.04-.28,0,.3-1.48-1.46-2.55-1.82-3.35-.14-.31.16-.7.08-.78s-.87.03-.48-.59c.04-.06.85.13.54-.84-.45-.17-1.44.29-1.68.14-.18-.1-1.94-2.55-2.29-3-2.35-3.05-5.39-5.95-7.6-8.82-.64-.84-1.73-3.16-1.85-3.3-.11-.12-.64-.1-.93-.32s-1.65-2.1-1.92-2.55c-.33-.54-1.2-1.55-.16-1.93Z"/>
  <path class="cls-2" d="M177.42,95.52s.14-.25.36-.22c.16.03,2.88,1.21,2.98,1.33.69.81-1.24.3-1.11.83.43-.21,1.3.53,1.39.84.01.03.01.27,0,.28-.09.05-.53-.14-.58.17-.29,1.77,2.61,3.3,2.53,5.12.56.02.1-.91.73-1.1.54-.15,1.07.26,1.5.26,1.1.58,1.97,1.45,2.94,2.22.25.2.64.21.87.39,1.24.96.87,1.65,2.61,2.41l-.28.84c-.51-.2-.95-.41-1.39-.56-.22-.48-.04-.84-1.11-.83-.1.96.67.69,1.11.83.2.45-.1.34.56.84.12,1.29-1.36.04-1.65-.16-1.81-1.28-3.51-3.36-5.18-4.85-.78-.38.15,1.69.24,1.86.31.51,1.1.64,1.44.92,2.05,1.67,3.57,3.91,5.55,5.87,2.83,2.79,6.22,5.42,9.21,8.05l4.44,5.03c.73.05.29-.11.2-.48-.98-4.03-7.13-10.66-10.58-12.88-.72-.46-3.98-1.29-2.29-2.24,1.83,1.48,3.76,2.6,5.64,4.19,3.12,2.64,6.12,5.83,7.64,9.69.47,1.19,1.36,3.75,1.2,4.92,0,.24-.6.18-.7.14-.18-.08-1.69-2.86-2.1-3.41-4.06-5.41-12.35-11.46-17.6-16.08-3.85-3.4-4.75-7.47-7.86-11.16-.45-.54-1.5-.99-1.82-1.8-.37-.94,2.08.33,1.11-1.25ZM178.6,96.35c0-.19-.15-.34-.34-.34s-.34.15-.34.34.15.34.34.34.34-.15.34-.34ZM179.5,96.63v.28c.18-.09.18-.19,0-.28ZM185.49,104.16c-.39-.2-.74.18-.55.27.39.2.74-.18.55-.27ZM187.02,105.82v.28c.18-.09.18-.19,0-.28ZM188.28,106.66l-1.11-.28c.4.61,1.21,1.45,1.11.28Z"/>
  <path class="cls-5" d="M166.83,105.27c2.39,2.86,8.92,8.38,12.02,10.24.1.06.49-.21.79-.1,1.73.62,3.92,2.33,5.75,3.18,4.47,2.08,9.3,3.05,14.03,4.36.04.44,1.1,1.01,1.1,1.1,0,.04-.27.65-.3.68-.28.23-4.53-.1-5.27-.26.38-1.18-1.56-1.44-2.23-.84-.84-.2-1.67-.32-2.51-.56l-1.63-1.02c-1.11-.36-2.41-.72-3.11-.93s-1.71-.58-2.51-.84c-1.81-1.71-4.62-2.9-6.82-4.46-1.81-1.28-3.16-2.61-4.49-4.15-.13-.15-.83-.83-.95-.3-.13-.15-.35-.33-.56-.56.36.02.43-.53.14-.56l-.14.28c-1.99-2.23-2.96-2.51-4.46-5.57l1.11.28Z"/>
  <path class="cls-5" d="M140.09,74.91c.7.05.89.8,1.7,1.24.3.16.7.09.81.15,1.2.65,1.54,2.23,2.65,3.06l.41-.55c.22.64.7,1.5,1.11,2.02.34.42,1.68.78.83,1.45-.37.29-2.37.62-2.95.67-2.82.24-5.18-.62-7.84-1.01-.62-.09-2.25.41-2.57.21-.06-.03-.13-.73-.69-1.12-.39-.28-1.31-.82-1.76-1.09-.77-.46-2.5-.61-2.29-1.97.72.23,1.87.49,2.6.46s3.18-.36,3.89-.51c.92-.2,3.18-2.32,4.09-3.01Z"/>
  <path class="cls-5" d="M138.42,101.09c.47-.49-.35-1.88-.28-1.95.49-.5.56.54.74.57.37.06.78-.17,1.49-.01.2.25,1.36,1.3,1.39,1.39.03.1-.38.44-.28.55,4.23,2.58,7.4,4.21,12.26,5.3.23,1.47,1.82-.12,2.42,1.34l2.04.34c.04.05.26.27.28.28l.41.28.14-.28c.47.21.92.37,1.39.56.18.77-.18.88-.84,1.11-1.83.67-9.21.06-11.14-.7-.31-.12-2.94-1.41-3.07-1.53-.06-.06.04-.93-1.11-.84-.06-.1-.22-.18-.28-.28-.71-1.17-.37-.59-1.39-1.11-.21-.69.05-1.33,0-1.38-.04-.04-.63-.03-.98-.28-.92-.67-2.27-2.73-3.2-3.35Z"/>
  <path class="cls-5" d="M85.5,60.43c-.08-.03-.19.03-.28,0v-.28c.11.07.2.18.28.28Z"/>
  <path class="cls-5" d="M80.49,56.81c1.8.33.69.71,1.25,1.67.23.4.87.43,1.26.55,0,.99,1.52,1.18,2.23,1.39l1.47,1.32c.47-.06.85.02,1.31.07,2.55.3,5.1.99,7.7,1.35,1.95.27,4.01.3,5.94.32.23.91-.59.32-.86.73-.17.25-.04.66-.44.96-2.31,1.74-7.92,2.21-10.67,1.37l-2.8-2.35c-.61-.49-1.52-.37-1.38-1.54l-.41.55c-1.2-.86-2.08-2.08-3.14-3.06-.17-.16-.52-.19-.62-.28-1.08-1.03-2.1-2.07-3.06-3.2.6-.19,1.6.02,2.23.14ZM81.05,57.93c.2-.39-.18-.74-.27-.55-.2.39.18.74.27.55Z"/>
  <path class="cls-3" d="M20.61,85.77c-3.19-1.72-9.56-8.89-11.82-11.99-2.04-2.8-3.41-5.6-5.11-8.53C2.44,63.11.76,61.19,0,58.77l2.32,1.1c.27.19.16.55.19.57-1.04.38-.16,1.38.16,1.93.27.45,1.62,2.33,1.92,2.55s.82.19.93.32c.13.14,1.21,2.47,1.85,3.3,2.21,2.87,5.25,5.77,7.6,8.82.35.45,2.11,2.9,2.29,3,.25.14,1.24-.32,1.68-.14.3.97-.51.78-.54.84-.39.62.41.51.48.59s-.22.47-.08.78c.36.8,2.12,1.88,1.82,3.35Z"/>
  <path class="cls-5" d="M122.83,68.51c-.23-.02-1.27-.91-1.11.28-.28.01-.56-.01-.84,0,.11-1.02-.27-.25-.97-.25-.57,0-1.37,0-1.81-.03-1.22-.06-1.72-.3-2.79-.56.14-.71-.32-.59-.77-.74-3-1.02-4.87-1.21-7.95-1.31-.54-.02-3.39-.06-3.53-.18-.73-.62,1.29-.37.83-1.11,2.73-.82,7.49-.66,10.37-.2,1.53.24,3,.87,4.45,1.12,1.65.28,3.36.08,5.02.27.72.09,4.88.84,4.67,1.73-.23.97-4.71,1.07-5.57.98Z"/>
  <path class="cls-3" d="M35.09,37.04c.04-.05-.09-.4.04-.51.24-.2,2.14.06,1.91.78.46.15.13-.57.43-.57,1.05.49,2.1.42,3.19.58.56.08,1.36.5,2.09.5.55,0,1.19-.37,1.81-.22.14.04.38-.04.56,0l-.28.55c1.02-.69,1.73.39,2.37.29.15-.02.12-.56.26-.55.2,0,.54.3.99.26.12.43-.39,1.06.41,1.12,1.59.12,2.77-.62,4.19-.58.9.02,1.49.46,2.25.56,1.16.15,2.43-.08,3.6.02,2.48.22,4.24,2.32,6.18,3.56.28.18.74.2,1.07.33l-.42.56c-2.6-1.02-5.91-1.93-8.63-2.51-2.86-.6-4.6-.79-7.52-.56,0-.88.24-.84-.67-.79-1.06.06-2.3.02-3.37-.04-.54-.03-2.52-.88-2.37.28-1.38-.12-5.78-.57-6.62-1.46-.24-.25-.18-.78-.41-.98s-.94-.06-1.04-.63Z"/>
  <path class="cls-3" d="M81.33,59.88c.1.1.45.12.62.28,1.06.98,1.94,2.2,3.14,3.06l.41-.55c-.14,1.18.77,1.06,1.38,1.54l2.8,2.35c-.21-.06-1.69-.67-1.87-.77-.45-.25-1.88-1.82-2.3-1.46-.15.13,1.95,2.66,2.2,3.23,1.6,3.7,0,7.08-.25,10.83-.05.81-.67.29-1.11.41-.02-.09.02-.19,0-.28-1.21-5.09-1.87-10.91-4.68-15.51-.24-.39-.43-.74-.89-.92-.01-.09,0-.19,0-.28,0-.5-.23-.91.41-.83,1.16.13.84.98,1.81,1.11l-1.67-2.23ZM82.02,62.38v.28c.18-.09.18-.19,0-.28Z"/>
  <path class="cls-3" d="M191.9,110.28c-1.69.95,1.58,1.78,2.29,2.24,3.45,2.22,9.6,8.85,10.58,12.88.09.36.54.53-.2.48l-4.44-5.03c-2.99-2.63-6.39-5.27-9.21-8.05-1.98-1.95-3.5-4.19-5.55-5.87-.34-.28-1.14-.4-1.44-.92-.1-.17-1.03-2.24-.24-1.86,1.67,1.49,3.37,3.56,5.18,4.85.29.2,1.76,1.46,1.65.16.54.41.9.72,1.39,1.11Z"/>
  <path class="cls-5" d="M19.5,56.26c.41.31.42.76.45,1.22.17,2.31-1.09,5.52-1.02,7.82.03,1.13.19,3.02.32,4.16.22,1.89,1.49,3.76,1.36,5.74-.25.3-1.64-1.16-1.82-1.38-.95-1.17-3-4.88-3.18-6.31-.12-.96.17-2.77.4-3.73.32-1.3,1.28-4.06,1.81-5.29.39-.91,1.39-1.68,1.67-2.23Z"/>
  <path class="cls-2" d="M93.86,72.96c-.98,2.35-2.64,6.18-1.61,8.72.14.33,1.01.88,1.31,1.24,1.97,2.37,3.1,4.04,6.6,4.14,1.9.06,4.08-.95,5.53-2.13s1.82-2.36,1.51-4.3c-.1-.65-1.22-3.46-1.65-3.92-.91-.99-1.22-.38-2.06-.44-.56-.04-1.02-.3-1.69-.26-1.22.06-3.2,1.51-4.06,2.37-2.05,2.04-.05,5.02,2.31,4.55.75-.15,2.6-1.37,3.01-2.02.53-.85-.03-3.81,1.6-2.88.19.11.5,1.36,1.16,1.51-.06,1.63,0,2.8-1.31,4.01-1.79,1.65-6.36,2.6-8.15.7-.22-.23-1.83-2.87-1.88-3.13-.26-1.13.04-4.61.77-5.53.19-.23.6-.28.76-.49.23-.3.18-.71.63-1.18,2.41-2.52,6.83-2.63,9.91-1.52,1.54.55,1.59,1.31,2.08,1.56.41.2.48-.27,1.68.4-.14.61-1.67.32-1.39.97.49,1.17.89-.29,1.25-.13.36.62.99,1.11,1.37,1.69,1.24,1.9,2.95,5.05,4.03,7.11,1.18,2.27,2.09,5.57,3.29,7.55.32.53,2.54,2.05.77,2.03-1.36-.02-3.06-.58-4.48-.81-.71-.11-2.86.26-2.89-.87.59.05,1.2-.05,1.8,0,1.6.14,3.24.86,4.88.69-1.7-2.32-2.4-5.19-3.69-7.73-1.18-2.31-2.8-4.49-4.25-6.61.02,1.3.47,2.88.98,4.18.03.08-.03.21,0,.28-.02,1.8-.99,3.39-2.12,4.7-1,1.16-2.1,2.07-3.58,2.55-2.18.72-3.32.19-5.45.26-.16-.9.46-.47.98-.54,3.63-.49,6.25-.3,8.33-3.94.84-1.47.82-2.72.97-4.31.01-.13-.44-.08-.61-.46-.53-1.16-.47-2.8-.76-3.92-.05-.21-.41-.17-.52-.42-.71-1.67-1.22-3.35-3.36-3.83-.57-.13-3.46-.2-4.03-.11-.9.14-2.06.9-2.94,1.24-.43.17-.99.07-1.4.27-.12.06-1.48,2-1.63,2.27-.85,1.48-.69,3.26-.17,4.83.33,1,.28.84.97,1.12.51,1.53.47,1.86,2.43,2.16,3.04.46,7.57-2.25,5.36-5.78-.67.1-.34,1.19-.47,1.61-.29.96-1.87,2.38-2.8,2.77-2.17.9-2.71-.04-4.52-.76-.38-1.14-.83-1.91-.22-3.15.18-.37.57-.4.68-.56.3-.47.26-.77.78-1.31.36-.38,2.14-1.78,2.58-1.88.57-.13,2.91-.29,3.56-.28.4,0,1.16.2,1.51.39,1.04.56,2.52,3.09,2.74,4.22.54,2.78-1.01,5.2-3.31,6.59-2.5,1.51-5.24,2.26-7.97.78-1.33-.72-3.09-2.39-4.1-3.41-.28-.28-.78-.45-.91-.62-.57-.77-1.06-4.73-.79-5.78.15-.59,1.93-4.6,2.27-4.68.18-.04.34.24.38.24Z"/>
  <path class="cls-2" d="M103.89,64.61c.46.74-1.56.49-.83,1.11.13.11,2.99.16,3.53.18,3.08.09,4.95.29,7.95,1.31.45.15.92.03.77.74-1.05-.25-3.53-1.12-4.3-1.13-.28,0-.11.51-.16.57-.09.11-1.37.32-1.67.28l.55-.55c-1.79.63-3.38-.18-5.14-.29-7.03-.45-13.04,1.97-15.27,8.98-1.39,4.38.36,8.3,3.7,11.08,0,.28-.01.56,0,.84-.19,0-.37,0-.56,0-.09,0-.19,0-.28,0l-2.07-2.52c.03-.81-1.14-1.62-1.22-1.83-2.68-7.78,2.36-15.87,10.43-17.05.55-.08,2.39-.29,2.89-.31.11,0,.5.41.84.28-.06-.41-.48-.53-.84-.55l-.56-.55c.78,0,1.5-.34,2.23-.56ZM110.29,67.12c.2-.39-.18-.74-.27-.55-.2.39.18.74.27.55Z"/>
  <path class="cls-2" d="M56.54,57.65c.27-.06.65.18.86-.16.3-.46.84-4.26.81-4.99s-.84-3.74-.56-4.04c.02-.03.52-.03.69,0,1.33.24,2.14,3.69,2.34,4.9.36,2.15.7,4.85-.8,6.66-.99,1.19-3.64,2.33-5.17,2.37-.67.02-4.88-.8-5.29-1.11-1.47-1.12.26-.64.58-.69,1.06-.16,1.42-.18,2.45-.25,1.62-.12,3.48-1.16,4.08-2.69ZM58.96,60.07c1.92-2.13,1.21-7.83-.06-10.22-.56.02.25,3.2.28,3.61.02.33-.3.53-.3.71,0,.3.33.55.31,1.01-.03.68-.93,1.14-1.08,1.91-.09.46.16.86-.01,1.41-.2.63-1.53,1.43-2.15,1.77-1.01.56-2.1.12-.67,1.56.94-.8,2.76-.73,3.68-1.75Z"/>
  <path class="cls-2" d="M128.4,70.46c.2-.06.56.05.9-.06.69-.23,1.55-1.33,2.26-1.27,1.51.13,4.15,2.55,6.17,1.89.57.06-.42.99-.63,1.09-3.42,1.59-8.3,2.51-11.99,1.5-.26-.07-.85-.01-.61-.5.17-.34,2.66-1.12,3.33-1.69.53-.45.37-.62.56-.96Z"/>
  <path class="cls-5" d="M138.14,72.96c.62.37,1.03.2.84,1.11-.05.07.08.56-.28.96-.41.46-3.4,1.83-4.12,2.02-2.76.74-7.32.32-9.78-1.2-.48-.3-1.48-1.18-1-1.78.34.4.76.56,1.25.7,4.47,1.28,9.26.14,13.1-1.82Z"/>
  <path class="cls-5" d="M152.58,85.55c.2.12,1.33,2.51,1.61,2.98.34.56.97.86,1.29,1.5.57,1.17.84,2.93,1.61,4.1-.74.68-3.64-3.68-4.74-3.06.6-1.08-.79-.84-1.1-.96-1.61-.63-3.14-1.46-4.74-2.1l2.7-.77c.81-.54,2.3-2.3,3.37-1.68Z"/>
  <path class="cls-2" d="M43.17,40.11c-.15-1.16,1.83-.31,2.37-.28,1.07.07,2.3.1,3.37.04.91-.05.67-.09.67.79-.41.03-1.46-.12-1.64.04-.05.04-.16.75-.58,1.23-1.83,2.13-5.05,2.82-5.81,6.45-.14.65.04,3.02-.06,3.14-.53.63-.79-1-.83-1.11.53-.1,0-.73,0-.84.18-2.11,1.29-3,2.07-4.75.2-.45.09-1,.3-1.37s1.14-.37.97-1.12c-2.89.42-5.59.08-8.35-.84.05-.05-.03-.4,0-.56.25.15,5.29,1.11,5.67,1.1,1.39-.05,2.85-.8,4.08-1.38l-2.23-.55Z"/>
  <path class="cls-5" d="M64.62,61.55c.25-.16.51-.32.83-.28.92,2.06.8,4.3,1.19,6.48,2.72,4.32.51,1.56-1.95.83-.42-.13-2.66-.59-3.02-.6-.25,0-3.84.56-1.57-.51,1.25-.59,2.34-1.36,3.25-2.58.76-1.02.98-2.16,1.26-3.33Z"/>
  <path class="cls-5" d="M35.65,41.5c2.76.92,5.46,1.26,8.35.84.17.75-.75.73-.97,1.12s-.1.92-.3,1.37c-.78,1.75-1.89,2.64-2.07,4.75l-.56-.56c-.03-.08.03-.2,0-.28-.09-.26-.05-.62-.21-1.03-.31-.79-1.1-1.32-.9-2.31-1.1.81-.48-1.05-.56-1.11-.03-.02-.39.22-.56.12-.14-.09-2.05-2.01-2.38-2.34-.16-.16-.41-.33-.41-.56.16-.04.5.05.56,0Z"/>
  <path class="cls-2" d="M191.06,127.54c-.63-.32-.54-.43-.9-.64-.61-.36-5.26-2.64-2.27-2.69.63-.01,1.77.81,2.55,1.03,3.09.87,6.53,1.47,9.25,2.43,4.46,1.57,7.28,3.44,11.01,6.28.69.53,3.04,2.24,3.49,2.7,2.24,2.34,3.61,6.69,3.89,9.82h-.56c-.07-1.41-.83-1.43-.84-1.53s.71-.28.84-.84c.03-.12-.48-.08-.55-.33-.22-.76-.07-1.2-.57-2.11-.59-1.06-1.47-2.82-2.38-4.08-1.84-2.57-7.35-6.16-10.43-7.4-.97-.39-2.19-.31-2.93-1.25l-.14.55h-.27c-.17-1.25-2.07-.98-3.08-1.24-1.34-.34-4.35-.86-5.36-1.28-.24-.1-.22-.33-.2-.54l-.55,1.11Z"/>
  <path class="cls-8" d="M120.6,81.6c.57.11.58.15.96.57,1.37,1.51,2.33,4.39,3.49,5.91.26.34.72.41,1.09.94.52.75,3.31,6.71,3.54,7.6.14.54.4.98-.44.85-2.86-5.22-6.68-11.01-9.19-15.87.18.02.39-.03.56,0Z"/>
  <path class="cls-1" d="M218.08,146.48c.25,2.84.6,6.54,1.92,8.86,1.03,1.81,2.3,4.35,3.36,5.98.21.32,1.15.76,1.56,1.3.27.35.86,1.28-.01,1.13-.79-.13-.99-1.03-1.52-1.55-1.26-1.24-3.03-2.79-4.47-3.75.22-.92,2.65,1.53,2.22.14-.1-.34-1.35-2.2-1.68-2.72-1.42-2.26-.95-1.81-1.38-4.38-.34-2.01-.45-3.01-.56-5.01h.56ZM221.7,159.29c-.39-.2-.74.18-.55.27.39.2.74-.18.55-.27Z"/>
  <path class="cls-2" d="M132.02,102.48h1.39c.14.5-.64.12-.55.42.05.16.74,1.44.88,1.64.49.7,1.6,2.01,2.2,2.73,2.93,3.47,7.04,5.33,11.29,6.88.5.18.97-.3.39.58-.56-.17-1.3-.36-1.87-.49-7.12-1.7-10.08-5.33-13.72-11.76Z"/>
  <path class="cls-3" d="M167.67,124.76c1.96,1.08,3.74,1.9,5.46,3.43.95.85,2.69,2.48,2.61,3.8l-.84-1.11-1.25,1.11c-.29,0-.07-.5-.14-.56l-1.21-1.86c-1.12-.41-1.79-1.92-2.5-2.52-.62-.53-2.09-.87-2.5-1.56-.38-.64-.04-.38.35-.75Z"/>
  <path class="cls-2" d="M183.82,111.39c1.03,1.06,2.65,2.63,3.9,3.34l.28.84c-.05.14.03.38,0,.56-.42-.07-.97.07-1.39,0-2.79-.5-4.61-1.09-6.82-2.77-.38-.29-.68-.62-.7-1.12,1.13.48,2.1,1.14,3.33,1.82.27.15.97.68,1.12.13.38.2,1.48.73,1.82.83.93.28,0-1.35-.28-1.37-.19-.01-.52.88-.84.26-.19-.38.14-.67,0-1.1-.16-.5-.74-.82-.97-1.13l.56-.28ZM186.19,115.01v.28c.18-.09.18-.19,0-.28Z"/>
  <path class="cls-3" d="M40.11,48.74c-.6.13-.6-.32-.83-.68-1.49-2.36-1.84-3.75-4.2-5.56-.78-.6-4.44-2.58-4.72-3.08-.42-.75,1.75-.13,2.01-.06,1.3.39,2.4,1.07,3.28,1.59-.03.15.05.51,0,.56-.05.05-.4-.04-.56,0,0,.23.25.4.41.56.32.33,2.23,2.25,2.38,2.34.17.1.52-.14.56-.12.08.06-.54,1.93.56,1.11-.2.99.59,1.52.9,2.31.16.41.12.77.21,1.03Z"/>
  <path class="cls-3" d="M148.17,67.95c.43.07,2.65.51,2.75.61.26.26-.15.28.97,1.1,3.82,2.8,5.94,5.96,9.27,8.98,2.7,2.45,4.35,8.16,5.9,11.5,1.44,3.09,4.94,11.54,7.23,13.46.76.63,2.76,2.13,3.69,1.39,2.25,1.86,3.75,4.24,5.85,6.4l-.56.28c-2.43-3.2-4.28-3.27-7.06-5.55-.55-.45-.88-1.72-2.14-2.33-2.03-.97-4.31-4.26-5.8-6.51-.44-.66-.99-2.2-1.42-2.69-.28-.32-.75-.11-1.09-.64-.62-.99-.02-2.19-.08-2.29-.07-.11-1.39-.98-1.55-1.23-.29-.48-.36-2.09-.62-2.86-1.09-3.17-3.14-5.37-4.77-8.06-.2-.32.02-.65,0-.67-.17-.1-.68.07-.79-.03-.18-.17.12-1.49-.03-1.65-.08-.08-1.22.03-1.6-.35s-.2-1.33-.4-1.55c-.06-.07-1.25-.51-1.75-.9-1.65-1.27-2.65-3.83-5.04-3.86l-.96-2.54Z"/>
  <path class="cls-2" d="M10.31,66.28c1,.88,2.36,1.97,3.25,2.88,3.55,3.63,5.59,8.38,8.17,12.71-3.3-3.44-5.13-8.49-8.52-12.23-.91-1-2.71-1.77-2.9-3.37Z"/>
  <path class="cls-2" d="M141.77,101.09c.58-.08.88.24,1.31.5,3.09,1.84,5.55,3.14,8.93,4.44.98.37,1.58-.06,1.73.92,1.68.38,3.46.44,4.46,1.67l-2.04-.34c-.6-1.46-2.18.14-2.42-1.34-4.85-1.09-8.02-2.71-12.26-5.3-.1-.11.31-.45.28-.55Z"/>
  <path class="cls-2" d="M113.36,74.64c-.04-1.02.15-.4.55-.13,2.67,1.77,4.07,3.56,6.14,5.83.37.41.65.64.55,1.27-.17-.03-.38.02-.56,0-.42-.82-5.75-6.34-6.68-6.96Z"/>
  <path class="cls-3" d="M188,116.13c1.16.19,3.13,2.06,4.31,2.79.69.43,1.59.47,2.1,1.25.04.22-.24.16-.42.14-.76-.06-3.89-1.74-4.74-2.23s-1.95-1.21-2.64-1.95c.42.07.97-.07,1.39,0Z"/>
  <path class="cls-3" d="M160.43,109.44c1.18.47,1.78.88,2.7,1.39.76.42,2.27.34,2.03,1.67l-5.57-1.95c.65-.24,1.02-.34.84-1.11Z"/>
  <path class="cls-3" d="M176.58,103.87c-.22-.06-.72.08-.83,0-.02-.02.22-.36.11-.55-.17-.3-1.63-1.59-1.89-1.97-.17-.25-.95-1.61-1.01-1.79-.24-.76.8-.4.83.28l.28-.69c.42.89,1.55,2.4,2.1,3.33.29.49.57.72.41,1.4Z"/>
  <path class="cls-2" d="M185.49,121.14c.7.21,2,.57,3.11.93l1.63,1.02c-2.06-.58-2.8-.81-4.73-1.67v-.28Z"/>
  <path class="cls-5" d="M140.09,74.91c.37-.28.67-.98,1.39-.84-.09.94.87,1.39,1.12,2.23-.11-.06-.5.01-.81-.15-.81-.44-1-1.19-1.7-1.24Z"/>
  <path class="cls-8" d="M166.83,105.27l-1.11-.28c-.29-.59-1.35-1.2-.7-2.23.79.61,1.24,1.82,1.81,2.5Z"/>
  <path class="cls-8" d="M138.7,113.06l-.28.56c-.56-.26-1.92-.14-1.67-1.25.22-.98,1.76.59,1.95.69Z"/>
  <path class="cls-3" d="M138.14,72.96c.49-.25.82-.8,1.67-.56.48,1.5-.71,1.5-.83,1.67.2-.92-.22-.74-.84-1.11Z"/>
  <path class="cls-2" d="M85.5,60.43c.71.23,2.58.56,2.51,1.39-.46-.05-.84-.13-1.31-.07l-1.47-1.32c.09.03.2-.03.28,0Z"/>
  <path class="cls-2" d="M83.28,59.04c.94.32,1.13.6,1.95,1.11v.28c-.71-.21-2.23-.4-2.23-1.39.08.03.2-.03.28,0Z"/>
  <path class="cls-8" d="M192.73,123.65c.67-.61,2.61-.34,2.23.84-.9-.19-1.47-.66-2.23-.84Z"/>
  <path class="cls-3" d="M185.49,121.14v.28c-.85-.38-1.58-.24-2.51-1.11.8.26,1.8.63,2.51.84Z"/>
  <path class="cls-3" d="M122.83,68.51c-.32.36-.71.26-1.11.28-.16-1.19.89-.3,1.11-.28Z"/>
  <path class="cls-2" d="M192.46,128.94c-.6-.27-.88-.81-1.11-1.39.71.29,1.25.5,1.11,1.39Z"/>
  <path class="cls-8" d="M183.54,114.18c-.15.55-.86.02-1.12-.13-1.23-.67-2.2-1.34-3.33-1.82-.1-.04-.19-.24-.28-.28v-.28c1.86.23,3.18,1.68,4.73,2.51Z"/>
  <path class="cls-3" d="M187.72,114.73c.11.06.5-.07.56,0,.23.29-.24.71-.28.84l-.28-.84Z"/>
  <path class="cls-3" d="M40.66,49.57c0,.11.53.73,0,.84-.24-.54-.36-.81-.56-1.39l.56.56Z"/>
  <path class="cls-5" d="M102.22,65.72c.36.02.78.14.84.55-.33.14-.73-.28-.84-.28v-.28Z"/>
  <path class="cls-2" d="M138.42,70.18c-.05-.02-.39.3-.56.28-.03-.47-.1-.65.42-.55l.14.28Z"/>
  <path class="cls-2" d="M170.17,110.84c-.05-.05.05-.23,0-.28l.14-.28c.29.03.22.57-.14.56Z"/>
  <path class="cls-2" d="M159.03,108.89l-.14.28-.41-.28c.13.06.43-.06.56,0Z"/>
  <path class="cls-3" d="M21.17,86.05c-.1-.09-.19-.18-.28-.28.12.05.22.16.28.28Z"/>
  <path class="cls-2" d="M66.57,32.59c.36-.04,2.13-.03,2.33.04.06.02.88.8.93.86.05.07-.17.33-.1.42.21.28,1.64,1.69,1.3,2.02-2.01-.07-2.21-.34-1.92,1.8.12.89.66,1.29,1.5,1.55.44.14,3.34.65,3.48.54.12-.09.66-1.91,1.39-2.59.37-.35.76-.13.85-.18v.28l-1.67,2.78c2.22.56,3.14-.6,4.76-1.23,1.27-.5,3.94-1.48,5.27-1.55.09.78.09.7-.55.97-1.8.77-3.2,1.13-5.04,1.67-.28.08-.49.4-.54.42-2.63.67-5.53.31-8.14-.35-.24-.06-1.49-.49-1.55-.54-.42-.43-.92-3.68-.3-4.08.45-.29,1.43.5,1.08-.96-.04-.17-1.44-1.04-1.74-1.13-.67-.2-.92.11-1.33.1v-.84Z"/>
  <path class="cls-5" d="M141.49,66c1.95.21,1.79.07,3.62.66.37.12,2,.26,2.23.45l-.28.83c.43-.11.7-.07,1.11,0l.96,2.54c2.39.02,3.39,2.58,5.04,3.86.5.39,1.68.82,1.75.9.19.22.02,1.17.4,1.55s1.52.27,1.6.35c.15.16-.14,1.47.03,1.65.1.1.62-.06.79.03.03.02-.19.35,0,.67,1.63,2.69,3.68,4.9,4.77,8.06.26.77.33,2.38.62,2.86.16.25,1.47,1.12,1.55,1.23.07.1-.53,1.3.08,2.29.34.54.81.33,1.09.64.43.49.98,2.03,1.42,2.69,1.48,2.25,3.77,5.54,5.8,6.51,1.26.61,1.59,1.88,2.14,2.33,2.77,2.28,4.63,2.35,7.06,5.55.24.31.81.63.97,1.13.14.43-.2.72,0,1.1.32.62.65-.27.84-.26.28.02,1.21,1.65.28,1.37-.34-.1-1.44-.63-1.82-.83-1.55-.82-2.87-2.27-4.73-2.51l-4.45-3.07.55-.55c-1.72,0-1.4-1.21-1.83-2.21-.41-.95-2.82-2.42-3.75-3.49-.55-.63-.81-1.45-1.11-1.82.25.05,1.02-.08,1.11,0,.04.04-.04,1.15.56.56s-.53-.51-.56-.56c-.06-.09.15-.6-.06-.78-2.08-1.79-3.43-3.94-4.83-6.43-.27-.48-1.46-1.83-1.17-2.21.05-.07.54-.03.49-.18-.07-.21-.34-1.14-.37-1.2-.03-.07-.95-.44-.75-1.17l-.55.55c-.1-1.39-.59-2.28-1.15-3.44-.63-1.3-1.58-2.75-2.08-3.81-1.27-2.69-1.99-3.56-4.07-5.57-3.97-3.85-7.19-7.31-12.27-9.52-.42-.18-.87-.26-1.04-.77Z"/>
  <path class="cls-8" d="M78.82,42.89c3.18,2.7,4.54,3.85,8.84,5.22,3.29,1.05,5.73.52,8.53,1.18.22.05.16.54.3.53,1.52-.11,1.26.12,2.29.22,2.08.21,4.47-.33,6.51.36,1.08.37,2.19,2.21,3.08,2.91.27.21,2.53.77,1.93,1.27-.81.68-2.5-1.33-3.01-1.64-2.16-1.32-3.64-1.12-6.04-1.14-1.51-.01-1.66.02-3.14.21-3.86.47-6.94.31-10.58-.97-.46-.16-.98.04-1.46-.23-.21-.12-.98-1.46-1.11-1.24.23.77-.56.49-1.03.18-1.91-1.24-3.61-2.73-5.4-4.21-.77-.64-1.98-1.23-2.64-2.09-.23-.3-.52-.53-.4-.98.25-.93,1.27-.04,1.62.05.38.1,1.57.23,1.72.36Z"/>
  <path class="cls-5" d="M110.01,47.62s.61,0,.99.26c1.13.79,2.99,3.37,4.25,4.46,4.38,3.76,9.18,4.72,14.08,7.02,2.69,1.26,6.56,4.01,9.11,4.84.46.15.67-.14.94-.15s.04.55.3.57c.83.04.04-.46.14-.56.51-.54.94.94,1.39.27v1.67c-.53-.05-2.52-.38-2.85-.56-.29-.16-.31-.58-.49-.68-1.73-1.01-4.19-1.76-6.12-2.52-4.07-1.6-7.59-3.36-11.58-4.85-2.49-.93-5.72-1.72-7.56-3.72-.17-.18-.15-.65-.36-.88-.52-.57-3.19-3.24-3.35-3.63-.26-.63,1.54-.29,1.11-1.53Z"/>
  <path class="cls-5" d="M78.54,40.38c.68-.58,1.24,1.01,1.56,1.37.95,1.07,1.79,2.25,3.13,2.72,4.39,1.53,7.89,2.08,12.4,2.42,3.51.26,5.53,1,8.75,2.2l.91,1.32c-2.03-.7-4.43-.15-6.51-.36-1.03-.1-.77-.33-2.29-.22-.14,0-.08-.48-.3-.53-2.8-.66-5.24-.13-8.53-1.18-4.3-1.37-5.66-2.53-8.84-5.22,1.27.48-.54-2.28-.28-2.51Z"/>
  <path class="cls-2" d="M85.78,37.32c.38-.95,2.01-1.08,2.92-1.13,2.04-.11,4.61.16,4.81,2.71.07.87-.86.83-.82,1.68-.51.29-1.65.78-2.1.3-.3-.32-.12-1.07-.62-1.05-.31,1.42.31,1.69,1.67,1.67.02.66.2,1.01-.69.83-1.4-.29-1.73-1.71-2.38-2.77.37.12,1.88-.42,1.95-.28.13.25-.04,1.48,1.23,1.1.36-.11.37-.68.56-1,.14-.23.82-.05.24-1.15-1.18-2.2-4.53-.86-6.4-.71-.22.02-.33-.19-.35-.19Z"/>
  <path class="cls-8" d="M119.48,77.14c.96.04,1.64.82,2.23,1.11-.05-.05-.39.04-.56,0-1.73-.37-.88-.2-1.67-1.11Z"/>
  <path class="cls-3" d="M105.84,103.04c.28.28.65.67,1.04.77.53.14,2.96.31,3.09.4.12.09.1.61.49.74.43.15,1.03,0,1.5.03l-.55-.55h1.11c-.7,1.03.47.6.28,1.67.63-.1-.15-1.22.97-.84.13.04.12.55.25.54,1.91-.13,3.35.14,5.3.59.73.17.69.83,1.54-.02v.84c.57.11.72-.53,1.24-.55.68-.03,1.43.72,2.38.82.18.02.37-.01.56,0,.32.63,1.01.85,1.3,1.21.27.33.89,1.93,1.47,1.55.08-.05-.18-.8.57-.53-1.41,1.59.25,1.57.97,2.51.3.4.28.74.42,1.1-.61.25-1.6.02-1.39.84-2.09-1.79-6.1-2.68-8.44-3.96-.42-.23-.43-.71-.67-.78-.92-.24-3.68.21-5.38,0-.08-1.22-2.55-.83-3.42-1.13-.25-.09-.18-.52-.37-.54-2.07-.15-3.13-.68-4.85-2.09-1.67-1.37-2.48-3.25-4.45-4.05-.03-.39.78-.47.99-.45.23.03,2.56,1.59,3.12,1.78.33.11.6.04.9.06Z"/>
  <path class="cls-5" d="M125.05,107.49c-.09-.18-.56-1.48,0-1.39.08.94,1.33.96,1.97,1.51.72.62,3.86,3.74,4.35,4.42.33.45.83,2.07.93,2.14.06.04.61-.42,1.31-.08.43.21.51.68.72.82.63.41,1.99,1,2.57,1.47.32.27.38.81.42.84.21.15,1.15-1.1.67.84.71-.33,1.68.27,2.37.57.63,1.25,2.27,2.43,3.62,2.78.03.14-.06.34.05.5.11.12.34.09.5.06.2.57.39,1.04.28,1.67-.04-.03-.68-.03-1.02-.22-2.11-1.16-3.63-2.64-5.56-3.92-1.29-.85-6.38-3.52-6.97-4.6-.16-.29-.05-.63-.09-.74-.06-.13-.97.39-1.11.28-.05-.03-.19-.88-.28-1.12-.15-.37-.12-.71-.42-1.1-.72-.94-2.38-.92-.97-2.51-.76-.27-.49.48-.57.53-.57.38-1.19-1.22-1.47-1.55-.29-.35-.98-.58-1.3-1.21Z"/>
  <path class="cls-5" d="M169.06,150.94c.02.17.31,1.24.36,1.32.41.65,1.83,1.99,2.15,2.5,1.13,1.83,2.83,3.36,4.45,5.24.45.52,1.2,1.61,1.66,1.96.49.38,1.06.35,1.14.4.06.04-.38.65-.28.81.09.13,1.86.78,2.23.99,2.51,1.4,5.14,2.77,7.46,4.31.87.58,1.99.4,3.08,1.04.47.27.77-.06.59.93-4.04-1.51-8.19-2.91-11.96-5.19-.96-.58-.48-.22-1.32-.58-1.65-.7-3.27-2.84-4.36-4.17-.44-.54-1.51-.45-.74-1.76-1.17.31-2.51-1.76-3.02-2.69-.54-.99-.73-2.3-1.17-3.23-.19-.4-.95-.67-1.1-1.74-.1-.68.72-.57.84-.14Z"/>
  <path class="cls-5" d="M105.84,103.04c1.82.14,3.45.75,5.22,1.05,3.88.66,8.25.34,12.12,1.24,1.45.34,1.45.74,1.32,2.16-.95-.1-1.7-.85-2.38-.82-.52.02-.68.66-1.24.55v-.84c-.86.84-.81.18-1.54.02-1.95-.45-3.39-.72-5.3-.59-.13,0-.13-.5-.25-.54-1.12-.38-.35.74-.97.84.19-1.07-.98-.64-.28-1.67h-1.11s.55.55.55.55c-.47-.04-1.07.12-1.5-.03-.39-.14-.37-.66-.49-.74-.13-.09-2.56-.26-3.09-.4-.39-.1-.76-.48-1.04-.77Z"/>
  <path class="cls-5" d="M150.96,129.21c1,.32.99.65,1.95.85l-.27.53c.64.23,1.96.69,2.48,1,1.96,1.17,3.75,3.67,4.94,5.62.37.61.42-.03.64,1.18.11,0,.82-.16.98-.27.27.21-.22.47-.09.76.02.05.73.73.78.76.28.16.99-.26,1.4-.14-.06.13.17.49-.17.57-.66.16-2.49-.4-2.84-.91-.16-.24-.02-.55-.06-.77-1.01-.09-2.73-1.81-3.01-2.71-.11-.36,0-1.14-.05-1.19-.06-.06-.86.07-1.19,0-.21-.05-.32-.67-.76-.55h.7c.66-1-1.06-.55-1.21-.63-.05-.03-.06-.37-.25-.48-1.42-.85-3.23-2.1-3.98-3.63Z"/>
  <path class="cls-3" d="M194.54,172.66c.18.09.18.19,0,.28v-.28Z"/>
  <path class="cls-3" d="M95.81,89.39c-.14-.04-.42.08-.64,0-.63-.25-.14-.32-1.59-.55-.14-.12-.48-.31-.5-.34-.14-.28-.05-.5-.06-.77s0-.56,0-.84c.92.76,2.53,1.2,2.79,2.51Z"/>
  <path class="cls-5" d="M93.58,88.84c1.45.23.96.3,1.59.55.22.09.49-.04.64,0,.41.13,1.35.18,1.39.55-1.3.11-2.62-.25-3.62-1.11Z"/>
  <path class="cls-5" d="M33.98,66.28c.87,3.11,4.04,6.81,6.01,9.46.13.18.54.22.62.35.19.33-.02.96.06,1.06.02.02.37-.24.56-.12.3.19.39.78.84,1.09.35.23,2.17.88,2.75,1.09s1.64-.15,1.7,1h.27s.14-.55.14-.55c.2.19.44.34.7.42,3.81,1.08,9.87,2.25,13.8,2.38,1.04.03,1.96-.6,3.01-.55,1.51.08,6.61,1.34,8.19,1.86,2.13.69,3.75,2.26,5.78,3.13v.57c-.85-.37-1.91-.14-2.65-.28-2.82-.54-5.98-1.66-8.42-2.29-1.66-.43-.86.03-2.02.09-.94.05-2.58-.52-3.63-.58-1.49-.09-3.69.25-5,.02-.17-.03-.27-2.14-.86,0-2.28.06-4.33-.21-6.55-.7s-6.81-1.82-8.49-3.21c-1.95-1.62-5.85-7.11-6.62-9.53-.34-1.08-1.32-3.9-.2-4.67Z"/>
  <path class="cls-3" d="M38.71,92.18c-.28-.24-1.6.05-2.01-.05-.9-.23-4.85-4.56-5.63-5.54-2.73-3.45-7.27-13.95-7.68-18.24-.06-.58.36-1.23.26-1.61-.12-.42-.89-.53-1.09-.88-.27-.48.45-.5.7-.42.2.07.05.93.42.42-.23-.38-.22-2-.28-2.08-.6-.75-.5,1.55-1.11.83-.09-.11-.1-2.68,0-2.78.51-.53.56.58.72.58.2,0,.35-.3.39-.3,1.59-.11,1.5,3.48,1.81,4.74,2,8.15,4.72,15.56,10.58,21.72.92.96,2.37,1.87,3.07,2.78.38.5.66.42-.14.83Z"/>
  <path class="cls-5" d="M85.23,93.57c.06.06.52-.22.99-.03.31.13,2.11,1.64,2.45,1.97.26.25.12.66.25.79.27.25,1.13-.03,1.05,1.45-.46-.15-1.23.32-1.52.25-.31-.08-.32-.58-.49-.72-.57-.47-1.9-.84-2.54-1.19-1.46-.8-1.92-1.65-4.07-2.11-1.77-.37-3.98-.22-5.61-.52-.61-.11-.45-1.04-1.37-.72l.41.84c-.68-.42-1.56-.14-2.18-.28-.23-.05-.18-.57-.33-.57-.42,0-.86.54-1.4.57-.61.04-1.1-.39-1.65-.42-.6-.03-4.16.28-4.33.14-.35-.29.09-1.17.84-.84-.8-1.13,1.33-.55,2.01-.63.79-.09,1.84-.57,2.31-.62.9-.1,2.22.54,3.2-.14.16.31-.37,1.05.56.84-.54-.65.09-.7.78-.77,2.51-.25,5.47-.23,7.96.52.52.16,2.67,1.03,2.83,1.37.17.36-.24.75-.16.83Z"/>
  <path class="cls-5" d="M158.2,70.18c2.2.39,4.23,1.21,6.33,1.61.76.15.77.14.35-.5,1.21.46.48.17,1.78.28,2.66.23,9.08,5.12,9.92,7.52.1.28-.18.97.27,1.27.13.09.69-.15,1.12-.04,1.38.36,3.32,1.9,4.74,2.4-.41,1.92-2.68.14-3.9,0-.35-.04-.75.03-1.11,0-1.74-1.77-7.67-2.91-8.36-3.62-.44-.46-1.38-1.51-2.01-1.86-.18-.1-.76.15-.99-.15-.15-.2-.04-.73-.33-.92s-.78-.04-1.06-.2c-.14-.08-1.14-1.57-1.76-2-1.29-.91-3.2-1.58-4.6-2.37l-.4-1.41Z"/>
  <path class="cls-5" d="M173.24,81.6c.96-.15,1.97.2,2.85.58.65.28.05.42,1.61.53.03.03-.06.31.07.48.38.47,1.1.13.49,1.47l.69-.56c1.66.57.89,1.6.98,1.67.04.04.7-.06,1.11.15.18.1.73,1.04.93,1.14,2.01.99,3.49.72,5.48.93-1.06.94,1.59.22.83,1.11-.07.08-1.44.39-1.96.97-.56.62-.36,1.1-.55,1.54-.06.13-1.38.81,0,.84,0,.1-.02.2,0,.28.06.19.4.63.56.84.11.89-.26.49-.79.37-3.19-.73-9.29-4.23-11.04-7.07-.4-.65-.51-1.15-.43-1.94l-.55.55c-.27-.65-1-1.54-1.12-2.23-.15-.92-.12-1.52.84-1.67Z"/>
  <path class="cls-3" d="M181.04,98.58c4.02,2.23,8.83,1.05,13.21,1.7.2.03,1.44.29,1.6.33,3,.87,4.25,4.36,5.56,6.98.5.99.7,1.44,1.15,2.47.42.97,1.05,1.91,1.31,3-1.53.16-1.27-.77-1.88-1.6-4.57-6.16-8.32-10.78-16.68-11.2-1.73-.09-.95,2.18,1.01,1.1-.44.86,1.6,1.63,2.23,1.11.83.41,1.77.66,2.6,1.11.26.14.16.55.19.56-.94-.09-.58.28-.05.48,1.4.51,2.25,1.58,3.39,2.59-.59.62-.71-.45-1.41-.69-1.92-.66-3.46-2.21-5.54-3.09-.36-.15-2.1-.66-2.34-.64-.25.02-.17.23-.18.23-.43,0-.96-.42-1.5-.26-.63.18-.17,1.12-.73,1.1.08-1.82-2.82-3.35-2.53-5.12.05-.31.49-.12.58-.17Z"/>
  <path class="cls-5" d="M185.21,103.04s-.07-.21.18-.23c.23-.02,1.98.48,2.34.64,2.07.88,3.62,2.43,5.54,3.09.7.24.83,1.31,1.41.69,2.68,2.36,5.21,5.1,8.18,6.94l1.57,2.52-3.08-2.35c-2.71-2.99-6.22-4.76-9.73-6.28-1.74-.75-1.37-1.44-2.61-2.41-.22-.17-.61-.18-.87-.39-.97-.77-1.83-1.64-2.94-2.22Z"/>
  <path class="cls-8" d="M203.32,96.08v.56c-.54-.18-1.58-.56-1.95,0-.27-.03-.56.02-.84,0,.31-.21.75-.38.56-.84.9.03,1.42.17,2.23.28Z"/>
  <path class="cls-2" d="M182.15,97.47l.28.84v.28c-.22-.06-1.08-.5-1.11-.56-.03-.05-.12-.88-.14-1.11.28.38.57.44.98.55Z"/>
  <path class="cls-5" d="M204.71,116.68c.59.17.73.85,1.11,1.26l-.13.13c-.39-.45-1.07-.76-.97-1.39Z"/>
  <path class="cls-3" d="M204.71,114.73c-.54-.14-.63-.61-.55-1.11.13-.29.66.75.55,1.11Z"/>
  <path class="cls-2" d="M185.49,99.14c-.6-.05-1-.26-1.11-.28l.92.05.19.23Z"/>
  <path class="cls-8" d="M199.69,110.28c-.1.19-.47-.16-.27-.55.1-.19.47.16.27.55Z"/>
  <path class="cls-3" d="M46.79,60.99s.03.43.29.68c.31.3.84.45,1.1.86-.7.35-1.48-.54-2.23-.83-.88-.35-1.98-.5-2.76-.87-2.86-1.33-6.81-8.98-8.82-11.79-2.24-3.13-4.89-4.69-8.28-6.48l-5.2-1.62c1.43-.38,3.13-.48,4.61-.3.58.07.87.45,1.14.49.35.06.76-.24,1.28-.15,3.14.5,6.17,4.89,7.96,7.39,1.55,2.16,6.38,10.65,8.2,11.43.87.37,1.77.4,2.72,1.19Z"/>
  <path class="cls-9" d="M32.17,50.13c.18.09.18.19,0,.28v-.28Z"/>
  <path class="cls-5" d="M140.65,59.32c.02.61-.67.64.14.85,1.34.34,3.31-.31,4.68,0,.12.03,1.3,1.27,1.38,1.32.28.17.7-.03.97.13.15.09,1.07,1.7,1.6,1.89l.42-.83c.52.43,1.49.75,1.39,1.39-.27-.07-1.72-.59-.98.28.31.36.89.16,1.19.34.16.1.29.66.61.92.82.66,1.87,1,2.52,1.79-1.61.09-3.18-.35-4.75-.68-2.22-.46-2.96-.83-4.92-1.76-2.61-1.23-5.25-2.17-7.53-3.47-.35-.2-.74-1.46-2.02-1.05-.02-.59-.13-.53.41-.56.84-.04,1.68.03,2.52,0,.54-.02,1.12.29.96-.56.46,0,.93.01,1.39,0Z"/>
  <path class="cls-3" d="M116.84,62.38c.18.09.18.19,0,.28v-.28Z"/>
  <path class="cls-5" d="M151.23,99.7l-1.11,1.11c.03-.22,0-.43-.21-.54-6.41-3.58-12.81-5.57-18.01-11.18-1.58-1.71-2.7-4.27-4.9-5.27.14-.56.74-.63,1.21-.56,1.16,1.02,2.34,2.07,3.52,3.07,2.54,2.15,5.1,4.73,7.82,6.51,2.46,1.61,5.41,2.79,7.86,4.41.36.24.48.78.65.8.38.04.91-.41,1.32-.28.19.06,1.37,1.62,1.85,1.92Z"/>
  <path class="cls-5" d="M151.51,99.7c1.28.75,1.7.54,2.72.92.28.1,2.36,2.32,3.69,2.84.96.38,1.86-.05,2.37,1.25l.41-.55c-.35,1.8.8.84,1.12,1.11-.34.57-.04,1.07,0,1.67,1.09-.46.84-.14,1.11.83-2.03-.99-4.97-2.64-6.8-3.93-.34-.24-.42-.72-.48-.76-.08-.05-.52.26-.87.18-.42-.09-4-2.05-4.11-2.32-.25-.59.97-.38.83-1.25Z"/>
  <path class="cls-2" d="M193.57,89.67c.07.08.06.65.27.92.37.46,1.04.78,1.27,1.58.8,2.73-1.36,4.9-3.76,5.73-.54.19-1.05.03-1.49.14-.21.05-.18.45-.41.53-1.83.64-3.54-.1-5.36-.26v-.56c3.23.42,5.7.54,8.55-1.34,1.48-.98,2.26-2.8,1.16-4.34-.24-.35-.71-.4-.77-.49-.18-.26.82-.88-.67-1.68s-4.26-.94-3.81,1.45c.48-.01.35-.73.83-.98,2.07-1.1,3.93,1.96,2.48,4.15-.6.91-.57-.01-.8-.11.77-.96.38-1.69.28-2.78-.05-.06-1.15.58-1.51.58-.31,0,.05-.7-.43-.58-.48,1.26-.36,1.96,1.11,1.39-.11.92-.58,1.84-1.51,1.09-.14-.11-1.1-1.01-1.14-1.08-.36-.68-.19-2.35.14-3.07-1.69-.2-1.08.06-1.49.73-.09.15-.47.05-.49.52-.02.41.16,1.15.31,1.54h-.56c-.02-.07,0-.18,0-.28-.03-.27.02-.56,0-.84.19-.44-.01-.92.55-1.54.52-.58,1.89-.89,1.96-.97.75-.89-1.9-.17-.83-1.11.9.1,5.71,1.23,6.13,1.67Z"/>
  <path class="cls-2" d="M174.91,89.12l4.64,3.57c3.55,2.01,6.63,2.7,10.68,2l.83.55c-1.63.63-3.41.69-5.15.56s-2.1-.45-3.41-1.05c-2.91-1.31-6.1-2.72-7.59-5.64Z"/>
  <path class="cls-8" d="M184.1,97.75v.56c-.55-.05-1.12.03-1.67,0l-.28-.84c.75.21,1.24.19,1.95.28Z"/>
  <path class="cls-3" d="M147.06,76.03c.09,1.17-.71.33-1.11-.28l1.11.28Z"/>
  <path class="cls-3" d="M145.94,75.19c.19.1-.16.47-.55.27-.19-.1.16-.47.55-.27Z"/>
  <circle class="cls-3" cx="178.26" cy="96.35" r=".34"/>
  <path class="cls-3" d="M179.5,96.63c.18.09.18.19,0,.28v-.28Z"/>
  <path class="cls-8" d="M81.05,57.93c-.1.19-.47-.16-.27-.55.1-.19.47.16.27.55Z"/>
  <path class="cls-9" d="M82.02,62.38c.18.09.18.19,0,.28v-.28Z"/>
  <path class="cls-3" d="M110.29,67.12c-.1.19-.47-.16-.27-.55.1-.19.47.16.27.55Z"/>
  <path class="cls-5" d="M58.96,60.07c-.92,1.02-2.74.95-3.68,1.75-1.43-1.43-.34-.99.67-1.56.61-.34,1.95-1.14,2.15-1.77.17-.54-.08-.94.01-1.41.15-.77,1.05-1.24,1.08-1.91.02-.46-.31-.71-.31-1.01,0-.18.33-.38.3-.71-.03-.41-.85-3.59-.28-3.61,1.27,2.39,1.98,8.1.06,10.22Z"/>
  <path class="cls-2" d="M221.7,159.29c.19.1-.16.47-.55.27-.19-.1.16-.47.55-.27Z"/>
  <path class="cls-5" d="M186.19,115.01c.18.09.18.19,0,.28v-.28Z"/>
  <path class="cls-8" d="M149.84,62.66l-.42.83c-.53-.18-1.44-1.8-1.6-1.89-.27-.15-.69.04-.97-.13-.08-.05-1.27-1.29-1.38-1.32-1.36-.3-3.34.34-4.68,0-.81-.2-.12-.23-.14-.85.3,0,.85-.32,1.53-.3,3.67.11,5.07,1.48,7.66,3.64Z"/>
  <path class="cls-2" d="M112.24,83.82c.67-.23.46.51.7.56l.42-.56c.32.53.85.97,1.12,1.52.4.81,2.19,5.18,1.66,5.72-1.36-.14-2.67-.7-4.04-.83-.58-.06-3.08.1-3.2,0-.41-.35,1.03-1.98,1.67-1.67,0,.42-.21.76-.14,1.11.59-.64,1.07.15,1.45.2.31.04.65-.17.99-.11.68.11,1.4.39,2.05.47.45.05.44.05.41-.41-.03-.49-1.76-4.71-1.96-4.87-.69-.52-.62.91-.73,1.11-.38.69-1.23,2.14-2.05,2.23,0-.02-.29-.15-.24-.36.07-.28.92-1.09,1.19-1.61.33-.65.57-1.74.72-2.48Z"/>
  <path class="cls-3" d="M113.36,83.82l-.42.56c-.24-.05-.02-.79-.7-.56.28-1.3-.06-.65-.28-1.11-.03-.07.03-.2,0-.28.03-.16-.04-.52,0-.56.69-.56,1.23,1.69,1.39,1.95Z"/>
  <path class="cls-5" d="M200.53,96.63c.27.02.56-.03.84,0,.34.04,1.74.42,2.06.59,1.52.8,2.14,2.45,2.37,4.04.22,1.47-.11,1.22.59,2.61.02.05,0,.18,0,.28-.33.11-.71.38-.28.56-.02.09.02.19,0,.28-.18,0-.45,0-.57.12-.27.28-.86,2.33,0,1.83-.07.13-.22.19-.28.28-.11.16-.62.78-.83.83-.48-1.28-.75-3.67-2.23-4.18-.02-.09.02-.19,0-.28,0-.04.26-.42,0-.91-.18-.33-.54-.18-.56-.21-.71-.93-.16-.64-1.39-1.39-.54-1.13-1.02-1.94-2.25-2.63-.81-.45-1.65-.52-2.49-.85.5-.54,1.45-.82,2.17-.91.58-.08,2.23-.1,2.85-.06Z"/>
  <path class="cls-8" d="M201.09,95.8c.19.46-.25.63-.56.84-.61-.04-2.26-.02-2.85.06-.71.1-1.67.38-2.17.91.83.33,1.68.4,2.49.85,1.23.69,1.71,1.5,2.25,2.63,1.24.75.69.46,1.39,1.39.02.02.38-.12.56.21.26.48,0,.86,0,.91-1.05.25-.5-1.06-.56-1.11-.46-.47-.72.02-1.39-1.39-1.5-.91-2.35-2.05-4.13-2.7-.32-.12-1.69-.56-1.86-.54-.33.03-.77.7-1.67.74-.45.02-.69-.24-.42-.56.13-.15,3.11-1.46,3.54-1.61,1.88-.68,3.4-.68,5.37-.62Z"/>
  <path class="cls-8" d="M203.32,96.63c2.75.93,4.01,4.6,3.06,7.24-.7-1.39-.37-1.14-.59-2.61-.23-1.59-.85-3.23-2.37-4.04-.32-.17-1.72-.55-2.06-.59.37-.56,1.41-.18,1.95,0Z"/>
  <path class="cls-2" d="M202.2,103.87c1.48.51,1.75,2.89,2.23,4.18.21-.05.72-.68.83-.83.1.76-.1,1.5-.49,2.15-.18.3.02.48-.62.36.16-2.08-1.61-4.09-1.95-5.85Z"/>
  <path class="cls-2" d="M206.1,104.99c-.14.59-.27,1.41-.56,1.95-.87.5-.28-1.55,0-1.83.12-.12.39-.11.57-.12Z"/>
  <path class="cls-2" d="M206.1,104.71c-.43-.18-.05-.45.28-.56,0,.53-.27.53-.28.56Z"/>
  <path class="cls-3" d="M186.33,92.74c.06.15.97.47.55,1.39h-.27c.02-.22-.15-.39-.28-.56-.15-.2-.5-.65-.56-.84h.56Z"/>
  <path class="cls-3" d="M185.77,92.46c-1.38-.03-.06-.7,0-.84.02.28-.03.56,0,.84Z"/>
  <path class="cls-5" d="M110.57,88.28c.82-.09,1.66-1.54,2.05-2.23.11-.21.04-1.63.73-1.11.21.16,1.94,4.38,1.96,4.87.03.46.04.46-.41.41-.65-.08-1.37-.36-2.05-.47-.33-.05-.67.16-.99.11-.38-.05-.85-.83-1.45-.2-.07-.34.15-.68.14-1.11,0-.09,0-.19,0-.28Z"/>
</svg>