<?xml version="1.0" encoding="UTF-8"?>
<svg id="Layer_1" data-name="Layer 1" xmlns="http://www.w3.org/2000/svg" xmlns:xlink="http://www.w3.org/1999/xlink" viewBox="0 0 462.1 225.73">
  <defs>
    <style>
      .cls-1 {
        fill: #c75027;
        font-family: LeagueSpartan-Bold, 'League Spartan';
        font-size: 110px;
        font-weight: 700;
      }

      .cls-2 {
        fill: #c74f1b;
      }

      .cls-3 {
        fill: none;
      }

      .cls-4 {
        clip-path: url(#clippath-1);
      }

      .cls-5 {
        letter-spacing: -.01em;
      }

      .cls-6 {
        letter-spacing: .15em;
      }

      .cls-7 {
        clip-path: url(#clippath);
      }

      .cls-8 {
        fill: #f8ba75;
        font-family: Telegraf-Regular, Telegraf;
        font-size: 29.84px;
      }
    </style>
    <clipPath id="clippath">
      <rect class="cls-3" width="204.27" height="225.73"/>
    </clipPath>
    <clipPath id="clippath-1">
      <rect class="cls-3" x="207.9" y="173.9" width="246.33" height="29.93"/>
    </clipPath>
  </defs>
  <g class="cls-7">
    <path class="cls-2" d="M157.21,18.11c-1.26-1.26-.68-2.84,4.23-11.56,3.26-5.79,3.84-6.5,5.07-6.19,1.51.38,1.56,1.63.18,4.33-.66,1.28-2.34,4.59-3.73,7.36-3.3,6.55-4.25,7.55-5.74,6.06M45.11,18.05c-.4-.33-2.01-3.11-3.58-6.17-1.57-3.06-3.31-6.45-3.87-7.55-1.19-2.32-1.1-3.61.3-3.96,1.24-.31,1.89.4,4.45,4.87,3.49,6.09,5.48,10.17,5.51,11.3.05,1.95-1.37,2.71-2.82,1.5ZM185.03,42.67c-.79-.88-.46-1.88.96-2.91.61-.44,4.55-2.48,8.77-4.54,6.83-3.34,7.76-3.7,8.6-3.38.66.25.95.61.95,1.18,0,.64-.57,1.18-2.63,2.48-4.33,2.75-14.17,7.84-15.14,7.84-.5,0-1.18-.3-1.51-.67M11.26,40.23c-3.2-1.71-6.54-3.58-7.41-4.17-.87-.59-2.04-1.31-2.61-1.6-1.34-.69-1.42-2.11-.16-2.6,1.11-.42.75-.57,9.88,3.95,7.72,3.82,9.07,4.68,9.07,5.8,0,.81-1.12,1.73-2.11,1.72-.46,0-3.46-1.4-6.67-3.11M88.79,47.16c1.14-.43,2.67-.7,4.06-.7,1.23,0,2.32-.14,2.42-.31.21-.35-1.46-2.65-4.28-5.9-2.29-2.64-6.53-6.09-9.24-7.53l-1.96-1.04-.85.97c-1.11,1.28-1.07,2.27.19,4.64.68,1.27,1.04,2.46,1.04,3.4,0,1.72.36,2.23,2.43,3.51.86.53,2.15,1.56,2.88,2.3s1.35,1.33,1.39,1.33.9-.31,1.9-.69M172.58,84.45c2.04-4.79,3.03-10.63,2.99-17.64-.03-4.83-.15-6.02-.95-9.04-2.23-8.48-6.98-15.27-14.65-20.95-8.59-6.36-18.85-9.18-27.64-7.58-4.25.77-6.38,1.72-7.06,3.17-1,2.1-.8,2.76,1.32,4.33,2.38,1.76,2.88,2.52,3.72,5.66.37,1.38.93,2.79,1.24,3.14.32.35,1.68,1.14,3.03,1.77,3.65,1.69,4.34,3.23,3.06,6.83-.57,1.62-.57,1.7.09,2.43,1.23,1.36,2.41,1.73,5.62,1.73,2.51,0,3.39.16,4.88.85,3.64,1.7,4.47,3.48,3.24,6.97-.4,1.13-.72,2.37-.72,2.76,0,.39.63,1.63,1.39,2.75,2.53,3.72,1.73,5.71-3.47,8.65-2.93,1.66-4.01,3.01-3.13,3.89.47.47.94.43,4.34-.35,6.98-1.6,6.9-1.56,9.12-4.79,1.95-2.84,4.37-3.01,6.91-.46,1.36,1.36,1.65,1.99,2.36,5.17.15.68.63,1.14,1.69,1.62.81.37,1.57.69,1.69.71.12.02.53-.71.92-1.62ZM45.89,104.44c.12-.43.21-1.33.22-2,.01-1.52,1.06-3.28,2.34-3.95.54-.28,1.89-.75,3.01-1.04,2.49-.65,3.69-1.68,3.69-3.18,0-1.68-1.51-5.7-2.91-7.77-2.84-4.19-1.19-9.33,3.7-11.52,2.5-1.12,9.3-5.73,9.3-6.3,0-.31-.76-1.27-1.68-2.14-1.38-1.29-2.06-1.65-3.74-1.97-4.98-.96-5.41-1.13-6.91-2.59-1.1-1.06-1.68-2.04-2.25-3.78-.83-2.52-2.03-4.01-4.14-5.13-1.79-.95-2.54-1.65-4.12-3.82-1.79-2.46-2.22-2.81-3.87-3.03-2.47-.33-3.72.37-5.12,2.88-3.17,5.67-4.38,10.61-4.39,17.88-.01,8.78,1.65,15.6,5.65,23.23,3.16,6.01,9.49,15.02,10.57,15.02.25,0,.56-.35.67-.78M138.41,124.92c7.08-5.08,15.83-13.05,15.83-14.41,0-1.87-.92-2.79-3.57-3.59-1.38-.41-2.98-.99-3.56-1.28-1.92-.97-9.02-6.56-11.38-8.96-2.08-2.12-2.48-2.38-3.61-2.34-1.73.05-2.99,1.08-3.51,2.87-.24.82-.63,1.73-.87,2.02-.85,1.03-3.38,1.85-6.35,2.06-2.52.18-3.25.09-5.1-.58-2.15-.79-2.17-.79-5.07-.17-2.99.63-4.73,1.56-4.09,2.19.19.19,1.78.58,3.54.88,4.34.73,5.26,1.19,7.43,3.65,1.4,1.6,2.28,2.26,3.5,2.67,1.31.43,2.2,1.16,4.48,3.66,3.07,3.36,3.52,4.34,3.14,6.94-.29,2.01.11,3.18,1.35,3.92.55.33,1.65,1.14,2.45,1.8,1.68,1.4,1.52,1.44,5.39-1.34M81.17,133.28c-.77-1.46-1.75-2.49-3.54-3.72-1.06-.73-2.07-1.77-2.44-2.53-.57-1.16-.59-1.56-.23-3.71.4-2.36.34-3-.42-5-.38-.98-.39-.98-2.69-.75-1.64.16-2.93.07-4.43-.32-1.17-.3-2.3-.55-2.52-.55-.66,0-3.85,3.18-3.85,3.85,0,.96,9.11,7.48,16.83,12.04,3.16,1.87,4,2.05,3.29.7M96.52,91.02c0-.59-1.95-3.86-5.16-8.67-.68-1.01-1.76-2.17-2.41-2.57-2.2-1.36-5.64-.61-5.64,1.22,0,1.06,1.32,2.25,2.99,2.71,2.85.77,3.57,1.32,4.64,3.56,1.34,2.81,3.03,4.35,4.8,4.38.53,0,.78-.2.78-.63M93.51,94.92c-2.06-.73-4.4-2.92-5.27-4.93-.9-2.08-1.13-2.27-3.58-2.98-3.18-.91-5.55-4.18-5.03-6.96.42-2.25,3.76-4.52,6.64-4.52,3.44,0,6.4,2.34,10.13,8.01,3.03,4.6,3.93,6.45,3.94,8.04.01,1.38-.8,3.05-1.71,3.54-.93.5-3.4.4-5.12-.21M103.49,145.71c.6-.72,3.59-2.44,12.33-7.1,7.8-4.16,14.6-8.14,14.99-8.77.22-.36-.41-1-3.35-3.4-1.48-1.21-2.1-3.15-1.84-5.8.19-1.96.13-2.22-.64-2.96-.46-.44-1.37-1.49-2.02-2.33-.82-1.06-1.83-1.81-3.29-2.47-1.52-.68-2.57-1.49-3.75-2.86-1.86-2.17-2.36-2.42-6.7-3.23-3.48-.65-4.74-1.18-5.54-2.33-1.23-1.75-.1-4.33,2.52-5.78,1.69-.93,6.24-2.13,8.11-2.14.7,0,2.15.33,3.22.74,1.75.67,2.18.71,4.23.37,2.7-.45,3.03-.67,3.57-2.48.86-2.87,4.74-4.91,8.32-4.37,1.45.22,1.92.54,4.07,2.77,3.59,3.72,10.48,8.73,12.97,9.41,3.24.89,4.57,1.6,5.85,3.09l1.2,1.41,1.4-1.56c3.44-3.84,10.75-14.51,10.75-15.68,0-.16-.86-.84-1.92-1.51-2.21-1.41-3.13-2.74-3.66-5.27-.21-.99-.69-2.09-1.09-2.44-.71-.64-.73-.63-1.63.57-2.55,3.39-3.41,3.85-10.13,5.36-5.32,1.2-6.97,1.19-8.37-.07-.82-.73-1.13-1.35-1.26-2.55-.32-2.89,1.52-5.24,5.83-7.44,2.61-1.33,2.7-1.61,1.2-3.79-1.63-2.36-1.91-4.3-1.05-7.15.34-1.12.53-2.27.41-2.57-.41-1.08-2.23-1.62-5.71-1.7-2.77-.07-3.7-.23-5.07-.91-3.22-1.59-4.45-4.53-3.17-7.6.29-.7.46-1.47.36-1.72-.09-.24-1.15-.9-2.36-1.45-3.39-1.56-4.78-3.42-5.33-7.16-.27-1.8-.45-2.03-3.57-4.64-1.31-1.09-1.84-1.81-2.01-2.7-.12-.67-.35-1.29-.51-1.39-.38-.24-4.18,2.95-6.75,5.66-3.47,3.66-6.02,7.35-8.41,12.16-3.1,6.26-3.62,6.37-6.14,1.31l-1.64-3.29h-3.44c-2.94,0-3.72.13-5.3.87-2.91,1.35-3.52,1.22-5.99-1.33-1.17-1.21-2.76-2.55-3.52-2.98-1.95-1.09-2.64-2.19-2.95-4.71-.16-1.33-.63-2.8-1.18-3.74-1.11-1.89-1.18-3.93-.21-5.83.38-.75.7-1.52.7-1.71s-.9-.62-2-.96c-3.22-.98-10.76-.81-15.1.34-6.62,1.75-13.1,5.34-18.19,10.06-2.36,2.2-2.7,3.05-1.19,3.05.96,0,3.12,1.16,4,2.14.4.45,1.23,1.56,1.85,2.48.73,1.08,1.78,2.04,3.01,2.73,2.59,1.46,4.47,3.7,5.36,6.38.4,1.21,1,2.43,1.32,2.72.65.58,2.45,1.1,5.1,1.46,2.63.36,4.72,1.62,7.26,4.37,2.71,2.92,3,4.15,1.35,5.68-1.24,1.15-8.48,5.79-11.16,7.14-2.49,1.26-3.18,2.13-3.18,4.05,0,1.06.29,1.83,1.11,2.96,1.12,1.55,3.41,7.92,3.41,9.49,0,1.27-.62,2.69-1.67,3.8-1.21,1.27-2.39,1.88-4.6,2.35-2.41.52-3.11,1.27-3.11,3.35,0,1.04-.26,2.08-.69,2.79-.38.63-.69,1.38-.69,1.67,0,.63,9.26,9.89,9.89,9.89.24,0,1.14-.91,2-2.02,2.06-2.65,3.55-3.38,6.16-3,1.07.16,3.61.29,5.64.3,3.19.02,3.8.12,4.47.72,1.86,1.67,2.87,5.38,2.38,8.74-.29,2.02-.28,2.04.83,2.9,3.82,2.96,5.88,6.17,5.74,8.93l-.09,1.66,6.94,3.75c3.82,2.06,7.49,4.21,8.17,4.77,1.37,1.14,2.48,1.33,3.15.52h0ZM99.94,150.16c-.51-.33-1.6-1.18-2.43-1.88-.83-.7-4.64-2.91-8.46-4.91-19.68-10.3-29.9-17.49-41.23-29-14.32-14.54-20.67-25.33-22.98-39.06-.71-4.21-.53-13.12.34-16.92,1.28-5.62,3.38-10.12,7.02-15.02,7.18-9.67,18-16.22,29.61-17.93,4.37-.64,6.27-.67,9.91-.17,7.4,1.03,13.98,4.43,19.79,10.22,3.71,3.7,6.35,7.15,8.84,11.57,1,1.77,1.96,3.12,2.13,3.02.18-.11.85-1.24,1.49-2.52,2.77-5.47,8.97-12.74,13.8-16.16,5.07-3.59,10.17-5.54,16.28-6.21,11.1-1.23,24.66,3.91,33.57,12.73,5.14,5.09,8.83,10.85,10.71,16.71,1.56,4.88,1.79,6.61,1.77,13.21-.03,6.74-.62,10.67-2.44,16.17-2.11,6.37-7.26,14.97-13.29,22.16-4.07,4.85-13.59,14.31-17.76,17.63-9.18,7.31-18.61,13.14-34.91,21.58-1.48.76-3.43,1.98-4.33,2.69-2.87,2.27-3.67,2.7-5.12,2.69-.77,0-1.81-.27-2.32-.61ZM166.66,132.81c.62-.11,1.26-.38,1.44-.59.17-.22.5-2.74.72-5.61.23-2.87.71-7.62,1.08-10.56.37-2.94.58-5.48.48-5.65-.63-1.02-2.01.32-3.41,3.29-1.1,2.35-1.52,4.59-1.95,10.48-.19,2.68-.58,5.73-.85,6.77-.56,2.16-.45,2.59.61,2.28.41-.12,1.25-.31,1.87-.42h0ZM139.22,221.04c.26-.16.6-1.43.78-2.86.46-3.69,1.15-5.79,2.69-8.16,1.72-2.66,3.51-4.17,8.06-6.83,7.29-4.26,13.99-9.76,18.64-15.3,6.34-7.56,9.77-14.32,13.16-25.99,2.22-7.64,3.13-16.42,2.61-25.07-.17-2.75-.47-8.68-.67-13.17-.39-8.69-1.44-18.68-2.3-22.01-1.26-4.89-2.43-5.62-4.31-2.69-2.28,3.55-2.89,5.99-4.49,17.91-1.82,13.55-2,15.11-1.8,15.38.11.14.81.57,1.56.96,2.16,1.1,2.81,2.26,2.79,4.98-.02,2.07-.2,2.68-1.69,5.62-2.38,4.68-6.18,11.06-8.23,13.82-.96,1.29-4.93,5.48-8.82,9.3-4.27,4.2-7.59,7.78-8.39,9.04-1.8,2.84-2.56,3.65-3.43,3.65-1.89,0-2.07-2.06-.44-4.95,1.74-3.08,4.84-6.55,10.1-11.31,5.28-4.78,7.46-7.45,11.44-13.98,4.92-8.1,6.26-11.44,5.01-12.48-1.06-.88-4.68-.34-7.73,1.17-2.3,1.13-3.51,2.1-7.6,6.1-5.61,5.47-7.26,6.78-14.12,11.16-6.67,4.26-10.15,6.99-14.75,11.6-7.57,7.57-12.4,15.36-14.38,23.17-1.11,4.39-1.6,12.2-1.12,17.8.22,2.53.39,6.18.39,8.12v3.52s4.95.22,4.95.22c5.63.26,19.03,1.22,19.56,1.41.66.24,2.09.17,2.55-.12ZM135.29,225.17c-8.63-.62-22.33-1.76-23.47-1.96-1.47-.26-2.04-.68-2.52-1.85-.44-1.08-.88-8.04-1.16-18.44-.19-7.1-.14-8.15.53-11.4,1.52-7.38,4.06-12.85,9.13-19.71,5.61-7.59,10.79-12.27,21.14-19.13,8.07-5.35,9.9-6.81,14.06-11.2,1.49-1.57,3.45-3.43,4.36-4.12,1.54-1.17,1.73-1.49,2.62-4.44.8-2.63,1.02-4.19,1.26-9.09.4-7.89,1.17-10.64,4.2-15.07,1.06-1.54,3.17-2.81,4.7-2.83.86,0,1.03-.32,1.99-3.66,2.22-7.67,6.74-11.24,10.7-8.44,3.18,2.25,4.79,10.12,5.46,26.82.2,4.81.53,11.55.74,14.99.58,9.47-.1,17.13-2.28,25.39-2.36,8.97-5.8,17.53-8.9,22.12-6.77,10.04-14.68,17.41-25.5,23.77-6.16,3.62-7.46,5.56-8.46,12.56-.87,6.09-1.09,6.24-8.62,5.7ZM40.89,133.23c0-.08-.23-1.15-.51-2.36-.28-1.22-.68-4.47-.89-7.24-.21-2.76-.53-5.73-.72-6.58-.91-4.08-3.72-8.12-4.62-6.66-.1.17.12,2.63.49,5.48.37,2.85.87,7.56,1.1,10.47.23,2.91.53,5.47.65,5.67.33.53,4.51,1.66,4.51,1.22M75.49,220.51c3.63-.28,8.9-.62,11.7-.74l5.09-.22.2-4.75c.11-2.61.3-7.11.43-10.01.56-13.24-2.28-21.96-10.52-32.26-3.2-3.99-8.59-9.27-12.46-12.18-1.42-1.07-4.59-3.22-7.03-4.77-6.87-4.36-9.29-6.27-14.28-11.28-4.05-4.07-4.98-4.81-7.59-6.11-2.33-1.15-3.46-1.51-5.21-1.62-3.72-.24-4.07.73-1.94,5.28,1.67,3.56,6.47,11.43,8.98,14.72,1.05,1.38,4.03,4.42,6.63,6.77,6.74,6.09,10.23,10.39,11.22,13.83.6,2.08-1.58,3.29-2.99,1.67-.37-.43-1.44-1.93-2.37-3.32-1.13-1.7-3.77-4.53-7.92-8.52-3.43-3.29-7.13-7.15-8.24-8.58-2.41-3.14-7.09-10.86-9.07-14.99-2.58-5.38-2.12-8.56,1.5-10.35,1.37-.68,1.64-.97,1.5-1.57-.1-.4-.35-2.38-.57-4.38-.69-6.45-2.45-18.51-3.16-21.56-.71-3.04-2.82-7.46-3.89-8.14-1.99-1.25-3.48,3.3-4.57,13.89-1.32,12.82-1.85,35.78-.96,41.53,1.1,7.12,4.15,16.6,7.53,23.47,5.16,10.47,14.82,20.3,26.49,26.95,6.92,3.95,9.6,7.65,10.55,14.62.22,1.6.48,3.05.59,3.22.11.17.99.22,1.97.11.98-.11,4.75-.44,8.38-.72ZM62.58,224.85c-1.22-.74-1.34-1.08-1.85-5.28-.89-7.25-2.22-9.06-9.77-13.42-7.49-4.32-16.08-11.89-21.13-18.62-5.46-7.28-7.78-12.19-11.34-24.01-2.47-8.19-3.52-17.45-2.96-26.27.17-2.8.48-9.39.67-14.65.57-15.46,1.42-21.69,3.55-26,1-2.02,1.39-2.45,2.83-3.17,1.5-.74,1.82-.79,3.05-.42,2.97.89,5,3.66,6.76,9.21l1.09,3.45,1.65.42c2.22.56,3.26,1.4,4.79,3.85,2.37,3.8,3.37,8.09,3.41,14.57.02,3.08.89,8,1.8,10.12.25.59,3.29,3.8,6.74,7.13,5.43,5.23,6.98,6.5,11.41,9.35,8.09,5.21,12.9,8.94,17.08,13.26,7.98,8.22,12.73,15.99,15.01,24.53.85,3.21.91,3.92.94,11.76.04,9.33-.37,18.15-.91,19.99-.74,2.49-.91,2.55-8.62,3.14-2.58.2-7.51.58-10.95.85-11.88.94-12.05.94-13.25.21Z"/>
  </g>
  <g class="cls-4">
    <text class="cls-8" transform="translate(207.98 196.36)"><tspan x="0" y="0">O</tspan></text>
    <text class="cls-8" transform="translate(235.11 196.36)"><tspan class="cls-6" x="0" y="0">f</tspan><tspan x="15.49" y="0"> </tspan></text>
    <text class="cls-8" transform="translate(261.79 196.36)"><tspan x="0" y="0">O</tspan></text>
    <text class="cls-8" transform="translate(289.07 196.36)"><tspan x="0" y="0">n</tspan></text>
    <text class="cls-8" transform="translate(310.62 196.36)"><tspan class="cls-6" x="0" y="0">e</tspan><tspan x="21.67" y="0"> </tspan></text>
    <text class="cls-8" transform="translate(343.48 196.36)"><tspan x="0" y="0">H</tspan></text>
    <text class="cls-8" transform="translate(368.31 196.36)"><tspan x="0" y="0">e</tspan></text>
    <text class="cls-8" transform="translate(389.65 196.36)"><tspan x="0" y="0">a</tspan></text>
    <text class="cls-8" transform="translate(410.36 196.36)"><tspan x="0" y="0">r</tspan></text>
    <text class="cls-8" transform="translate(425.61 196.36)"><tspan x="0" y="0">t</tspan></text>
    <text class="cls-8" transform="translate(441.85 196.36)"><tspan x="0" y="0"> </tspan></text>
  </g>
  <text class="cls-1" transform="translate(207.9 152.88)"><tspan x="0" y="0">A</tspan></text>
  <text class="cls-1" transform="translate(301.84 152.88)"><tspan class="cls-5" x="0" y="0">R</tspan><tspan x="77.44" y="0">C</tspan></text>
</svg>