<?xml version="1.0" encoding="UTF-8"?>
<svg id="Layer_2" xmlns="http://www.w3.org/2000/svg" version="1.1" viewBox="0 0 44.81 39.2">
  <!-- Generator: Adobe Illustrator 29.8.3, SVG Export Plug-In . SVG Version: 2.1.1 Build 3)  -->
  <defs>
    <style>
      .st0 {
        fill: none;
        stroke: #272f40;
        stroke-miterlimit: 10;
        stroke-width: 2px;
      }
    </style>
  </defs>
  <path class="st0" d="M27.74,2.43c6.86,6.46-6.56,17.86-12.95,17.2-.22-.09-.4-.27-.57-.51-1.72-3.08-5.51-5.01-7.35-7.97C1.79,1.66,11.66-2.51,17.13,4.5c1.03,1.03,2.04-.53,3.06-1.09,2.12-1.69,5.24-3.67,7.43-1.1l.12.11h0Z"/>
  <path class="st0" d="M14.54,27.73c4.17,3.93-3.99,10.85-7.87,10.45-.13-.05-.24-.16-.35-.31-1.05-1.87-3.35-3.04-4.47-4.84-3.09-5.77,2.91-8.3,6.24-4.04.63.63,1.24-.32,1.86-.66,1.29-1.03,3.18-2.23,4.52-.67l.07.07h0Z"/>
  <path class="st0" d="M42.66,18.17c4.17,3.93-3.99,10.85-7.87,10.45-.13-.05-.24-.16-.35-.31-1.05-1.87-3.35-3.04-4.47-4.84-3.09-5.77,2.91-8.3,6.24-4.04.63.63,1.24-.32,1.86-.66,1.29-1.03,3.18-2.23,4.52-.67l.07.07h0Z"/>
</svg>