<?xml version="1.0" encoding="UTF-8"?>
<svg id="Layer_2" xmlns="http://www.w3.org/2000/svg" version="1.1" viewBox="0 0 167.42 142.01">
  <!-- Generator: Adobe Illustrator 29.8.3, SVG Export Plug-In . SVG Version: 2.1.1 Build 3)  -->
  <defs>
    <style>
      .st0 {
        fill: #d26db3;
      }

      .st1 {
        fill: #eac000;
      }

      .st2 {
        fill: #eeaa05;
      }
    </style>
  </defs>
  <path class="st2" d="M55.72,5.55c.18.47.38,1.38.56,1.95-.61.16-.16.72.28.84.62,2.11.99,4.31,1.68,6.4.12.08,2.41-.57,2.77-.69,1.15-.38,4.41-2.43,5.16-1.53.21.26.97,3.26,1.12,3.89,1.59,6.41,2.91,11.81,5.01,18.11.79,2.36,1.32,4.88,2.08,7.25,1.18.2-.15-1.43.55-1.95.12.06.51-.07.56,0,.17.22-.12,4.69.28,5.57l3.48-.28-.14-.83c.94-.22.4.6.56.83.04.06,1.13-.31,1.53-.31,1.12,0,1.85.06,3.07.02.48-.02,1.65.64,1.75-.12.02-.16-.28-.66-.24-1.11.07-.68.24-1.62.71-2.1l.41,1.11c-.32.73-.91,1.65-.15,2.26,1.19-.07,2.25,1.34,2.66-.31-.01.16.18,1.06.12,1.4.49.38,1.1.53,1.57.95.52.47.47,1.45,1.38.86.36-.23,1.71-2.71,2.23-3.34,4.78-5.86,10.85-10.85,15.73-16.57,3.13-3.66,5.65-7.89,8.77-11.5.22-.26.53-.18.55-.21.36-.58-.41-.57-.69-.82-2.26-2.08-2.09-2.37-4.8-3.84-.63-.34-1.84-1.46-2.44-1.46l-3.19,5.18-.86.12c.77-1.04,2.81-5.34,3.63-5.71.58-.26.79-.1,1.31.08.85.29,4.67,2.86,4.95,2.87.79.01,2.18-3.04,2.68-3.74s1.28-.29,1.83.19c2.84,2.45,6.09,4.34,8.98,6.77.57.48,1.1,1.06.86,1.86-2.19,2.11-4.63,3.97-6.84,6.03-6.04,5.62-13.25,12.24-18.52,18.53-.96,1.14-.96,1.41-1.7,2.48-.19.27-1.47.95-1.08,1.28.46.4,3.32-2.37,3.84-2.77,4.57-3.47,9.24-6.73,14.08-9.81,1.16-.74,2.61-2.54,4.1-2.06.49.16,2.72,2.85,3.02,3.4.38.7.21,1.66,1.05,2.02,1.66-.7,3.21-1.33,4.76-2.13.72-.37,1.23-1.41,2.31-.76.95.58,1.82,4.55,2.29,5.78s1.08,2.97,1.62,4.18c.1.22.43.23.45.28.55,1.05-.53.66-1.11,1.03-2.68,1.71-3.09,1.25-5.89,1.98-10.84,2.82-20.72,7.82-31.39,11.5l-1.07.74c.06.4.78.41.84,0,6.75.32,14.85-.43,21.72-.84.02.88.2.83-.69.84-5.87.07-11.71.63-17.54.84-1.13.04-7.02-.23-7.4.27l.72,4.76c.82.23,1.61.47,2.47.54,7.43.62,15.34-.27,22.77.62,2.94.35,5.96,1.39,8.98,1.61,6.07.44,12.14-.23,18.12-.57.76-.04,5.45-.13,5.66.06.13.11,0,.45.04.5l-20.05.84c-.07.43.52.33.84.41,1.41.36,2.87.48,4.24,1,.2.08.22.42.43.52.72.34,1.74.23,2.27,1.04.4.6-.39,4.54-.56,5.5-.21,1.2-.23,1.04-.25,2.39-.86.24-.6-1.1-.57-1.54.09-1.25,1.07-5.01.81-5.79-.09-.28-2.03-1.36-2.41-1.5-4.31-1.53-9.88-1.68-14.16-3.1-.43-.14-.38-.58-.5-.57-2.45.17-3.12-.16-5.31-.31-4.67-.33-9.49-.1-14.21-.27-2.85-.1-5.75-.37-8.61-.58-.22.04-.3,2.44-.99,1.68-.2-.22.23-3.29.2-4.03-.03-1.06-.42-4.4-.68-5.38-.13-.5-1.56-3.35-1.83-3.61-.16-.16-.62-.1-.89-.35-.53-.5-1.74-3.21-2.54-4.16-3.38-4.06-8.92-4.6-13.9-4.2-2.94.24-12.87,3.63-14.54,5.93-.21.28-.16.79-.39,1.15-.33.51-.93,1.17-1.42,1.92-2.63,4.08-5.25,8.6-4.69,13.7.14,1.26.63,3.02,1.09,3.98.59,1.25.64,1.86,1.25,2.86.72,1.18,2.08,3,2.4,4.16-1.14-.56-.72-.51-1.37-1.21-.62-.67-1.22,1.2-1.59,1.74-4.36,6.38-8.97,13.33-14.03,19.12-.63.72-4.1,3.44-3.3,4.56.06.09,1.6.63,2.01.91,1.22.82,2.16,2,3.06,2.91,2.44,2.48,2.49.33,3.95-1.84,4.34-6.45,8.72-13.9,13.51-20.4.39-.53,1.79-1.34,1.26-2.17-.23-.35-1.82-1.2-2.23-1.68-.34-.4-.28-.73-.43-1.1.77.18,1.88,1.63,2.61,2.12,4.02,2.68,8.05,3.24,12.85,3.02,1.32-.06,2.7-.58,3.93-.66.49-.03.94.31,1.33.27.18-.02.16-.44.38-.56.32-.17.91-.1,1.12-.36.18-.22-.03-.66.52-1,.43-.27,2.17-.75,2.61-.47l15.88,30.5,1.88-1.04c1.37-1.56,2.56-1.53,4.25-1.74-.67.74-.68,1.29-.4,2.21.9,2.96,3.71,6.15,5.41,8.74.2.31.78.01.56.74-2.78.39-4.49,2.87-6.7,4.3-.56.36-1.69,1-2.29,1.32-1.66.88-1.82.27-2.76-1.25-1.48-2.42-3.13-6.28-4.48-8.9-4.01-7.8-7.21-15.83-10.56-23.68-1.07-2.51-1.65-4.75-2.87-7.44-.2-.45-.37-1.6-.42-1.67-.04-.05-1.29.28-1.34.33-.51.44.12,3.28.13,4.04.02,3.52-.07,7.03-.18,10.53-.16,5.39,1.88,10.73,2.23,16.15.26,3.98-.18,7.81.46,11.85.06.4,1.26,2.41.1,2.21-.12-.56-.8-1.78-.99-2.77-1.28-6.71.43-14.35-2.1-21.05-.08-.64.68-.2.58-.68-.22.03-.45.03-.55-.2-.18-.44-.52-2.44-.56-3.01-.44-5.44.8-10.9-.29-16.28-1.17.25-6.32.13-6.84.82-.33.44-.15,9.6-.13,11.02.09,6.97.64,13.85.57,20.87-.03,2.62.16,5.42.01,8.09-.05.94-.91,5.91-.57,6.25,1.36-.27,2.8.28,4.04.3.8.02,1.48-.31,2.22-.31,1.57,0,3.44,0,4.88.57.11-.13-.19-2.95-.28-3.34.42.23.78.07.85.69.13,1.11.06,2.36.26,3.49-3.79-.92-7.67.26-11.42-.83.58,1.29-.02,2.42-.02,3.49,0,.79.33,1.64.22,2.5-.3,2.4-1.18-.13-1.66-.34-.31-.14-3.33-.07-3.99-.09-.49-.02-.96.24-1.38.24-.73,0-4.66-1.01-4.87-.78-.1,1.31.51,2.77-.95,3.35-2.84-1.09-5.87-1.79-8.62-3.11-1.53-.73-3.06-1.85-4.42-2.64-.3-.17-.99.04-1.26-.87-.8-2.7,1.37-6.01,2.31-8.44,4.16-10.8,7.47-21.94,11.55-32.73,1-2.64,2.8-5.49,3.63-8.21.27-.87.38-2.14-.95-1.97-.26.03-1.29,2.16-1.55,2.53-3,4.22-6.88,8.95-9.12,13.57-.81,1.67-1.96,2.66-2.47,4.26-.34,1.05-1.04.75-1.16.88-.11.12-1.23,2.33-1.5,2.83-.54.99-.74,2.41-1.76,3.25l-6.83-6.95c-1.32.56-5.36,7.34-6.02,7.47-.7.15-1.49-1.23-1.99-1.63-.66-.53-1.59-.91-2.2-1.63l-2.88-1.72c.16-.7-.88-2.07-.78-3.14.04-.39,1.06-2.24,1.32-2.58.82-1.03,3.33-3.11,4.46-4.17,5.96-5.63,13.05-10.81,18.51-17.14,1.27-1.48,4.31-3.03,5.61-4.7.21-.27.65-.86.4-1.13-.17-.19-3.6,2.17-4.11,2.43-5.02,2.58-9.31,4.39-14.25,7.47-6.6,4.13-12.87,8.41-18.54,13.5-1.76,1.58-3.47,3.22-5.3,4.72l-.15.43c1.63,3.45,3.95,6.67,5.6,10.16,2.46-.54,3.75-2.56,5.56-4.18.11.64-.21.85-.55,1.26-.61.75-2.33,2.74-3.1,3.05-.31.13-.64-.12-.76-.06-.06.03-.23.8-1.01.78-1.85-1.86-2.79-4.29-4.11-6.51-.99-1.67-2.54-3.17-3.01-5.21,1.05.67.78-.19,1.51-.86,3.18-2.87,6.43-6.27,9.84-8.88,5.9-4.52,13.74-9.29,20.12-12.82,3.43-1.9,6.6-3.37,10.08-5.1.53-.26,1.35-.49,1.62-1.03-1.41.28-3.11.53-4.46.97-.42.13-.77.56-1.23.72-3.51,1.2-7.12,2.25-10.46,3.89-.1,0-.21-.02-.28,0-.66-.01-.97-.19-.84.56-4.22.82-8.4,2.33-12.53,3.62-.12-.96-.03-.67.61-.91,4.6-1.72,9.5-2.94,14.15-4.52,4.82-1.64,9.46-3.84,14.49-4.87.07-.05-.23-1.6-.28-1.67-.09-.12-2.46.73-2.94.82-3.57.63-7.2,1.11-10.81,1.72-5.57.95-11.44,1.76-16.89,3.17-3.29.85-6.69,2.34-9.9,3.19-1.09.29-7.2,1.06-7.33,1.85-.04.25.24.56.25.79,0,.2-.79.14-.56.72-.2-.23-.73.53-.28-1.39-.48-.49-4.85,1.7-5.41,1.68-.15,0-.14-.4-.26-.47-.24-.15-.63-.06-.69-.13-.14-.14,0-1.06-.07-1.47-.42-2.55-1.05-6.25-2-8.31-.58-1.26-.83-3.96-.75-5.37.04-.71.27-2.8.83-3.06,1.57-.74,5.1-.25,6.9-.9,4.73-.69,9.59-.22,14.42-.34,6.48-.16,12.91-1.01,19.48-.84.78.02,1.66-.48,2.65,0l-9.81-3.69c-3.6-1.9-7.53-3.2-11.17-4.98-.56-.27-1.28-.48-1.57-1.07,2.73.32,9.32,3.86,12.34,5.06,5.42,2.15,10.01,3.46,15.52,5.09.99.29,7.51,2.68,7.79,2.38-.07-.97,0-1.73.27-2.66.5-1.72,2.9-6.79,3.9-8.29.17-.26.59-.25.79-.67.31-.64,0-1.66.06-1.73.1-.12.7-.11.93-.27.24-.18.18-.68.46-.99.36-.4,1.65-1.06,2.22-1.27-.38-1.3-1.29-2.28-2.22-3.2-3.87-3.8-8.33-6.7-12.26-10.29-4.09-3.75-7.69-7.78-11.4-11.72-2.46-2.61-5.55-4.92-8.1-7.49-.62-.63-2.15-2.33-2.55-3.03s-.1-.32.33-.74c.39.14,2.02,2.13,2.54,2.62,3.91,3.68,7.76,7.53,11.65,11.18.83.78,1.84,2.66,2.78,3.35.56.41,1.23.34,1.36.46.11.1.07.57.35.89,2.69,3.06,5.51,5.07,8.61,7.27,1.27.9,3.88,3.46,5.02,4.59.27.27.45.9.7,1.11.43.35.9.22,1.24.43s.45.95.86,1.37c.5.51,1.65.94,2.21,1.55.27-.32-1.81-4.13-1.95-4.87-.1-.5.33-.6.56-.42.47.37,1.92,4.74,2.39,5.58,2.49-.5,4.71-1.59,7.09-2.39-.03-.4-.43-.7-.57-1.1-1.3-3.7-2.35-6.28-3.29-10.08-.44-1.82-1.97-4.41-2.22-6.15-.15-1.05.53-1.18-.38-1.84l-3.02-13.54c-.27-.41-3.5,1.42-4.17,1.57-.75.17-.99-.47-1.32.37l-6.2,2.24c-.11-.58.27-.66.68-.85.87-.41,2.04-.91,2.94-1.1-1.09-2.31-1.33-4.88-1.97-7.3-.07-.26-.22.03-.41-1.08-.12-.73-1.07-1.57.43-1.36l-.03-.08ZM122.1,24.85c1.85-1.79,4.21-3.21,6.17-4.83.97-.8,1.72-2.19,2.92-2.93-1.38-1.69-3.37-2.57-5.1-3.81-.78-.56-4.35-3.48-4.83-3.53-.42-.04-2.61,2.98-2.6,3.45.01.51,1.8,1.66,2.12,2.63.34,1.04-1.78,2.28-2.31,2.89-1.98,2.27-3.48,4.96-5.39,7.28-5.73,6.96-12.69,13.19-18.2,20.09-.57.71-2.08,2.04-1.81,2.97.16.54,1.87,2.38,2.31,3.01.22.32.06,1.33.73.63s1.39-1.88,2.06-2.62c2.84-3.17,5.43-6.79,8.33-9.9,3.58-3.85,7.72-7,11.18-10.96.28-.33.83-.21.93-.32.17-.19-.08-.79.07-1.03.09-.15,1.14-.24,1.52-.58s1.26-1.82,1.89-2.43h0ZM126.85,39.08c.41-.38,1.38-.89,1.52-1.42.36-1.45-2.21-4.6-2.88-5.93-8.26,5.69-16.7,11.19-24.24,17.82-.24.21-.7.19-.88.36-.94.84-1.75,2.56-3.12,3.02-.23.31,1.42,4.71,1.78,5.25.32.47.87-.22,1.22-.45,3.03-2.04,6.3-5.21,9.43-7.35,5.29-3.63,12.54-7.02,17.18-11.29h-.01ZM140.11,44.53l-3.2-9.47c-.07-.12-.17-.23-.31-.26-.74-.21-5.19,2.73-6.42,2.87-8.16,7.18-18.11,12.16-26.65,18.88-.27.21-.67.42-.74.78,2.4-.63,4.62-2.1,6.88-3,9.65-3.85,19.75-6.31,29.54-9.74.28-.1.61-.07.9-.07h0ZM56.21,66.04c-.22-.18-4.75-1.31-5.4-1.43-7.94-1.36-16.52-.52-24.48-.03-.57.03-1.27.46-1.75.2-1.13-.63-1.85.03-3.26.08-2.46.09-5.32-.44-7.8-.4-3.72.06-7.65.99-11.38,1.28-.54.17-.47.75-.48,1.21-.06,3.41,1.61,8.73,2.23,12.28.08.45.02,2.86.46,2.91l18.55-5.67c5.53-1.24,11.48-2.22,16.5-3l17.13-3.34c-.03-.85.28-3.6-.32-4.09ZM59.61,75.44l-29.95,27.83c.08,1.78,1.92,2.65,2.94,3.76.27.3.33.87.67,1.28.69.83,2.42,1.38,3.08,2.48.22,0,2.01-3.18,2.38-3.68.5-.69,2.42-2.51,2.64-3,.18-.4-.26-.88.05-1.59.36-.82,2.1-2.54,2.71-3.44,2.11-3.11,3.32-5.07,5.77-7.89,3.9-4.48,6.03-8.61,9.47-13.08.25-.33,1.03-.71,1.05-.87.02-.2-.91-1.31-.81-1.82v.02ZM97.33,102.07c-1.05-2.03-1.74-4.26-2.75-6.31-1.61-3.26-3.89-6.52-5.27-9.77-.55-1.28-.2-3.3-2.36-1.51-.03.4,2.29,4.08,2.62,4.88,1.45,3.56,1.88,6.97,3.85,10.38,1.48,2.56,2.37,6.67,3.53,9.31,2.61,5.9,5.92,11.74,8.66,17.69.27.59,1.56,1.33.81.22,3.46-.61,5.43-3.47,8.1-5.42.77-1.04-.06-.88-.4-1.29-1.13-1.34-2.57-3.64-3.46-5.19-.58-1.01-1.41-2.3-1.45-3.43-1.24-.25-2.45,2.23-2.84,2.45-.23.13-1.68.14-1.85.01-.09-.06-.74-1.65-.95-1.99-1.97-3.16-4.5-6.72-6.23-10.05v.02ZM64.91,140.88c-.09-4.35-.63-9.15-.27-13.5.29-3.46,1.62-7.35,2.43-10.66,1.42-5.81,1.63-12.35,2.58-18.31.49-3.05,1.11-5.54,1.39-8.63.07-.8.57-2.74.47-3.36-.05-.34-2.03-1.5-2.49-.61-.96,1.87-1.55,4.85-2.36,6.89-3.28,8.3-6.5,16.65-9.46,24.73-1.91,5.21-3.97,10.33-5.95,15.51-.2.97.82,2.35,1.59,2.88,1.48,1.03,6.09,3.12,7.9,3.8,1.22.46,2.91.74,4.18,1.25h-.01ZM75.72,86.36c-.33-.48-1.3-.07-1.75-.06-.57.01-1.25-.61-1.49.18-.2.66.04,1.7-.04,2.46-1.49,13.35-4.37,26.44-5.88,39.79-.21,1.85-1.79,7.68-.24,8.94,1.21.99,6.47.64,8.22.69.61.02,1.47.4,1.9.31.52-.1.6-3.47.46-4.01-.07-.29-.68-.26-.81-.64-1.18-3.5.3-11.39.53-15.27.19-3.26-.44-5.87-.58-8.91-.1-2.09.35-4.18.32-6.14-.07-4.2-.42-8.6-.58-12.81-.04-.96.33-3.99-.06-4.54h0Z"/>
  <path class="st2" d="M44.72,62.63v.28c.18-.09.18-.19,0-.28Z"/>
  <path class="st2" d="M63.52,80.45c-.22-.05-.76.07-.84,0-.08-.08.06-.62,0-.84.17.08.47-.04.7.27.14.19.08.43.13.57h0Z"/>
  <path class="st1" d="M124.51,58.45c9.47-.55,18.8-1.69,28.27-2.23,1.55-.09,3.87-.88,5.15,0-.1-.98,1.72-.47,2.62-.59,2.21-.29,4.3-1.36,6.58-1.08-.71,3.65-1.1,6.62-.49,10.37.18,1.13,1.77,4.16-.2,4.12-.99-.02-8.5-.79-8.79-1.13-.04-.05.09-.39-.04-.5-.22-.18-4.9-.1-5.66-.06-5.97.34-12.05,1-18.12.57-3.02-.22-6.04-1.25-8.98-1.61-7.43-.9-15.35,0-22.77-.62-.86-.07-1.65-.31-2.47-.54l-.72-4.76c.37-.5,6.26-.23,7.4-.27,5.83-.21,11.67-.77,17.54-.84.9,0,.71.03.69-.84h-.01Z"/>
  <path class="st1" d="M107.8,15.29l.86-.12,3.19-5.18c.6,0,1.81,1.12,2.44,1.46,2.71,1.47,2.54,1.77,4.8,3.84.28.25,1.05.25.69.82-.02.02-.33-.05-.55.21-3.13,3.6-5.65,7.84-8.77,11.5-4.89,5.72-10.95,10.71-15.73,16.57-.52.64-1.86,3.11-2.23,3.34-.91.59-.86-.38-1.38-.86-.47-.43-1.08-.57-1.57-.95.07-.33-.13-1.23-.12-1.4.08-1.21,1.97-4.54,2.67-5.82,3.66-6.63,8.67-14.76,13.21-20.77.65-.86,1.86-1.78,2.5-2.65h-.01Z"/>
  <path class="st1" d="M27.87,108.58c-1.81,1.62-3.11,3.64-5.56,4.18-1.65-3.49-3.97-6.71-5.6-10.16l.15-.43c1.84-1.5,3.55-3.14,5.3-4.72,5.67-5.09,11.94-9.37,18.54-13.5,4.94-3.09,9.23-4.89,14.25-7.47.5-.26,3.94-2.62,4.11-2.43.25.27-.19.86-.4,1.13-1.3,1.67-4.33,3.22-5.61,4.7-5.46,6.33-12.55,11.52-18.51,17.14-1.13,1.07-3.64,3.14-4.46,4.17-.27.34-1.29,2.19-1.32,2.58-.11,1.07.93,2.44.78,3.14-.05.21-.44.37-.56.56-.68-.14-.61.25-.56.84-.22.18-.51.23-.56.28h0Z"/>
  <path class="st1" d="M9.48,83.24c-.23-.58.56-.52.56-.72,0-.23-.29-.54-.25-.79.13-.79,6.24-1.56,7.33-1.85,3.21-.85,6.61-2.34,9.9-3.19,5.44-1.41,11.32-2.21,16.89-3.17,3.61-.62,7.24-1.09,10.81-1.72.49-.09,2.85-.94,2.94-.82.05.07.35,1.62.28,1.67-5.03,1.03-9.67,3.23-14.49,4.87-4.65,1.58-9.55,2.8-14.15,4.52-.63.24-.73-.05-.61.91-4.05,1.26-8.13,2.27-12.37,3.64-1.62.52-3.22,1.28-4.81,1.89-.44.04-.98-.61-1.13-1-.3-.79-.49-3.77-.91-4.24h.01Z"/>
  <path class="st2" d="M102.23,89.92c-.46-.4-1.2-1.62-1.66-1.8-.71-.28-.6.32-1.58-1.08-1.31-1.87-2.85-3.58-4.27-5.4-.31-.4-.61-1.43-.98-1.74-.56-.46-1.76-.06-1.08-.83,1.02-1.16,3.93-4.51,4.37-5.85.12-.37,0-.85.14-1.28.3-.88.9-1.63.9-2.62,1.99-.34-.55,1.51.73,1.91,4.25-.37,7.82,1.19,11.79,2.13s8.67,1.26,12.61,2.66c4.6,1.63,10.15,3.1,15.19,4.63,1.57.48,3.38,1.36,4.96,1.73.54.13.34-.02.39-.39.08-.65-.35-1.81.84-1.81,0,.84.35,3.36-.92,3.29-4.92-2.06-10.12-3.31-15.22-4.83-3.52-1.05-6.73-2.31-10.53-3.12-2.64-.56-5.41-.76-8.05-1.42-1.62-.41-3.48-1.3-5.04-1.64-2.13-.48-4.54-.27-6.72-.59-.79,1.64-.07,2,.94,3.04,4.25,4.39,9.58,7.5,14.2,11.41,4.09,3.46,7.89,7.16,11.99,10.58,3.29,2.75,5.04,4.38,8.02,7.7.85.95,2.09.96.87,2.87-1.11,1.73-3.42,3.67-4.87,5.15-.32.44-2.38,2.83-2.68,2.92-.85.23-1.24-1.01-1.75-1.52-7.8-7.87-14.17-16.71-22.57-24.07l-.02-.03ZM101.86,78.04c-1.39-1.24-3.02-2.24-4.22-3.71-1.24.87-1.72,2.19-2.52,3.32-.38.54-1.44,1.06-1.11,1.69.2.39,1.93,1.79,2.03,2.02.15.34-.02.83.11,1,.08.1.64.08.94.3.66.49,2.26,2.78,3.01,3.54,1.52,1.55,3.4,3.13,4.76,4.56,5.95,6.19,11.34,12.72,17.27,18.67.88.88,1.86,2.63,2.8,3.61.27.28.89,1.01,1.17,1.08,1.21.32,3.88-3.78,4.68-4.71.65-.75,3.31-2.59,2.8-3.61-.4-.8-2.64-2.68-3.43-3.41-1.9-2.67-5.93-5.02-8.76-7.46-6.5-5.61-13.18-11.22-19.53-16.89Z"/>
  <path class="st2" d="M18.12,25.32c.37-.66.41-1.53,1.03-2.44.42-.62.97-.87,1.55-1.19.97-.53-1-.82-1.4-1.03-.78-.41-1.51-.96-2.53-1.39-.69-.29-1.23.31-.81-1.26.27-1,1.2-1.19,1.75-1.86,1.2-1.45,2.32-2.77,3.58-4.22,1.12-1.29,2.21-2.86,3.35-4.17,1.32-.83.84.19,1.27.94.62,1.08,2.21,2.06,3.08,3.1.34.41.66.63.55,1.26-.96-.36-2.47-1.55-3.25-2.32-.4-.39-.84-1.32-1.19-1.68-.57-.6-.58.15-.85.5-2.04,2.63-4.22,5.04-6.29,7.65-.78.98-1.97,1,.3,1.98l.27-.57c.76.52,1.48,1.03,2.26,1.51.2.12.05.66.76.41.49-.17.65-.93,1.3-.8.12.53-.44.83-.49,1.29-.03.28.3.87.21.94-.08.06-.78-.09-1.28.26-.72.52-1.62,2.55-2.34,3.23-.5.47-.49.55-.84-.15h.01Z"/>
  <path class="st1" d="M42.35,78.78c3.33-1.63,6.95-2.69,10.46-3.89.46-.16.81-.58,1.23-.72,1.36-.43,3.05-.68,4.46-.97-.26.54-1.09.76-1.62,1.03-3.48,1.73-6.65,3.2-10.08,5.1-.57-1.12-2.07-.36-2.94-.35-.52,0-1.26-.22-1.52-.21h.01Z"/>
  <path class="st1" d="M67.97,86.02c-.82-.68-1.23.82-2.51.56.26-.37,1.29-2.49,1.55-2.53,1.33-.17,1.22,1.09.95,1.97h.01Z"/>
  <path class="st2" d="M28.98,107.46c-.21.35.03.36-.56.84-.06-.59-.12-.97.56-.84Z"/>
  <g>
    <path class="st1" d="M62.12,43.42c-3.32-8.79-8.66-16.6-12.11-25.35-1.03-2.62-1.32-5.15-3.12-7.48-.73-.95-2.09-1.13-1.45-2.92.19-.54.9-.38,1.33-.61,1.17-.64,2.91-1.69,3.99-2.14.55-.23,3.83-1.44,4.07-1.28.3.63.62,1.26.87,1.91-1.5-.21-.55.64-.43,1.36.19,1.1.34.82.41,1.08.64,2.43.89,5,1.97,7.3-.9.19-2.07.69-2.94,1.1-.41.19-.79.27-.68.85l6.2-2.24c.33-.84.57-.2,1.32-.37.67-.15,3.9-1.98,4.17-1.57l3.02,13.54c.9.66.23.79.38,1.84.25,1.75,1.78,4.34,2.22,6.15.93,3.8,1.99,6.38,3.29,10.08.14.4.55.7.57,1.1-2.38.79-4.6,1.88-7.09,2.39-.47-.84-1.92-5.21-2.39-5.58-.23-.18-.66-.08-.56.42.14.74,2.23,4.55,1.95,4.87-.56-.61-1.71-1.04-2.21-1.55-.4-.41-.52-1.16-.86-1.37s-.82-.08-1.24-.43c-.25-.21-.43-.84-.7-1.11h.02Z"/>
    <path class="st1" d="M56.55,8.33c-.44-.12-.88-.68-.28-.84.09.28.19.55.28.84Z"/>
  </g>
  <path class="st1" d="M42.07,78.78c-.11.04-.41.47-.84.56-.13-.75.18-.57.84-.56Z"/>
  <path class="st1" d="M102.79,59.29c-.05.41-.77.4-.84,0,.28,0,.56,0,.84,0Z"/>
  <path class="st2" d="M21.18,52.88c-.14-.03-.25-.14-.28-.28.12.06.2.18.28.28Z"/>
  <path class="st1" d="M18.12,25.32c.35.69.34.62.84.15.72-.68,1.62-2.72,2.34-3.23.49-.35,1.2-.2,1.28-.26.09-.06-.24-.66-.21-.94.05-.46.61-.75.49-1.29-.65-.13-.81.63-1.3.8-.72.25-.57-.29-.76-.41-.78-.48-1.5-.99-2.26-1.51l-.27.57c-2.27-.98-1.08-1-.3-1.98,2.07-2.61,4.25-5.02,6.29-7.65.28-.36.28-1.1.85-.5.34.36.79,1.28,1.19,1.68.78.77,2.29,1.97,3.25,2.32.08.03.2-.03.28,0-.44.42-.72.06-.33.74s1.93,2.4,2.55,3.03c2.55,2.57,5.64,4.88,8.1,7.49,3.72,3.94,7.31,7.97,11.4,11.72,3.93,3.6,8.39,6.5,12.26,10.29.93.92,1.85,1.9,2.22,3.2-.57.21-1.86.87-2.22,1.27-.28.31-.22.81-.46.99-.23.17-.83.16-.93.27-.05.07.24,1.09-.06,1.73-.2.42-.62.41-.79.67-1,1.49-3.4,6.57-3.9,8.29-.27.93-.34,1.69-.27,2.66-.28.3-6.8-2.09-7.79-2.38-5.51-1.63-10.1-2.94-15.52-5.09-3.02-1.2-9.62-4.74-12.34-5.06-.18-.02-.39.03-.56,0-.08-.1-.16-.22-.28-.28-.32-.16-.94-.21-1.06-.35-.14-.16.08-.59-.24-.77-.55-.32-1.95-.74-2.6-.68,1.39-2.8,2.61-5.58,4.33-8.2.44-.67,2.47-2.86,2.33-3.45-.08-.32-4.72-3.37-5.4-3.81-.98-.65-1.59-1.91-2.36-2.65-1.41-1.34-2.31-.35-.96-2.61.93-1.56,2.29-3.18,3.18-4.76h-.01ZM61.84,51.77c.51-.46-2.15-1.78-2.42-1.9-.4-.18-.69-.45-1.2-.33-.15.65.76.89,1.2,1.16.37.22,2.16,1.29,2.41,1.07h.01Z"/>
  <g>
    <path class="st1" d="M63.52,80.45c.15.36.09.69.43,1.1.41.48,2,1.33,2.23,1.68.54.83-.86,1.63-1.26,2.17-4.79,6.5-9.17,13.95-13.51,20.4-1.46,2.17-1.51,4.32-3.95,1.84-.9-.91-1.85-2.09-3.06-2.91-.41-.28-1.95-.82-2.01-.91-.79-1.12,2.67-3.84,3.3-4.56,5.07-5.78,9.67-12.74,14.03-19.12.37-.54.97-2.41,1.59-1.74.65.7.23.66,1.37,1.21.06.22-.08.76,0,.84.07.07.61-.05.84,0h0Z"/>
    <path class="st1" d="M62.68,79.62c-.32-1.16-1.68-2.98-2.4-4.16-.61-1-.66-1.61-1.25-2.86-.45-.96-.95-2.72-1.09-3.98-.57-5.1,2.05-9.62,4.69-13.7.49-.76,1.09-1.41,1.42-1.92.23-.36.18-.87.39-1.15,1.67-2.3,11.6-5.69,14.54-5.93,4.98-.41,10.52.14,13.9,4.2.79.95,2.01,3.66,2.54,4.16.27.26.73.19.89.35.27.25,1.69,3.1,1.83,3.61.26.98.65,4.32.68,5.38.02.73-.41,3.8-.2,4.03.69.75.77-1.65.99-1.68,2.85.22,5.76.48,8.61.58,4.73.17,9.55-.06,14.21.27,2.19.16,2.86.48,5.31.31.12,0,.07.42.5.57,4.28,1.42,9.85,1.56,14.16,3.1.38.13,2.31,1.21,2.41,1.5.26.79-.72,4.54-.81,5.79-.03.44-.3,1.78.57,1.54v.56c-1.18,0-.76,1.16-.84,1.81-.04.37.15.51-.39.39-1.58-.37-3.39-1.25-4.96-1.73-5.04-1.53-10.6-3-15.19-4.63-3.94-1.39-8.51-1.68-12.61-2.66s-7.54-2.51-11.79-2.13c-1.28-.39,1.26-2.25-.73-1.91,0,.98-.59,1.73-.9,2.62-.15.43-.02.9-.14,1.28-.43,1.34-3.35,4.69-4.37,5.85-.68.78.52.38,1.08.83.38.31.68,1.34.98,1.74,1.41,1.82,2.96,3.54,4.27,5.4.98,1.4.87.79,1.58,1.08.46.18,1.2,1.4,1.66,1.8,1.74,4.55,4.89,8.52,6.85,13.07,1.66,2,2.63,4.47,4.56,6.3.2.9-2.24,1.17-2.78,1.24-1.69.21-2.88.18-4.25,1.74l-1.88,1.04-15.88-30.5c-.44-.27-2.18.21-2.61.47-.55.34-.34.78-.52,1-.21.26-.8.2-1.12.36-.22.12-.2.54-.38.56-.39.03-.84-.3-1.33-.27-1.23.08-2.61.6-3.93.66-4.79.23-8.83-.34-12.85-3.02-.73-.49-1.84-1.94-2.61-2.12-.06-.14,0-.38-.13-.57-.23-.31-.53-.19-.7-.27h.02ZM88.41,62.8c-1.19-1.14-1.61-1.56-3.47-1.16-2.69.58-4.15,2.87-6.53,3.98-1.2-.56-1.81-2.05-2.78-2.72-.25-.17-2.49-1.45-2.66-1.52-1.87-.68-4.88.15-5.76,2.01-1.29,2.74-1.17,4.85.09,7.56,1.14,2.47,4.21,4.41,6.08,6.45.46.5.97,1.21,1.52,1.83.18.2.17.64.38.86,1.17,1.23,3.27-.1,4.47-.81s3.05-1.98,4.18-2.77c1.7-1.2,5.39-4.95,6.27-6.83,1.09-2.34-.05-5.21-1.8-6.89h.01Z"/>
    <path class="st0" d="M88.41,62.8c1.75,1.68,2.89,4.55,1.8,6.89-.88,1.88-4.56,5.63-6.27,6.83-1.14.8-2.95,2.05-4.18,2.77s-3.31,2.04-4.47.81c-.21-.22-.2-.67-.38-.86-.56-.62-1.07-1.33-1.52-1.83-1.87-2.04-4.94-3.98-6.08-6.45-1.25-2.71-1.38-4.82-.09-7.56.88-1.86,3.89-2.69,5.76-2.01.18.06,2.41,1.35,2.66,1.52.96.66,1.58,2.16,2.78,2.72,2.38-1.11,3.84-3.41,6.53-3.98,1.86-.4,2.28.02,3.47,1.16h-.01Z"/>
  </g>
  <path class="st2" d="M61.84,51.77c-.25.23-2.04-.84-2.41-1.07-.45-.27-1.35-.51-1.2-1.16.51-.12.8.15,1.2.33.27.12,2.93,1.44,2.42,1.9h0Z"/>
  <path class="st1" d="M56.21,66.04c.6.49.28,3.24.32,4.09l-17.13,3.34c-5.02.78-10.97,1.76-16.5,3l-18.55,5.67c-.44-.05-.38-2.46-.46-2.91-.61-3.55-2.29-8.87-2.23-12.28,0-.46-.06-1.05.48-1.21,3.73-.29,7.66-1.22,11.38-1.28,2.48-.04,5.34.49,7.8.4,1.41-.05,2.13-.71,3.26-.08.48.27,1.19-.16,1.75-.2,7.96-.49,16.54-1.33,24.48.03.65.11,5.18,1.25,5.4,1.43Z"/>
  <g>
    <path class="st1" d="M87.75,130.3c.08.4.38,3.21.28,3.34-1.44-.56-3.31-.57-4.88-.57-.74,0-1.42.33-2.22.31-1.24-.03-2.68-.57-4.04-.3-.34-.34.52-5.32.57-6.25.15-2.67-.04-5.47-.01-8.09.07-7.03-.48-13.9-.57-20.87-.02-1.42-.2-10.58.13-11.02.51-.68,5.67-.57,6.84-.82,1.1,5.37-.15,10.84.29,16.28.05.57.38,2.57.56,3.01.1.24.33.23.55.2.1.48-.66.04-.58.68,2.53,6.7.82,14.34,2.1,21.05.19.99.87,2.21.99,2.77.02.09-.02.19,0,.28h0Z"/>
    <path class="st1" d="M64.91,140.88c-1.27-.51-2.96-.79-4.18-1.25-1.8-.69-6.42-2.77-7.9-3.8-.76-.53-1.79-1.91-1.59-2.88,1.98-5.18,4.03-10.31,5.95-15.51,2.97-8.08,6.18-16.43,9.46-24.73.8-2.03,1.4-5.02,2.36-6.89.46-.89,2.44.27,2.49.61.1.62-.39,2.56-.47,3.36-.29,3.09-.91,5.58-1.39,8.63-.95,5.96-1.16,12.5-2.58,18.31-.81,3.31-2.15,7.2-2.43,10.66-.36,4.35.19,9.15.27,13.5h.01Z"/>
    <path class="st1" d="M75.72,86.36c.39.55.02,3.57.06,4.54.16,4.21.51,8.61.58,12.81.03,1.96-.42,4.05-.32,6.14.15,3.04.77,5.65.58,8.91-.23,3.88-1.71,11.77-.53,15.27.13.38.73.35.81.64.14.54.06,3.91-.46,4.01-.43.08-1.29-.3-1.9-.31-1.75-.05-7.01.3-8.22-.69-1.55-1.26.03-7.09.24-8.94,1.51-13.35,4.39-26.44,5.88-39.79.08-.76-.16-1.81.04-2.46.25-.79.93-.17,1.49-.18.45-.01,1.42-.42,1.75.06h0Z"/>
  </g>
  <path class="st1" d="M122.1,24.85c-.63.61-1.51,2.09-1.89,2.43s-1.42.43-1.52.58c-.15.24.1.84-.07,1.03-.1.11-.64,0-.93.32-3.46,3.97-7.6,7.11-11.18,10.96-2.9,3.11-5.5,6.74-8.33,9.9-.67.74-1.39,1.92-2.06,2.62s-.51-.31-.73-.63c-.45-.64-2.15-2.47-2.31-3.01-.27-.92,1.24-2.26,1.81-2.97,5.51-6.9,12.47-13.13,18.2-20.09,1.91-2.32,3.41-5.01,5.39-7.28.53-.6,2.65-1.84,2.31-2.89-.32-.97-2.11-2.12-2.12-2.63-.01-.47,2.17-3.49,2.6-3.45.49.05,4.05,2.97,4.83,3.53,1.73,1.24,3.71,2.12,5.1,3.81-1.19.74-1.95,2.13-2.92,2.93-1.96,1.62-4.33,3.04-6.17,4.83h-.01Z"/>
  <path class="st1" d="M59.61,75.44c-.1.5.83,1.62.81,1.82,0,.16-.79.54-1.05.87-3.44,4.47-5.56,8.6-9.47,13.08-2.45,2.82-3.66,4.77-5.77,7.89-.61.9-2.34,2.62-2.71,3.44-.31.71.13,1.19-.05,1.59-.23.49-2.14,2.31-2.64,3-.37.51-2.16,3.69-2.38,3.68-.66-1.11-2.39-1.65-3.08-2.48-.34-.41-.39-.98-.67-1.28-1.02-1.12-2.86-1.98-2.94-3.76l29.95-27.83v-.02Z"/>
  <path class="st1" d="M126.85,39.08c-4.64,4.27-11.89,7.66-17.18,11.29-3.13,2.15-6.39,5.31-9.43,7.35-.35.23-.9.92-1.22.45-.36-.53-2-4.93-1.78-5.25,1.37-.46,2.18-2.17,3.12-3.02.18-.16.64-.15.88-.36,7.54-6.64,15.98-12.14,24.24-17.82.67,1.33,3.24,4.47,2.88,5.93-.13.54-1.11,1.05-1.52,1.42h0Z"/>
  <path class="st1" d="M97.33,102.07c1.72,3.33,4.26,6.88,6.23,10.05.21.33.86,1.92.95,1.99.17.12,1.63.12,1.85-.01.39-.22,1.6-2.7,2.84-2.45.04,1.13.87,2.42,1.45,3.43.89,1.55,2.33,3.84,3.46,5.19.34.41,1.17.25.4,1.29-2.67,1.94-4.63,4.81-8.1,5.42.74,1.11-.54.37-.81-.22-2.74-5.95-6.05-11.79-8.66-17.69-1.17-2.64-2.05-6.75-3.53-9.31-1.97-3.4-2.4-6.82-3.85-10.38-.32-.8-2.64-4.47-2.62-4.88,2.16-1.79,1.82.23,2.36,1.51,1.39,3.25,3.66,6.51,5.27,9.77,1.01,2.05,1.7,4.28,2.75,6.31v-.02Z"/>
  <path class="st1" d="M140.11,44.53c-.29,0-.62-.03-.9.07-9.79,3.43-19.89,5.89-29.54,9.74-2.27.9-4.48,2.37-6.88,3,.07-.37.47-.57.74-.78,8.53-6.73,18.48-11.7,26.65-18.88,1.23-.15,5.68-3.08,6.42-2.87.14.04.24.14.31.26l3.2,9.47h0Z"/>
  <path class="st1" d="M101.86,78.04c6.35,5.67,13.03,11.28,19.53,16.89,2.83,2.44,6.86,4.79,8.76,7.46.79.73,3.03,2.6,3.43,3.41.51,1.02-2.16,2.86-2.8,3.61-.8.93-3.47,5.03-4.68,4.71-.29-.07-.91-.8-1.17-1.08-.93-.98-1.92-2.73-2.8-3.61-5.93-5.95-11.32-12.47-17.27-18.67-1.37-1.42-3.25-3.01-4.76-4.56-.75-.77-2.35-3.06-3.01-3.54-.3-.22-.87-.21-.94-.3-.13-.16.03-.66-.11-1-.1-.24-1.83-1.63-2.03-2.02-.32-.63.73-1.15,1.11-1.69.8-1.13,1.28-2.45,2.52-3.32,1.21,1.46,2.83,2.46,4.22,3.71h0Z"/>
  <g>
    <path class="st1" d="M79.11,1.65c.61.06,1.41.47,2.19.31.69,1.42-.03,2.76.02,4.29.04,1.07.45,2.26.57,3.34.04.37-.06,1.45,0,1.53.03.03.81.03.83,0,.11-.13-.1-1.29,0-1.4.3-.31,8.32.22,8.63.57.2.23-.26,1.4-.29,1.81-.04.51.24.83.26,1.12,0,.1-.42.08-.57.5-.27.73-.42,2.74-.51,3.66-.03.36-.27,1.4.41,1.25.42-.74.54-1.83.67-2.68.3-2.1.07-4.57,1.15-6.37,0-.26-2.76-.05-3.04-.87-.3-.88.61-2.97.79-3.88.2-1.06.28-2.37.3-3.46,1.07-.22,2.23.59,3.18.54.74-.04,1.78-.71,2.6-.76.67-.04,1.33.33,2.02.21l-9.47,32.3c-.39.1-.45-.82-.43-.98.12-.92,1.5-3.4-.13-3.47-.61,4.1-.22,8.12-1.95,11.97.54.04.82.1,1.05-.48.72-1.82,1.41-4.28,2.01-6.2-.64,2.53-1.07,5.41-2.1,7.78-.08.19-.38.25-.4.29l-.41-1.11c-.47.48-.65,1.42-.71,2.1-.04.45.26.95.24,1.11-.1.76-1.28.1-1.75.12-1.21.04-1.94-.02-3.07-.02-.39,0-1.48.37-1.53.31-.16-.23.38-1.06-.56-.83l.14.83-3.48.28c-.4-.88-.11-5.35-.28-5.57-.05-.06-.44.06-.56,0-1.51-.8-1.14-29.3-1.19-32.99-.01-.88-.69-3.45-.14-3.98.49-.47,1.59-.24,2.24-.41,1.41-.38,1.67-.94,3.27-.77h0ZM79.47,41.63l-.44,1.77.56.14.44-1.77-.56-.14ZM79.25,43.69v.28c.18-.09.18-.19,0-.28Z"/>
    <path class="st2" d="M89.42,34.51c-.6,1.92-1.29,4.38-2.01,6.2-.23.58-.51.52-1.05.48,1.73-3.85,1.34-7.87,1.95-11.97,1.62.07.25,2.54.13,3.47-.02.17.04,1.09.43.98L98.33,1.37c-.69.12-1.35-.25-2.02-.21-.82.05-1.85.72-2.6.76-.96.05-2.12-.77-3.18-.54-.02,1.09-.1,2.4-.3,3.46-.17.91-1.09,3.01-.79,3.88.28.83,3.05.61,3.04.87-1.08,1.8-.85,4.27-1.15,6.37-.12.85-.24,1.94-.67,2.68-.68.15-.45-.89-.41-1.25.09-.92.24-2.93.51-3.66.16-.42.58-.4.57-.5-.03-.29-.3-.61-.26-1.12.03-.41.48-1.59.29-1.81-.3-.35-8.32-.88-8.63-.57-.1.1.11,1.26,0,1.4-.03.03-.81.03-.83,0-.07-.08.04-1.16,0-1.53-.12-1.08-.53-2.27-.57-3.34-.05-1.53.67-2.87-.02-4.29-.78.15-1.59-.25-2.19-.31.86-.69,2-.81,3.06-.84.54,1.36-.17,7.64.62,8.29.58.47,4.64-.66,5.78-.21-.07-2.63,1.42-5.15,1.12-7.77,1.54-.62,3.24-.13,4.84-.33s4.43-2.07,4.84.78c.16,1.15-1.51,5.35-1.98,6.82-2.69,8.53-5.28,17.42-8,26.12h.02Z"/>
    <rect class="st2" x="78.61" y="42.29" width="1.82" height=".58" transform="translate(19.14 109.58) rotate(-76.14)"/>
    <path class="st2" d="M79.25,43.69c.18.09.18.19,0,.28v-.28Z"/>
  </g>
</svg>