<?xml version="1.0" encoding="UTF-8"?>
<svg id="Layer_2" xmlns="http://www.w3.org/2000/svg" version="1.1" viewBox="0 0 20.6 25.98">
  <!-- Generator: Adobe Illustrator 29.8.3, SVG Export Plug-In . SVG Version: 2.1.1 Build 3)  -->
  <defs>
    <style>
      .st0 {
        stroke-width: 2px;
      }

      .st0, .st1 {
        fill: none;
        stroke: #272f40;
        stroke-miterlimit: 10;
      }

      .st1 {
        stroke-width: 1.5px;
      }
    </style>
  </defs>
  <path class="st0" d="M18.25,2.02c4.89,4.6-4.67,12.72-9.22,12.25-.16-.06-.28-.19-.41-.36-1.23-2.19-3.92-3.57-5.23-5.68C-.23,1.47,6.8-1.5,10.69,3.5c.73.73,1.45-.38,2.18-.78,1.51-1.2,3.73-2.61,5.29-.78l.09.08h0Z"/>
  <path class="st1" d="M6.09,19.54c2.4.91.22,5.19-1.46,5.69-.06,0-.13-.03-.2-.07-.76-.6-1.91-.68-2.69-1.24-2.27-1.86-.23-3.94,1.89-2.75.37.15.46-.35.66-.6.36-.65.94-1.47,1.76-1.06l.04.02h0Z"/>
</svg>