<?xml version="1.0" encoding="UTF-8"?>
<svg id="Layer_1" xmlns="http://www.w3.org/2000/svg" version="1.1" viewBox="0 0 139.05 139.49">
  <!-- Generator: Adobe Illustrator 29.8.3, SVG Export Plug-In . SVG Version: 2.1.1 Build 3)  -->
  <defs>
    <style>
      .st0 {
        fill: #fdf3e5;
      }
    </style>
  </defs>
  <path class="st0" d="M33.99,52.54c-1.01-.22-.92.84-1.46,1.2-1.26.83-2.24.65-3.48,0-2.52-1.33-14.13-9.7-16-11.65-.82-.86-1.49-1.75-1-2.98L31.98,7.69c7.15-2.24,15.45-5.45,22.77-6.85,5.37-1.03,22.31-1.05,27.97-.38,4.92.58,15.63,4.09,20.68,5.78,1.25.42,2.97.75,3.87,1.66l19.05,29.92c1.33,1.93,1.06,2.9-.52,4.46-2.01,1.99-13.59,10.45-16.04,11.62-1.13.54-2.14.57-3.23-.15-.55-.36-.46-1.42-1.46-1.2v16.59h17.57l1.71,1.84,14.68,26.83c.21,2.16-2.63,3.97-4.37,2.35l-10.24-17.6v54.7c0,.9-2.26,2.55-3.34,2.19H17.97c-1.08.36-3.34-1.29-3.34-2.19v-54.7l-10.05,17.4c-1.71,1.82-4.92.35-4.56-2.16l14.67-26.83,1.71-1.84h17.57v-16.59h.02ZM79.4,5.94h-19.75c2.93,9.95,16.7,9.88,19.75,0ZM39.51,45.23v23.89h60.03v-23.89c0-1.39,1.67-3.14,3.27-2.89,1.25.2,4.79,4.12,5.46,5.4h.86l11.28-8.49-16.95-27.17-18.31-5.31c-1.05,1.79-1.45,3.41-2.67,5.21-6.62,9.78-21.19,8.86-26.85-1.44-.45-.82-1.17-3.63-1.74-3.78l-18.31,5.31-16.95,27.17,11.28,8.48h.86c1.45-2.85,7.7-8.9,8.74-2.5h0ZM116.92,74.65H22.14l11.46,20.34,23.46.24c3.09.43,4,3.04,1.64,5.12l-27.59.29-1.79-1.76-9.15-16.32v51.34h98.73v-51.34l-9.15,16.32-1.79,1.76-27.59-.29c-2.36-2.08-1.45-4.69,1.64-5.12l23.46-.24,11.46-20.34h0Z"/>
  <path class="st0" d="M131.82,18.08c-.9.97-2.39.97-3.43.28-1.65-1.1-.92-1.93-1.38-3.36-1.17-3.56-6.02-1.89-6.48-5-.5-3.38,3.99-2.7,5.48-4.25,1.71-1.77.62-6.46,4.75-5.17,2.48.77,1.35,3.96,2.94,5.37s5.03.29,5.34,3.38c.38,3.79-3.87,2.21-5.54,4.3-1.01,1.26-.9,3.62-1.67,4.45h-.01Z"/>
  <path class="st0" d="M5.43,55.57c1.64-1.51.47-6.69,4.89-5.23,2.01.67,1.24,3.59,2.73,5.16s4.58.34,5.37,2.94c1.17,3.85-4.03,3.14-5.54,4.77-1.51,1.63-.2,4.86-3.18,5.14-3.65.34-2.66-2.97-3.93-4.8-1.49-2.14-5.19-1.02-5.69-3.82-.65-3.6,3.9-2.85,5.34-4.18v.02Z"/>
  <path class="st0" d="M33.08,112.26c5.56.33,12.28-.73,17.7-.09.96.11,2.34.7,2.75,1.59s.39,10.54.21,12.05c-.3,2.55-1.89,2.78-4.14,2.97-3.85.33-10.79.32-14.64,0-2.24-.19-3.85-.41-4.14-2.97-.27-2.35-.27-8.33,0-10.68.17-1.46.82-2.43,2.27-2.87h-.01ZM48.2,117.7h-11.85v5.53h11.85s0-5.53,0-5.53Z"/>
  <circle class="st0" cx="69.53" cy="98.02" r="2.71"/>
  <path class="st0" d="M82.43,26.97c3.38-.1,2.27,4.13,4.05,5.65s5.43.23,5.19,3.93c-.18,2.81-3.26,2.1-4.8,3.13-2.16,1.45-1.06,5.62-4.12,5.79-3.48.19-2.38-3.8-4.13-5.39s-5.19-.54-5.19-3.93,3.66-1.93,5.35-3.78c1.47-1.6.52-5.31,3.65-5.4Z"/>
</svg>