<svg width="346" height="618" viewBox="0 0 346 618" fill="none" xmlns="http://www.w3.org/2000/svg">
<path d="M295.521 20.1822C299.074 28.7118 305.416 42.3055 308.574 48.9811C308.569 59.0462 308.596 68.3016 308.824 73.8106C309.095 80.3625 309.634 81.5785 310.404 134.001C311.173 186.424 312.145 287.005 313.463 339.175C314.782 391.344 316.692 394.969 317.205 397.599C318.011 401.725 322.48 412.537 327.567 432.27C333.254 454.329 337.996 468.639 338.665 474.367C340.303 488.388 343.306 500.554 343.807 509.373C344.618 523.642 347.992 549.651 342.919 566.586C340.702 573.987 337.593 583.964 326.491 587.895C313.943 592.338 304.418 598.863 292.94 599.815C280.061 600.883 264.847 603.919 250.641 606.68C236.459 609.437 222.364 609.278 211.924 614.166C207.029 616.458 174.22 618.641 128.604 617.433C110.482 616.953 93.9658 618.794 72.772 616.295C57.0074 614.437 46.3818 614.159 41.4912 609.959C36.3005 605.501 29.8443 602.469 28.9817 586.506C28.1875 571.809 29.0662 544.444 27.6768 529.534C26.0591 512.175 23.7524 507.247 23.629 497.016C23.3846 476.746 20.4473 461.138 19.35 455.307L19.3051 455.068C18.4997 450.786 17.4362 446.774 17.1616 424.481C16.9134 404.32 16.9533 367.248 16.6966 347.303C16.44 327.358 15.7459 324.625 15.6381 319.811C15.3805 308.315 13.0351 297.595 12.6704 287.248C12.1464 272.381 11.1321 261.061 10.8066 247.716C10.5481 237.112 11.325 219.162 9.7462 206.776C7.31221 187.68 4.65431 178.536 4.36167 154.353C4.11376 133.864 4.15535 95.2733 3.89912 74.8817C3.64293 54.4901 2.71259 52.4077 2.28068 50.6718C-0.692865 38.7212 -1.44303 19.9523 4.25879 14.4586C9.18942 9.70787 11.4488 1.54491 25.0479 0.374104C33.7624 -0.376174 40.8256 0.197992 52.989 0.413467C99.7559 1.24195 109.62 2.68111 122.933 3.5597C134.706 4.33665 147.738 4.91475 159.201 5.44045C176.268 6.2231 204.174 8.32127 221.217 8.73006C261.814 9.70383 279.7 9.98599 288.458 13.8762C292.261 15.5654 294.496 17.7234 295.521 20.1822Z" fill="#FDF3E5"/>
</svg>
