<?xml version="1.0" encoding="UTF-8"?>
<svg id="Layer_2" xmlns="http://www.w3.org/2000/svg" version="1.1" viewBox="0 0 193.29 403.37">
  <!-- Generator: Adobe Illustrator 29.8.3, SVG Export Plug-In . SVG Version: 2.1.1 Build 3)  -->
  <defs>
    <style>
      .st0 {
        fill: #fdf3e5;
      }

      .st1 {
        display: none;
      }
    </style>
  </defs>
  <g class="st1">
    <path class="st0" d="M-237.68,192.44c8.72-.43,17.44-.87,26.16-1.3,18.46-.92,36.91-1.84,55.37-2.76,16.21-.81,32.41-1.62,48.62-2.42,7.08-.35,14.78-.53,20.52,3.62,6.39,4.63,8.35,13.13,9.86,20.87.71,3.65,1.42,7.36,1.12,11.07s-1.73,7.49-4.63,9.83c-3.41,2.75-8.13,3.05-12.51,3.22-46.68,1.88-93.37,3.76-140.05,5.63-3.73.15-7.77.22-10.83-1.92-5.14-3.59-4.89-11.14-4.09-17.35.78-6.11,1.57-12.22,2.35-18.33.4-3.09.96-6.5,3.36-8.48l4.76-1.69Z"/>
    <path class="st0" d="M-237.68,193.44c29.16-1.45,58.32-2.91,87.48-4.36,14.42-.72,28.84-1.47,43.27-2.16,5.78-.28,12.11-.51,17.39,2.27s7.82,7.79,9.44,13.1c.81,2.64,1.38,5.35,1.91,8.07.69,3.52,1.4,7.08,1.19,10.69-.17,2.94-1.06,6-3,8.27s-4.87,3.36-7.81,3.83c-3.24.52-6.58.48-9.85.61-3.65.15-7.31.29-10.96.44-7.31.29-14.62.59-21.93.88-29.07,1.17-58.15,2.34-87.22,3.51-3.65.15-7.31.29-10.96.44-3.23.13-6.53.46-9.75.12-2.86-.3-5.58-1.47-7.18-3.95-1.37-2.13-1.81-4.72-1.9-7.21-.1-2.7.2-5.38.55-8.05.47-3.63.93-7.26,1.4-10.9.41-3.23.62-6.57,1.41-9.74.33-1.32.81-2.65,1.7-3.7-.03.04.76-.82.36-.52.03-.02.09-.03.11-.04.27-.16.65-.23.94-.33l3.69-1.31c1.2-.43.69-2.36-.53-1.93l-3.97,1.41c-2,.71-3.08,2.5-3.79,4.45-1.09,2.98-1.23,6.36-1.63,9.49-.49,3.8-.97,7.59-1.46,11.39-.69,5.41-1.68,11.4.64,16.58,1.07,2.37,2.93,4.27,5.32,5.31,2.76,1.2,5.85,1.24,8.81,1.14,30.51-1,61.01-2.45,91.51-3.68,15.28-.61,30.57-1.23,45.85-1.84,5.9-.24,13.05.11,17.56-4.43s4.53-11.72,3.53-17.75-2.09-11.88-4.71-17.22-6.86-8.99-12.51-10.5c-6.22-1.67-12.86-.95-19.21-.64-7.61.38-15.21.76-22.82,1.14-30.5,1.52-61.01,3.04-91.51,4.56-3.78.19-7.57.38-11.35.57-1.28.06-1.29,2.06,0,2Z"/>
  </g>
  <g>
    <path class="st0" d="M185.49,102.13c.89-22.29,1.77-44.58,2.66-66.87.15-3.77.24-7.74-2.1-11.1-4.1-5.86-13.87-7.73-22.49-8.99-28.52-4.15-57.04-8.3-85.55-12.46C60.24.13,39.63-1.93,26.14,7.01c-11.23,7.44-13.26,19.85-14.46,31.12C.04,147.08-2.52,256.63,4.04,365.95c.48,8.06,1.2,16.55,7.11,23.31,11.27,12.9,35.42,13.92,55.84,13.55,21.45-.39,43.17-.81,63.78-5.19,20.6-4.38,40.31-13.23,51.24-27.05,14.68-18.57,11.14-41.95,7.99-63.54-10.54-72.26-11.46-145.24-2.73-217.49"/>
    <path class="st0" d="M185.99,102.13c.39-9.9.79-19.79,1.18-29.69.39-9.86.78-19.71,1.18-29.57.1-2.45.2-4.91.29-7.36.08-2.01.15-4.02-.11-6.02s-.91-3.97-2.09-5.64c-.9-1.27-2.04-2.34-3.3-3.24-2.89-2.06-6.37-3.24-9.78-4.11-3.87-.98-7.82-1.54-11.76-2.11-9.77-1.42-19.53-2.84-29.3-4.27s-19.62-2.86-29.42-4.28-18.93-2.83-28.42-4.12C66.44.63,58.36-.22,50.27.05c-7.45.25-15.09,1.45-21.75,4.97-3.22,1.71-6.16,3.98-8.53,6.76-2.24,2.64-3.95,5.68-5.2,8.9-2.63,6.74-3.26,14.03-4.01,21.16-1.03,9.8-1.98,19.6-2.86,29.42s-1.68,19.54-2.41,29.32-1.39,19.55-1.98,29.34-1.1,19.57-1.54,29.36-.81,19.66-1.11,29.5-.51,19.59-.66,29.38S0,237.74,0,247.53s.07,19.6.21,29.39.36,19.68.66,29.52.66,19.59,1.09,29.39c.44,9.8.95,19.59,1.53,29.38.46,7.77,1.1,15.94,5.78,22.49,3.85,5.39,9.71,8.87,15.85,11.09,6.83,2.46,14.12,3.53,21.33,4.09,7.76.6,15.54.53,23.32.39,9.61-.18,19.23-.39,28.82-1.01s18.83-1.58,28.11-3.31c8.32-1.55,16.54-3.73,24.43-6.81,7.26-2.83,14.3-6.4,20.57-11.06s11.31-10.01,14.98-16.62,5.69-14.37,6.33-22.06.06-15.72-.89-23.51c-1.07-8.78-2.49-17.52-3.62-26.3-1.24-9.68-2.31-19.38-3.2-29.09-.89-9.7-1.62-19.41-2.17-29.14-.55-9.71-.93-19.44-1.13-29.16s-.24-19.53-.09-29.29.46-19.44.95-29.15,1.15-19.42,1.99-29.12,1.78-18.74,2.9-28.08c.08-.64-.92-.63-1,0-1.16,9.59-2.15,19.19-2.97,28.81-.82,9.61-1.47,19.24-1.95,28.87s-.79,19.27-.93,28.91-.11,19.28.09,28.92.57,19.29,1.11,28.92,1.25,19.28,2.13,28.89,1.93,19.25,3.15,28.85c1.11,8.74,2.5,17.43,3.6,26.17.97,7.69,1.62,15.48,1.11,23.23-.52,7.74-2.31,15.43-6,22.3s-8.75,12.2-14.76,16.68-13.25,8.25-20.49,11.07c-7.82,3.05-15.96,5.22-24.2,6.77-9.27,1.74-18.67,2.72-28.08,3.32s-18.97.82-28.46,1c-7.74.14-15.48.23-23.2-.35-7.2-.54-14.47-1.58-21.3-4.01-6.2-2.2-12.18-5.75-15.91-11.31-4.51-6.74-4.86-15.04-5.32-22.87-.57-9.71-1.07-19.42-1.5-29.13s-.78-19.42-1.07-29.14c-.28-9.71-.5-19.43-.64-29.14s-.21-19.43-.2-29.14.08-19.35.22-29.02.37-19.51.66-29.26.65-19.34,1.08-29,.94-19.41,1.52-29.11c.58-9.7,1.23-19.4,1.95-29.09s1.51-19.39,2.38-29.07c.86-9.69,1.8-19.37,2.81-29.05.76-7.27,1.3-14.71,3.79-21.64,1.16-3.24,2.78-6.34,4.96-9.02,2.34-2.87,5.25-5.19,8.51-6.93,6.62-3.55,14.28-4.71,21.7-4.93,8.07-.24,16.13.61,24.11,1.71,9.44,1.3,18.86,2.73,28.28,4.11s19.37,2.82,29.05,4.23,19.37,2.82,29.05,4.23c3.93.57,7.87,1.12,11.73,2.08,3.43.85,6.92,2,9.83,4.08,1.32.94,2.5,2.1,3.34,3.49,1.09,1.78,1.56,3.84,1.69,5.91s0,4.26-.09,6.38l-.29,7.24c-.39,9.81-.78,19.63-1.17,29.44-.37,9.4-.75,18.8-1.12,28.19-.03.64.97.64,1,0h0Z"/>
  </g>
</svg>