<svg width="1263" height="409" viewBox="0 0 1263 409" fill="none" xmlns="http://www.w3.org/2000/svg">
<path d="M40.6943 59.8956C58.1284 55.6863 85.9115 48.177 99.5551 44.4385C120.137 44.4315 139.063 44.3876 150.327 44.1112C163.724 43.7826 166.21 43.1446 273.404 42.1684C380.599 41.1921 586.27 39.9162 692.947 38.2924C799.624 36.6685 807.032 34.4077 812.409 33.7977C820.844 32.8408 842.943 27.5475 883.282 21.5124C928.378 14.7657 957.628 9.14525 969.341 8.34752C998.008 6.39501 1022.88 2.83238 1040.91 2.22903C1070.09 1.25278 1123.26 -2.76653 1157.91 3.20527C1173.04 5.81505 1193.45 9.4752 1201.51 22.5853C1210.63 37.4031 1223.99 48.6476 1225.96 62.2057C1228.18 77.4198 1234.42 95.3891 1240.09 112.169C1245.76 128.919 1245.47 145.571 1255.49 157.898C1260.19 163.678 1264.72 202.434 1262.35 256.325C1261.41 277.735 1265.21 297.244 1260.15 322.285C1256.38 340.911 1255.84 353.464 1247.26 359.247C1238.16 365.385 1231.97 373.016 1199.33 374.055C1169.28 375.012 1113.32 374.009 1082.83 375.67C1047.34 377.603 1037.27 380.334 1016.35 380.493C974.9 380.807 942.989 384.297 931.069 385.601L930.581 385.654C921.825 386.611 913.624 387.873 868.04 388.226C826.813 388.545 751.007 388.545 710.223 388.873C669.439 389.202 663.85 390.025 654.008 390.159C630.5 390.478 608.585 393.262 587.428 393.706C557.028 394.344 533.882 395.557 506.594 395.958C484.913 396.277 448.204 395.382 422.88 397.263C383.837 400.163 365.145 403.314 315.695 403.691C273.8 404.01 194.887 404.01 153.189 404.339C111.492 404.667 107.236 405.769 103.687 406.281C79.2566 409.809 40.8786 410.72 29.6322 403.991C19.9069 398.172 3.20989 395.513 0.785789 379.449C-0.767619 369.155 0.390902 360.81 0.804714 346.44C2.39578 291.19 5.31693 279.536 7.08418 263.807C8.64698 249.897 9.80039 234.501 10.8501 220.958C12.4129 200.795 16.6419 167.825 17.4402 147.691C19.342 99.7286 19.8795 78.5979 27.8151 68.2469C31.2609 63.7522 35.6687 61.109 40.6943 59.8956Z" fill="#FDF3E5"/>
</svg>
