<?xml version="1.0" encoding="UTF-8"?>
<svg id="Layer_1" xmlns="http://www.w3.org/2000/svg" version="1.1" viewBox="0 0 139.04 139.4">
  <!-- Generator: Adobe Illustrator 29.8.3, SVG Export Plug-In . SVG Version: 2.1.1 Build 3)  -->
  <defs>
    <style>
      .st0 {
        fill: #fdf3e5;
      }
    </style>
  </defs>
  <path class="st0" d="M49.58,46.92c2.65.36,5.7,2.49,7.9,3.94,3.15-7.09,4.18-14.73,10.28-20.12s13.8-6.85,21.86-5.59c.96-2.81,1.79-5.76,1.64-8.77-4.4-1.58-3.96-7.29-3.59-11.14.31-3.22,2.2-4.66,5.34-4.93,4.63-.41,13.57-.41,18.2,0,2.37.21,4.71,1.32,5.22,3.86.4,1.97.35,8.55-.7,10.18-1.61,2.5-3.09.39-2.71,4.29.94,9.75,8.23,15.07,10.42,24.33s.37,18.96,1.07,28.15l14.52,26.59c.21,2.16-2.63,3.97-4.37,2.35l-10.24-17.6v54.7c0,.9-2.26,2.55-3.34,2.19H17.97c-1.08.36-3.34-1.29-3.34-2.19v-54.7l-10.24,17.6c-2.01,1.57-4.96-.17-4.3-2.69,4.49-8.92,9.9-17.36,14.46-26.24.29-.56,1.1-1.15,1.18-1.55.11-.54-.95-4-1.04-5.13-.73-9.01,4.79-15.57,13.38-17.53-2.33-4.8-3.02-8.62-1.37-13.8s2.82-6.66,7.95-4.43c7.13,3.1,10.86,10.62,9.21,18.23,1.81.17,3.97-.24,5.73,0h0ZM110.99,5.85h-17.77v5.53h17.77s0-5.53,0-5.53ZM98.75,42.58h18.96c-.9-4.17-4.01-7.21-5.99-10.79-2.58-4.66-4.14-9.91-4.27-15.27h-10.44c-.57,3.81-1.07,7.68-2.59,11.27.81,1.55,2.21,2.41,3.08,4.01,1.92,3.53,1.79,6.93,1.25,10.79h0ZM57.29,69.04h25.87l10.2-28.11c2.55-14.56-17.36-12.77-23.36-4.41l5.79,12.29c.42,2.58-2.95,4.64-4.67,2.27l-4.73-8.89-2.67,8.43c.99,3.65,11.22,17.27,1.65,15.29l-4.51-7.92-3.56,11.06h0ZM37.93,47.71c2.25-5.32.05-12.52-5.91-13.82-2.02,5.56.03,12.16,5.91,13.82ZM118.89,48.11h-22.51l-7.11,20.93h29.62v-20.93ZM51.36,69.04l3.95-11.3c.29-2.98-5.97-5.55-8.5-5.69-3.51-.2-6.31,2.4-8.28,2.4-2.47,0-4.59-2.94-8.99-2.3-8.66,1.26-11.21,9.39-8.19,16.89,0,0,30.01,0,30.01,0ZM116.92,74.57H22.14l11.46,20.34,23.46.24c3.09.43,4,3.04,1.64,5.12l-27.59.29-1.79-1.76-9.15-16.32v51.34h98.73v-51.34l-9.15,16.32-1.79,1.76-27.59-.29c-2.36-2.08-1.45-4.69,1.64-5.12l23.46-.24,11.46-20.34h0Z"/>
  <path class="st0" d="M33.08,112.17c5.56.33,12.28-.73,17.7-.09.96.11,2.34.7,2.75,1.59s.39,10.54.21,12.05c-.3,2.55-1.89,2.78-4.14,2.97-3.85.33-10.79.32-14.64,0-2.24-.19-3.85-.41-4.14-2.97-.27-2.35-.27-8.33,0-10.68.17-1.46.82-2.43,2.27-2.87h-.01ZM48.2,117.61h-11.85v5.53h11.85s0-5.53,0-5.53Z"/>
  <circle class="st0" cx="69.53" cy="97.93" r="2.71"/>
</svg>