<?xml version="1.0" encoding="UTF-8"?>
<svg id="Layer_1" xmlns="http://www.w3.org/2000/svg" version="1.1" viewBox="0 0 76.04 99.41">
  <!-- Generator: Adobe Illustrator 29.8.3, SVG Export Plug-In . SVG Version: 2.1.1 Build 3)  -->
  <defs>
    <style>
      .st0 {
        fill: #c95127;
      }
    </style>
  </defs>
  <path class="st0" d="M31.11,95.2c2.1.45,2.15,3.94-.28,3.95-7.12-.62-15.58.81-22.53,0-1.45-.17-2.52-1.31-1.89-2.75.56-1.29,4.08-4.91,5.27-5.99,6.79-6.22,15.5-9.84,24.64-10.83-2.02-3.96-4.77-7.54-8.08-10.53-.46-.12-3.09,1.97-4.03,2.36-6.37,2.68-12.57-.68-16.27-5.96-1.17-1.68-1.9-3.55-3.29-5.16-.9-1.05-4.23-3.35-4.5-3.94-.71-1.57,1.29-3.15,2.41-4.05,11.16-8.98,33.09-3.66,27.7,13.36l7.17,7.87c-.63-11.18-3.32-22.06-6.76-32.65-9.62,2.81-18.42-2.59-21.47-11.88-2.55-7.75.07-13.71-1.46-21.06C6.68,2.75,3.25.62,11.4.07c11.34-.77,22.66,5.23,28.33,15.01,5.31,9.15,3.07,18.68-5.61,24.53,3.43,9.44,5.92,19.36,6.69,29.42l3.89-9.48,2.83-5.35c-7.14-8.49-3.02-17.95,5.76-22.94,5.97-3.39,14.3-4.35,20.65-1.41,4.03,1.87,1.25,3.4-.06,5.95-2.14,4.18-1.81,8.92-3.74,13.15-2.82,6.19-8.37,10.16-15.36,9.07-1.62-.25-2.83-1.06-4.37-1.36-3.58,7.3-6.86,14.93-7.91,23.06,10.63.67,21.51,6.17,28.29,14.35,1.27,1.53,3.5,4.66,0,5.08-7,.83-15.61-.62-22.79-.02-2.6-.42-1.64-3.92-.3-3.92h18.72c-13.85-15.54-39.99-15.65-53.76,0h18.45ZM16.75,4c-1.92-.19-4.1.14-6.05,0,2.86,7.1.04,14.75,1.65,21.85,1.85,8.18,8.12,13.15,16.65,11.64.02-.31,0-.61-.06-.92-.46-2.02-2.99-6.81-4.01-8.94-1.2-2.48-2.63-4.89-3.97-7.3-.65-1.94,1.24-3.25,2.98-2.4.56.27,3.87,6.84,4.42,7.96,1.56,3.17,2.82,6.49,4.46,9.63,11.81-8.23,4.1-22.15-5.88-27.91-2.68-1.55-7.11-3.3-10.18-3.61h0ZM70.94,32.72c-1.86-.19-3.9-.85-5.77-.87-8.15-.06-20.4,7.1-16.69,16.71.13.33.88,2.11,1.35,1.76,1.67-2.05,3.35-5.7,5.23-7.44s3.93-.3,3.37,1.96l-5.78,8.29c6.1,3.3,11.85-.46,14.2-6.34,1.13-2.82,1.15-5.82,1.98-8.72.56-1.96,1.63-3.48,2.11-5.35ZM24.77,65.93l-6.85-4.27c-1.6-1.49-.56-3.6,1.62-3.33.93.11,3.44,1.81,4.37,2.41,2.33,1.51,3.98,4.03,3.4-1.15-.25-2.28-1.83-4.38-3.75-5.54-5.68-3.4-13.39-2.91-18.48,1.31,4.78,3.51,6.61,11.97,13.15,13.02,2.05.33,5.78-.29,6.55-2.46h0Z"/>
  <circle class="st0" cx="39.51" cy="97.22" r="1.93"/>
</svg>