<?xml version="1.0" encoding="UTF-8"?>
<svg id="Layer_1" xmlns="http://www.w3.org/2000/svg" version="1.1" viewBox="0 0 150.67 111.57">
  <!-- Generator: Adobe Illustrator 29.8.3, SVG Export Plug-In . SVG Version: 2.1.1 Build 3)  -->
  <defs>
    <style>
      .st0 {
        fill: #c95127;
        stroke: #c95127;
        stroke-miterlimit: 10;
      }
    </style>
  </defs>
  <path class="st0" d="M150.56,100.97c-.68,5.28-5.75,10.06-11.03,10.58l-80.29.02c-13.55-.84-22.58-9.35-26.09-22.14-1.29-4.71-1.65-9.68-3.16-14.34h-4.41v7.79c0,.75-1.63,2.21-2.52,2.19-6.41-.43-13.69.64-19.99.03-1.79-.17-2.83-.92-3.08-2.8l.23-48.3c.66-.98,1.34-1.7,2.56-1.85,6.23-.74,13.89.55,20.28.02,2.9.82,2.62,3.37,2.52,5.86,12.32-.93,27.75-1.38,37.93,6.61,14.05,11.01,26.93,24.63,41.02,35.73,1.61,1.85,2.86,3.7,3.42,6.13l29.82.03c6.01.13,11.99,4.76,12.78,10.89.1.8.1,2.72,0,3.53v.02ZM19.71,38.34H5.89v40.87h13.82v-40.87ZM25.59,43.93v25.29h6.91c1.11,0,2.65,3.09,3.02,4.04,1.83,4.7,2.06,10.21,3.45,15.07,2.89,10.11,9.81,16.64,20.57,17.36h79.41c7.92-1.55,7.49-12.27-.62-13.21l-30.21-.05c-2.61,8.51-12.48,12.41-19.87,6.9l-34.24-27.84c-2.09-2.87,1.1-6.09,4.03-4.29l34.82,28.11c6.41,3.02,12.27-4.32,8.16-9.92-13.01-11.15-25.52-22.98-38.67-33.96-8.36-6.98-14.94-7.7-25.72-8.09l-11.04.6h0Z"/>
  <path class="st0" d="M150.56,26.29c.14,1.67.15,4.51,0,6.18-1.13,12.86-10.07,21.38-19.9,28.47-6.93,4.99-14.89,11.33-23.77,8-7.6-2.85-23.44-15.29-27.85-22.14-12.95-20.14-.04-48.87,25.46-46.64,2.15.19,6.93,2.2,7.68,2.2.47,0,3.35-1.27,4.27-1.51,17.06-4.33,32.65,8.37,34.11,25.43h0ZM98.15,6.08c-9.76,1.1-17.39,10.93-18.16,20.36-1.35,16.53,10.19,25.43,22.78,33.38,7.76,4.9,9.25,6,17.48,1,7.41-4.5,18.8-12.64,22.22-20.71,6.83-16.09-2.86-35.79-21.75-34.1-3.24.29-4.97,1.82-7.49,2.5-1.8.49-3.67-1.07-5.44-1.64-2.98-.95-6.52-1.14-9.63-.79h-.01Z"/>
  <circle class="st0" cx="48.74" cy="63.26" r="2.94"/>
  <path class="st0" d="M98.44,11.95c5.53-.75,10.08.77,13.78,4.9,2.99-2.73,5.4-4.71,9.65-4.99,15.78-1.05,21.29,18.06,13.05,29.52-1.06,1.47-5.76,6.37-7.29,6.83-2.36.7-4.33-1.34-3.7-3.7.42-1.56,5.84-5.53,7.22-8.07,4.34-8,.07-21.23-10.54-18.48-3,.78-5.93,6.2-8.15,6.29-3.15.12-5.32-5.78-9.18-6.42-9.85-1.65-13.58,9.34-10.59,17.06,1.93,5,8.88,9.9,13.24,12.93,1.92,1.33,7.26,4.1,8.45,5.37,2.05,2.18.04,5.57-2.83,4.92-2.14-.49-9.25-5.6-11.38-7.17-8.7-6.39-15.38-12.31-14.31-24.2.57-6.32,5.94-13.88,12.57-14.78h.01Z"/>
</svg>