<?xml version="1.0" encoding="UTF-8"?>
<svg id="Layer_1" xmlns="http://www.w3.org/2000/svg" version="1.1" viewBox="0 0 108.37 108.83">
  <!-- Generator: Adobe Illustrator 29.8.3, SVG Export Plug-In . SVG Version: 2.1.1 Build 3)  -->
  <defs>
    <style>
      .st0 {
        fill: #fdf3e5;
      }
    </style>
  </defs>
  <path class="st0" d="M19.21,53.06c1.95-.43,3.3-.81,5.21.08,2.88,1.35,8.75,11,11.41,14,5.14,5.79,12.27,9.04,16.36,16.21.74,1.3,1.12,2.68,1.75,3.92.13.26-.13.46.51.35.7-2.78,2.4-5.55,4.2-7.76,4.03-4.96,9.82-8.08,13.94-12.71,2.66-3,8.53-12.65,11.41-14,1.91-.9,3.26-.52,5.21-.08,2.34-4.1,4.51-8.37,6.98-12.39,1.98-3.22,4.14-6.55,8.58-4.98,4.01,1.43,4.1,5.14,2.91,8.57-2.65,7.65-6.32,16.29-9.52,23.79-1.2,2.81-2.46,5.98-3.95,8.63-3.52,6.29-9.58,10.7-14.47,15.86-.23.61,2.33,8.94,2.52,10.56.33,2.8-.96,4.91-3.78,5.47-5.68-.3-11.89.47-17.5.03-4.17-.33-5.89-3.04-6.53-6.92-.63-.1-.38.06-.51.35-1.2,2.62-1.06,5.2-4.61,6.24-2.54.74-15.78.61-18.94.33-8.05-.72-2.02-11.52-1.73-16.06-4.05-4.34-8.98-8.07-12.55-12.84-2.5-3.34-4.29-7.97-5.93-11.83-3.18-7.44-6.82-16.02-9.45-23.61-.99-2.86-1.37-5.59,1.34-7.67,3.76-2.89,7.1-.69,9.31,2.69,2.82,4.32,5.17,9.32,7.82,13.78h0ZM30.29,104.4h17.39c1.42,0,2.24-3.23,2.52-4.39,3.91-16.16-7.47-19.65-16.47-28.78-3.78-3.84-6.72-9.89-10.35-13.58-.76-.77-1.39-1.24-2.34-.38-.73,1.22,1.68,6.38,2.3,7.82,1.3,3.01,2.97,5.83,4.26,8.84.02,1.93-2.17,3.08-3.61,1.61-1.01-1.02-3.06-5.54-3.77-7.08-1.64-3.55-3.72-7.77-3.61-11.67-3.11-4.78-5.55-10.31-8.65-15.04-1.04-1.59-2.65-3.49-3.79-.87,2.97,7.65,5.82,15.46,8.99,23.05,1.31,3.15,2.7,6.81,4.27,9.79,3.69,7,10.81,11.51,15.73,17.59l.05,1.05-2.91,12.04h0ZM60.76,104.4h17.39l-2.91-12.04.05-1.05c4.92-6.07,12.04-10.58,15.73-17.59,1.57-2.98,2.96-6.65,4.27-9.79,3.17-7.59,6.02-15.4,8.99-23.05-1.14-2.62-2.75-.72-3.79.87-3.11,4.73-5.55,10.26-8.65,15.04.11,3.9-1.97,8.13-3.61,11.67-.71,1.54-2.77,6.06-3.77,7.08-1.42,1.44-3.76.3-3.61-1.62,1.27-3.01,2.96-5.84,4.25-8.84.62-1.44,3.03-6.6,2.3-7.82-.95-.86-1.58-.4-2.34.38-3.63,3.69-6.57,9.74-10.35,13.58-8.69,8.82-19.97,12.44-16.67,28,.31,1.48,1.11,4.89,2.72,5.17h0Z"/>
  <path class="st0" d="M72.08,41.83c6.84-7.19,16.33-20.09,10.47-30.27-3.95-6.86-12.42-9.29-19.45-5.48-3.49,1.89-4.89,5.28-9.72,4.79s-7.16-6.2-14.09-6.63c-2.22-.14-6.65,1.52-6.03-2.33.24-1.5,2.3-1.71,3.59-1.83,4.62-.43,9.37,1.2,13.04,3.92,1.42,1.05,2.32,2.72,4.45,2.71,1.77-.01,4.53-3.04,6.28-4.08,8.14-4.8,18.66-2.74,24.29,4.84,11.64,15.68-7.09,36.86-19.37,45.97-2.32,1.72-8.32,5.72-11.02,6.02-2.4.27-9.52-4.46-11.63-6.02-9.35-6.91-22.14-20.93-22.98-33.03-.13-1.92-.4-8.96,3.31-7.01,1.71.9.92,2.27.9,3.55-.26,13.29,12.64,27.36,23.11,34.37,1.26.85,6.08,3.91,7.29,3.71,1-.17,4.87-2.52,5.94-3.21,4.29-2.77,8.11-6.29,11.61-9.98h.01Z"/>
  <path class="st0" d="M61.13,22.74c2.48-.02,5.91-.36,7.37,2.13.75,1.28.69,6,.54,7.62-.41,4.62-4.33,4.16-7.91,4.06.19,4.81.24,7.79-5.29,8.16-6.7.44-9.25-.91-8.52-8.16-3.6.1-7.49.6-7.91-4.06-.14-1.56-.19-6.22.45-7.46,1.35-2.62,4.95-2.3,7.45-2.29.08-2.49-.6-5.35,1.74-7.02,1.58-1.13,6.28-1.12,8.23-.86,4.12.56,4.05,4.62,3.84,7.87h0ZM64.83,27.18h-5.8c-.45,0-2.1-1-2.1-1.36v-6.41l-.37-.37h-4.69l-.37.37v6.41c0,.36-1.65,1.36-2.1,1.36h-5.8v5.18h6.29c.32,0,1.6,1.05,1.6,1.36v6.54h5.43v-6.54c0-.31,1.29-1.36,1.6-1.36h6.29v-5.18h.02Z"/>
  <circle class="st0" cx="26.82" cy="6.91" r="2.11"/>
</svg>