<?xml version="1.0" encoding="UTF-8"?>
<svg id="Layer_1" xmlns="http://www.w3.org/2000/svg" version="1.1" viewBox="0 0 154.96 155.21">
  <!-- Generator: Adobe Illustrator 29.8.3, SVG Export Plug-In . SVG Version: 2.1.1 Build 3)  -->
  <defs>
    <style>
      .st0 {
        fill: #c95127;
      }
    </style>
  </defs>
  <circle class="st0" cx="38.16" cy="30.92" r="3.04"/>
  <g>
    <path class="st0" d="M79.29,0l5.54,2.48,25.92,19.95V2.27c0-.76,1.48-1.89,2.12-2.27h19.96c1.23.76,1.94,1.31,2.12,2.87l.04,38.15c4.42,3.89,9.51,7.05,14,10.82,2.31,1.94,4.06,3.37,5.15,6.36,4.3,11.8-9.53,21.23-19.2,13.64v41.53c5.03.91,9.9,4.99,12.06,9.59.63,1.33,1.04,3.95,1.58,4.78.33.52,1.91,1.57,2.54,2.3,8.09,9.26,2.5,23.11-9.23,25.17H13.05c-6.79-1.31-11.7-6.23-13.01-13.04v-4.24c.8-2.96,1.73-5.54,3.78-7.89.64-.73,2.21-1.79,2.54-2.3.54-.83.96-3.45,1.58-4.78,2.17-4.59,7.03-8.68,12.06-9.59v-41.53c-7.66,5.68-18.38,2.12-19.96-7.58.1-1.16-.15-2.51,0-3.64.35-2.69,2.42-5.77,4.39-7.57,6.34-5.78,14.71-10.57,21.21-16.33,3.09-1.71,6.23,1.66,3.9,4.51l-21.48,16.67c-4.8,5.2-.14,12.81,6.71,10.06l61.08-47c2.48-1.24,4,.62,5.82,1.96,19.6,14.35,38.22,30.13,57.76,44.58,6.46,3.78,12.57-3.92,7.62-9.45L80.27,6.75c-2.02-.95-3.8-.9-5.79.1l-23.82,18.26c-3.49,2.08-6.43-2.38-3.44-4.96,7.78-5.33,15.09-12.52,22.9-17.67C71.56,1.53,73.97.22,75.66,0,75.66,0,79.29,0,79.29,0ZM128.9,6.06h-12.1v21.07l12.1,9.25V6.06ZM77.4,27.62l-51.18,39.38-.11,45.58c.18.54,2.66.75,3.52,1.02,2.2.7,4.13,1.72,5.96,3.12.63.47,1.6,1.88,2.19,2.05.89.27,2.37,0,3.48.15,4.7.66,7.35,2.95,10.68,5.97l51.35-.06c3.01-3.15,6-5.29,10.43-5.92,1.11-.16,2.59.12,3.48-.15.59-.18,1.56-1.58,2.19-2.05,2.85-2.17,5.86-3.33,9.39-3.93l.07-45.58-50.76-39.48c-.21-.16-.43-.14-.68-.1h-.01ZM22.66,118.92c-4.04.47-7.93,3.41-9.45,7.2-.64,1.59-.66,3.66-1.41,4.95-.99,1.69-3.44,2.33-4.66,4.73-3.08,6.06.89,12.79,7.57,13.37,10.82.93,22.94-.73,33.9,0,5.32-.04,7.93-6.85,4.04-10.44-1.37-1.27-3.71-1.27-4.14-3.43-.16-.79.05-1.6-.1-2.33-.84-4.16-3.34-7.4-7.76-7.98-1.82-.24-3.76.55-5.23.09-1.05-.33-2.19-2.33-3.17-3.19-2.63-2.32-6.11-3.36-9.58-2.96h-.01ZM129.13,118.92c-4.4.51-5.61,2.56-8.39,5.23-2.04,1.97-4.01.46-6.68.88-4.33.69-6.69,3.83-7.51,7.93-.15.72.06,1.54-.1,2.33-.43,2.16-2.76,2.17-4.14,3.43-3.89,3.59-1.27,10.39,4.04,10.44,10.96-.73,23.08.93,33.9,0,6.59-.57,10.56-7.12,7.67-13.16-1.25-2.6-3.73-3.17-4.76-4.93-.68-1.16-.5-2.24-.86-3.38-1.89-5.85-6.9-9.5-13.16-8.77h0ZM100.77,130.96h-46.58c-.17,1.96,1.09,1.89,2.12,2.88.97.93,1.94,1.86,2.48,3.12l37.23.07c.71-1.2,1.49-2.07,2.47-3.04,1.08-1.06,2.45-1.05,2.28-3.03h0ZM59.03,149.15h36.9c-.76-1.95-1.64-3.89-1.51-6.06h-33.71c-.25,2.14-.81,4.1-1.68,6.06Z"/>
    <path class="st0" d="M77.18,69.12l.62-.19c6.52-10.12,21.38-7.88,25.61,3.15,4.32,11.26-2.59,19.14-10.21,26.31-3.6,3.39-9.56,8.92-13.47,11.67-1.77,1.25-2.78,1.23-4.53,0-3.89-2.73-9.87-8.29-13.47-11.67-7.68-7.21-14.63-15.22-10.12-26.52s19.36-13.04,25.56-2.74h0ZM64.1,68.59c-8.54,1.12-9.27,11.55-5.19,17.78,2.92,4.45,13.03,13.47,17.52,16.7.41.3.82.7,1.37.49,6.07-5.84,19.83-14.48,20.83-23.41,1.13-10.16-10.35-16.49-16.43-7.07-1.14,1.77-1.82,5.37-3.8,5.89-3.65.98-3.86-2.9-5.14-5.17-1.95-3.46-4.99-5.76-9.16-5.22h0Z"/>
  </g>
</svg>