<?xml version="1.0" encoding="UTF-8"?>
<svg id="Layer_1" xmlns="http://www.w3.org/2000/svg" version="1.1" viewBox="0 0 115.39 115.39">
  <!-- Generator: Adobe Illustrator 29.8.3, SVG Export Plug-In . SVG Version: 2.1.1 Build 3)  -->
  <defs>
    <style>
      .st0 {
        fill: #272f40;
      }
    </style>
  </defs>
  <path class="st0" d="M61.32,0c1.29.54,3.7-.07,4.74,1.01,1.15,1.2.78,3.12-.78,3.74-1.11.44-3.65-.21-4.96-.25C25.33,3.42-1.65,34.36,5.75,68.98c7.43,34.79,47.14,52.63,78.26,34.92,27.46-15.63,35.59-52.34,16.41-77.76-.36,1.38.42,3.02-.93,4.02-1.78,1.32-3.51-.11-3.69-2.1-.17-1.86-.22-6.54.03-8.32.12-.87.82-1.91,1.72-2.11,1.03-.23,8.51-.21,9.59,0,1.75.36,2.37,2.48,1.17,3.77-.13.13-1.05.69-1.11.69h-3.94c5.23,7.09,9.21,15.14,10.97,23.84,8.36,41.36-28.36,77.36-69.55,67.97C22.19,108.77,4.5,89.93.79,67.18L.04,61.28c.1-2.38-.14-4.83,0-7.21C1.72,25.44,25.48,1.67,54.11,0h7.21Z"/>
  <path class="st0" d="M55.19,14.71c37.8-2.38,60.04,42.93,34.86,71.35-25.63,28.92-73.62,12.01-75.37-26.47-.32-6.94,2.17-19.42,6.68-24.88,1.73-2.1,4.29-.92,4.14,1.65-2.39,4.1-4.34,8.25-5.33,12.93-5.88,27.9,18.41,52.09,46.3,45.85,25.43-5.69,37.73-35.29,24.1-57.59-11.4-18.65-35.81-23.89-54.2-12.14-2.17.27-3.43-2.15-1.98-3.8.73-.83,4-2.43,5.15-2.96,4.85-2.23,10.31-3.61,15.65-3.95h0Z"/>
  <path class="st0" d="M78.16,34.74c1.67-.17,3.12,1.86,2.17,3.31l-15.53,15.8c-.27.6.45,1.65.55,2.38,1.63,11.97-16.65,12.19-15.3.2.09-.79.82-2.02.57-2.58l-7.43-7.46c-1.72-2.4.61-4.93,3.1-3.33,1.49.86,6.73,7.33,7.74,7.59.47.12,1.59-.54,2.23-.62,1.81-.25,3.41.11,5.12.62l15.03-14.95c.45-.36,1.17-.91,1.74-.97h.01ZM60.96,57.67c0-1.79-1.45-3.24-3.24-3.24s-3.24,1.45-3.24,3.24,1.45,3.24,3.24,3.24,3.24-1.45,3.24-3.24Z"/>
  <path class="st0" d="M86.49,55.47c1.51-.34,5.1-.35,5.46,1.65.58,3.19-3.09,3.07-5.29,2.81-2.61-.31-2.38-3.97-.17-4.46Z"/>
  <path class="st0" d="M57.21,84.76c2.97-.49,3.13,3.33,2.71,5.42-.48,2.39-4.08,2.32-4.44.04-.12-.74-.11-3.5.09-4.17s.98-1.18,1.65-1.29h-.01Z"/>
  <path class="st0" d="M56.99,23.49c1.29-.33,2.76.27,2.97,1.65.11.72.11,3.52-.09,4.17-.61,1.94-4.03,1.68-4.39-.59-.23-1.47-.29-4.76,1.51-5.22h0Z"/>
  <path class="st0" d="M24.99,55.47c.7-.16,3.02-.14,3.79-.05,1.99.23,2.63,2.92.9,4.06-1,.66-4.22.68-5.23.05-1.57-.98-1.2-3.67.55-4.06h0Z"/>
  <circle class="st0" cx="73.33" cy="4.48" r="2.25"/>
  <circle class="st0" cx="28.89" cy="28.85" r="2.25"/>
</svg>