<?xml version="1.0" encoding="UTF-8"?>
<svg id="Layer_1" xmlns="http://www.w3.org/2000/svg" version="1.1" viewBox="0 0 143.69 143.39">
  <!-- Generator: Adobe Illustrator 29.8.3, SVG Export Plug-In . SVG Version: 2.1.1 Build 3)  -->
  <defs>
    <style>
      .st0 {
        fill: #fdf3e5;
      }
    </style>
  </defs>
  <path class="st0" d="M105.12,0c2.96.77,5.99,1.07,8.95,1.94,12.78,3.79,23.6,14.42,27.54,27.13.95,3.08,1.29,6.24,2.08,9.35v65.7c-.78,3.1-1.12,6.27-2.08,9.35-5.35,17.28-21.19,28.06-38.98,29.1s-43.68,1.13-61.54,0S7.65,130.14,2.54,113.04c-.88-2.94-1.18-5.96-1.95-8.92,1.4-21.2-1.87-44.79,0-65.7C2.46,17.51,19.04,1.78,39.16,0h65.96ZM37.92,5.72C21.16,7.61,7.62,22.06,6.16,38.68c4.15,33.55-15.72,90.87,32.73,98.29,33.78-4.15,91.7,15.83,99.2-32.57-4.2-33.53,15.85-90.8-32.2-98.76-21.65,1.5-46.72-2.3-67.97.09h0Z"/>
  <path class="st0" d="M118.9,117.85c2.73-2.77,5.34-7.59,6.19-11.37.09-21,2.31-44.69.74-65.57-.96-12.8-9.74-22-22.67-23.08-20.97-1.75-45.22.72-66.36.7-11.26,2.93-17.6,11.49-18.35,22.93-1.37,20.9.5,44.06.74,65.02,2.59,10.28,10.82,17.18,21.44,18.18,3.39.32,19.83-.73,20.93,1,1.65,2.59.24,4.33-2.55,4.65-22.02,2.54-43.46-3.18-46.15-28.11,1.29-20.22-1.65-42.4.03-62.38,1.27-15.01,13.23-26.46,28.2-27.59,20.29,1.28,42.56-1.65,62.62.03,41.92,3.51,23.72,62.83,27.7,89.94-1.24,15.27-12.82,26.97-28.23,28.12-4.33.32-13.82.53-17.94,0s-4.18-4.87.06-5.56c11.77-1.93,23.32,3.53,33.59-6.91h.01Z"/>
  <path class="st0" d="M69.24,33.02c38.04-3.16,56.82,46.43,25.78,69.11-29.41,21.5-69.14-5.77-60.05-40.89.75-2.9,3.07-11.13,7.15-9.92,3.57,1.05-.2,6.32-.87,8.38-12.94,39.71,39.57,61.05,59.08,28.78,15.68-25.93-8.36-56.94-37.68-48.67-2.16.61-11.28,5.31-9.4-1,.96-3.24,12.81-5.53,16-5.8h-.01Z"/>
  <path class="st0" d="M97.15,71.27c0,13.76-11.19,24.91-25,24.91s-25-11.15-25-24.91,11.19-24.91,25-24.91,25,11.15,25,24.91ZM91.71,71.27c0-10.76-8.76-19.49-19.56-19.49s-19.56,8.72-19.56,19.49,8.76,19.49,19.56,19.49,19.56-8.72,19.56-19.49Z"/>
  <path class="st0" d="M119.37,34.76c0,5.8-4.72,10.5-10.54,10.5s-10.54-4.7-10.54-10.5,4.72-10.5,10.54-10.5,10.54,4.7,10.54,10.5ZM113.86,34.76c0-2.76-2.25-5.01-5.02-5.01s-5.02,2.24-5.02,5.01,2.25,5.01,5.02,5.01,5.02-2.24,5.02-5.01Z"/>
  <ellipse class="st0" cx="47.64" cy="45.23" rx="2.79" ry="2.78"/>
  <ellipse class="st0" cx="72.14" cy="127.51" rx="2.74" ry="2.73"/>
</svg>