<?xml version="1.0" encoding="UTF-8"?>
<svg id="Layer_1" xmlns="http://www.w3.org/2000/svg" version="1.1" viewBox="0 0 112.1 111.9">
  <!-- Generator: Adobe Illustrator 29.8.3, SVG Export Plug-In . SVG Version: 2.1.1 Build 3)  -->
  <defs>
    <style>
      .st0 {
        fill: #fdf3e5;
      }
    </style>
  </defs>
  <path class="st0" d="M72.24,23.8c.35.55,2.77,1.74,3.35,2.62,1.85,2.84-2.53,7.26-4.91,8.56.04,4.83-.02,9.39-1.86,13.91-1.62,4-4.36,6.96-7.54,9.76l1.26,8.17,9.36,2.07.2-2.6c-.66-1.63-3.04-4.9-3.19-6.48-.37-3.72,5.79-1.84,7.85-2.47.69-.21,2.87-2.64,3.82-3.3,8.45-5.9,20.44-4.07,26.94,3.81,1.18,1.43,3.13,3.68,1.16,5.21-2.56,1.99-4.34-2.47-6.1-4.08-5.72-5.22-14.62-5.34-20.61-.5-.94.76-2.3,2.68-3.29,3.07-1.2.47-2.69.14-3.96.24-.19.14,1.92,3.45,2.03,4.22.2,1.5-.64,3.84-.5,5.83.96,13.6,18.21,19.53,27.35,9.55,1.33-1.45,2.69-4.99,5.21-3.18,1.98,1.42-.3,4.18-1.39,5.47-1.53,1.81-3.95,3.79-6.07,4.87-.71.36-3.59,1.33-3.7,1.65l-.03,19.56c-.17,1.56-.91,2.03-2.41,2.17l-93.52-.13c-.8-.38-1.49-1.11-1.52-2.04.87-8.96-2.16-20.74,2.6-28.7,6.75-11.28,20.93-10.99,32.23-14.2l1.28-7.94c-4.78-3.4-8.5-8.52-9.52-14.4-.57-3.25-.33-6.47-.36-9.76-1.97-1.15-3.45-2.42-4.42-4.54-2.1-4.58.78-4.51,3.78-6.83-.1-5.31,1.66-10.66,5.22-14.62.89-.99,2.69-2.06,3.23-2.75.82-1.05.57-2.25,2.24-3.49,4.5-3.36,17.71-2.96,22.84-.96,2.92,1.14,2.44,2.09,3.88,4.01.78,1.04,3.02,2.57,4.07,3.82,2.53,2.99,4.11,6.71,4.67,10.59.14.98-.15,3.06.36,3.84l-.03-.03ZM58.68,6.06c-3.53-1.32-7.79-2-11.59-1.8-1.14.06-8.03,1.04-8.24,1.94l5.33,8.11h8.9l5.6-8.26h0ZM67.59,22.34c.04-4.89-2.34-9.34-5.98-12.46-2.84,3.02-3.84,8.48-8.64,8.91-2.15.19-6.8.23-8.92,0-4.14-.47-5.64-5.99-8.14-8.65-3.63,3.06-5.8,7.39-5.72,12.21h37.4ZM28.34,26.98l-2.21,1.81c.96,1.18,2.02,2.2,3.66,2.21h37.92c3.04-.59,4.98-2.8,1.03-4.09,0,0-40.4.07-40.4.07ZM66.06,35.31H30.7v6.49c0,10.71,12.36,18.46,22.39,15.77,5.64-1.52,12.98-8.34,12.98-14.5v-7.76h-.01ZM57.15,61.01c-5.53,1.8-11.3,2.34-16.79,0l-.98,6.7,9.65,6.42,9.25-6.49s-1.13-6.63-1.13-6.63ZM34.26,84.92l.75-.13,9.93-7.63c.1-.37-1.26-1.21-1.6-1.45-2.23-1.6-4.62-3.05-6.94-4.52l-6.98,1.27s4.84,12.46,4.84,12.46ZM63.51,84.92l4.83-12.06c-.12-.33-.39-.31-.64-.39-.73-.26-6.05-1.38-6.59-1.28-2.2,1.82-6.08,3.54-8.01,5.49-.21.21-.37.22-.27.61l10.68,7.64h0ZM4.49,88.87v18.7h10.18v-14.88c0-.74,1.41-1.45,2.16-1.42s2.17,1.03,2.17,1.67v14.63h19.84l-13.78-33.79c-8.54.56-19.48,5.46-20.57,15.09ZM93.28,90.78c-8.23.44-16.06-4.17-19.55-11.61l-1.56-3.9-13.23,32.31h19.84v-14.63c0-1.16,2.6-2.39,3.82-1.03.17.18.76,1.4.76,1.53v14.12h9.92v-16.79ZM51.77,89.46l2.56-5.69c-1.54-.89-3.21-2.88-4.72-3.65-.43-.22-.59-.35-1.11-.19-.28.09-4.63,3.25-4.78,3.51-.47.81,2.2,4.84,2.27,6.03h5.78ZM40.1,86.72c-.27-.07-.5-.02-.75.12-.43.23-3.01,2.38-3,2.75l4.21,10.28.57.33,1.29-8.01-2.32-5.46h0ZM57.15,100.19l4.32-10.56c0-.56-2.93-2.84-3.43-2.93s-.32.13-.44.33c-.39.65-2.18,4.61-2.21,5.16-.04.91.98,6.25,1.28,7.33.08.29.09.61.48.66h0ZM53.59,107.57l-2.53-13.62c-.8-.11-4.09-.36-4.47.13l-2.41,13.49s9.41,0,9.41,0Z"/>
  <path class="st0" d="M101.1,64.9c.58.58.83,2.06.19,2.72l-10.61,10.75c-.99.48-1.65.57-2.6-.06-.56-.37-5.22-5.16-5.35-5.58-.68-2.16,1.47-3.79,3.32-2.56.59.39,3.07,3.3,3.31,3.3l8.79-8.76c.71-.65,2.36-.43,2.97.19h-.02Z"/>
  <circle class="st0" cx="109.94" cy="70.66" r="2.16"/>
  <path class="st0" d="M49.27,43.96c2.3-.7,4.73,1.8,2.97,3.74-.71.78-4.8.79-5.83.53-1.46-.37-2.13-2.18-1.91-3.56.13-.85,1.9-6.14,2.35-6.56,1.09-1,3.32-.58,3.65.96.3,1.39-.81,3.54-1.22,4.9h-.01Z"/>
</svg>