<?xml version="1.0" encoding="UTF-8"?>
<svg id="Layer_1" xmlns="http://www.w3.org/2000/svg" version="1.1" viewBox="0 0 140.72 110.84">
  <!-- Generator: Adobe Illustrator 29.8.3, SVG Export Plug-In . SVG Version: 2.1.1 Build 3)  -->
  <defs>
    <style>
      .st0 {
        fill: #fdf3e5;
      }
    </style>
  </defs>
  <path class="st0" d="M.27,17.92C1.82,8.36,9.26,1.09,19,.37c17.91.91,36.95-1.17,54.73,0,8.31.55,15.7,6.28,17.97,14.33.18.65.75,2.58.75,3.09v16.31h30.5c8.78,0,16.77,10.19,17.38,18.49.53,7.2.53,19.11,0,26.32-.57,7.58-5.77,14.37-12.78,17.07-2.24.86-4.26,1.09-6.6,1.47-.39,3.65,2.02,8.14-.31,11.33-4.22,5.77-13.84-1.93-16.95-5.76-1.39-1.71-2.2-3.79-3.47-5.57-11.97-.98-26.51,3.33-35.37-7.04-6.6-7.72-4.64-17.31-4.93-26.71h-19.69c-2.23,5.79-7.92,11.19-13.8,13.17-1.7.57-2.45.69-4.16.04-5.53-2.1-2.32-8.85-2.56-13.19-7.62-.36-14.69-4.94-17.72-11.98-.67-1.56-1.52-4.19-1.68-5.85-.86-8.82.64-18.99,0-27.95l-.03-.02ZM86.98,34.09v-15.76c0-5.7-7.59-12.51-13.27-12.47H19.27c-7.17.58-12.79,6.15-13.52,13.29C7.04,31.81.03,56.36,19.04,58.17c2.27.22,5.61-.81,6.1,2.38.52,3.41-.44,7.66-.8,11.08,3.94-1.12,7.86-4.49,9.89-8.04.62-1.09,2.05-5.39,3.37-5.39h22.29c0-3.73.1-7.56,1.36-11.11.81-2.26,2.63-5.89,5.46-3.54,2.1,1.74-.17,4.43-.67,6.43-1.39,5.58-1.09,20.82-.68,26.99.57,8.62,5.93,14.36,14.63,14.94,7.55.5,15.53-.47,23.13.12,1.83.89,2.04,3.04,2.95,4.72,2.17,4.02,5.86,7.09,10.17,8.58-.33-3.4-1.32-7.71-.8-11.08.47-3.08,2.96-2.12,5.04-2.35,7.62-.83,13.74-5.48,14.37-13.55.53-6.8.51-18.42,0-25.23s-6.14-13.01-13.27-13.57c-12.4-.97-26.02.77-38.55-.02-2.22-.23-3.48-2.94-1.93-4.62.15-.16,1.27-.84,1.35-.84h4.51l.02.02Z"/>
  <path class="st0" d="M41.03,13.4c.32-2.17,2.01-3.09,4.1-2.45.36.11,1.38,1.14,1.38,1.35v5.07h10.26c2.16,0,3.56,2.08,2.7,4.09-.98,2.32-4.7,1.26-5.17,1.93-.94,5.1-3.5,9.79-6.64,13.85,0,.42,4.61,3.95,5.34,4.47,1.3.93,5,2.82,5.74,3.7,1.54,1.83.17,4.69-2.23,4.59-1.29-.05-5.54-3.01-6.79-3.91-2.02-1.44-3.82-3.12-5.79-4.62-1.99,1.46-3.78,3.19-5.79,4.62-1.32.94-5.7,3.94-7.05,3.9-2.35-.06-3.46-2.83-1.98-4.59.75-.89,4.44-2.76,5.74-3.7.7-.5,5.33-4.12,5.33-4.47-1.22-1.79-4.83-6.46-4.83-8.5,0-1.65,1.84-2.82,3.36-2.59,2.15.32,3.48,5.43,5.22,6.84,2.14-2.96,4.16-6.21,4.79-9.86h-17.92c-.28,0-1.69-.65-1.96-.92-1.7-1.7-.28-4.84,1.96-4.84h10.26c.13-1.24-.18-2.78,0-3.97h-.03Z"/>
  <path class="st0" d="M103.57,50.9c.32.33.55.9.72,1.33,1.97,8.12,5.51,16.28,7.44,24.34.48,2-.21,3.16-2.32,3.7-4.89,1.26-3.68-3.05-5.19-6.05l-8.58-.14c-.53.13-1.14,4.91-1.94,5.79-1.36,1.49-6.53.1-5.84-2.54l7.82-25.62c1.22-2.56,6.14-2.62,7.9-.81h-.01ZM102.84,69.17l-2.74-10.96c-.43.04-.41.42-.53.7-1.22,3.08-1.67,7.07-2.75,10.26h6.02Z"/>
  <ellipse class="st0" cx="72.15" cy="38.64" rx="2.7" ry="2.71"/>
</svg>