<?xml version="1.0" encoding="UTF-8"?>
<svg id="Layer_1" xmlns="http://www.w3.org/2000/svg" version="1.1" viewBox="0 0 89.58 134.17">
  <!-- Generator: Adobe Illustrator 29.8.3, SVG Export Plug-In . SVG Version: 2.1.1 Build 3)  -->
  <defs>
    <style>
      .st0 {
        fill: #272f40;
      }
    </style>
  </defs>
  <path class="st0" d="M48.5,0c32.95,3.89,50.73,37.33,35.38,66.98-5.76,11.13-14.28,19.64-21.37,29.6-.33.46-1.79,2.22-1.37,2.57,10.52-.22,38.02,10.5,25.01,24.13-13.84,14.5-69.41,14.64-82.94-.26-1.27-1.39-3.15-4.94-3.17-6.81-.08-11.15,19.75-16.26,28.45-17.32C16.44,81.55-.69,66.14.02,43.25.71,20.99,18.94,2.03,41.12,0h7.38ZM41.02,5.4c-14.38,1.19-27.99,11.28-33.08,24.75-12.24,32.36,20.61,55.92,35.91,80.19l1.22.87c15.97-24.79,52.14-52.04,34.77-84.99-7.49-14.21-22.79-22.15-38.82-20.82ZM57.02,103.42c-1.84,2.4-9.45,14.49-11.53,15.07-.49.14-.86.13-1.35,0-1.99-.55-9.38-12.32-11.19-14.62l-.99-.49c-8.31.38-39.58,9.23-20.53,19.32,15.76,8.34,45.85,8.13,62.34,1.89,10.42-3.94,15.84-9.79,3-16.09-5.93-2.91-13.27-4.02-19.76-5.08h0Z"/>
  <path class="st0" d="M63.11,44.62c0,10.06-8.19,18.22-18.29,18.22s-18.29-8.16-18.29-18.22,8.19-18.22,18.29-18.22,18.29,8.16,18.29,18.22ZM58.03,44.59c0-7.27-5.92-13.17-13.22-13.17s-13.22,5.89-13.22,13.17,5.92,13.17,13.22,13.17,13.22-5.89,13.22-13.17Z"/>
  <path class="st0" d="M78.39,46.56c-.85.86-3.45.84-4.13-.22-.91-1.42-.25-3.98-.54-5.63-1.59-9.19-6.88-16.68-14.87-21.39-2.32-1.37-5.7-1.39-5.88-4.37-.28-4.49,6.39-1.21,8.33-.16,8.39,4.54,15.11,13.61,16.98,22.95.36,1.78,1.29,7.63.11,8.82Z"/>
  <ellipse class="st0" cx="45.03" cy="13.11" rx="2.54" ry="2.53"/>
</svg>