<?xml version="1.0" encoding="UTF-8"?>
<svg id="Layer_1" data-name="Layer 1" xmlns="http://www.w3.org/2000/svg" viewBox="0 0 150.95 102.39">
  <path d="M0,10.22C3.03-3.59,17.94.76,28.31.32c2.05.53,2.72,3.34,1.3,4.87-.16.18-1.37.9-1.46.9H11.5l55.72,55.98c5.01,4.12,11.52,4.11,16.52,0l41.56-41.8h-33.17c-.28,0-1.54-1.15-1.75-1.49-1.18-1.89.02-3.57,1.82-4.35l38.85-.07,8.41-8.26H52.92c-.28,0-1.54-1.15-1.75-1.49-1.23-1.96.14-4.24,2.34-4.42h86.4c5.96.51,10.58,5.08,11.06,11.07v80.07c-.47,5.99-5.1,10.57-11.06,11.08H11.04c-5.18-.23-10.39-4.87-11.04-10.05V10.22ZM5.9,91.75l41.56-41.21L6.79,9.77l-.59.02c.16.4-.3.97-.3,1.17v80.79ZM145.05,91.75V10.96c0-.09-.51-1.49-.88-1.19l-40.68,40.77,41.56,41.21ZM140.33,96.47l-41.13-41.64c-7.63,6.74-12.92,16.7-24.48,16.25-10.59-.41-15.8-9.98-22.98-16.25L10.61,96.47h129.72Z"/>
  <ellipse cx="80.55" cy="17.3" rx="2.96" ry="2.97"/>
  <ellipse cx="40.5" cy="3.12" rx="2.95" ry="2.96"/>
</svg>