<?xml version="1.0" encoding="UTF-8"?>
<svg id="Layer_1" data-name="Layer 1" xmlns="http://www.w3.org/2000/svg" viewBox="0 0 139.04 120.96">
  <path d="M134.3,35.25c2.4-1.16,4.43-.06,4.74,2.56l-.31,81.46c-.56,1.31-2.14,1.65-3.44,1.7H3.76c-2.15,0-3.85-1.02-3.76-3.35V37.8c.34-2.75,2.28-3.54,4.76-2.56l.05-26.22c.59-3.97,2.9-6.97,6.68-8.33C48.8-.7,86.42.51,123.85.08c5.49.38,9.33,3.05,10.35,8.61l.11,26.55ZM14.24,41.17v-14.41c0-2.23,5.71-2.53,7.52-3.53,2.06-1.14,4.11-3.59,4.83-5.83.67-2.08.23-5.62,2.54-6.15l44.76.09c3.06,1.36,2.48,4.62-.64,5.33h-40.59c-1.96,6.58-5.95,11.47-12.84,13.11l.03,14.87,33.5,20.4,31.98.03,33.59-20.52.31-14.79c-6.64-1.62-11.11-6.43-12.64-13.03-3.11-.35-9.22,1.38-8.24-3.79.48-2.52,8.25-2.01,10.48-1.81,4.01.37,2.59,3.67,3.82,6.84,1.35,3.46,4.36,5.41,7.79,6.43.92.27,1.94,0,2.78.38.35.16,1.58,1.73,1.58,1.97v14.02l3.88-2.04.04-29.73c-.21-1.32-1.54-2.73-2.81-3.12H13.12l-2.53,2.21-.3,30.11c.21,1.12,2.95,2.28,3.95,2.96ZM133.5,113.83V41.96l-58.45,35.74,58.45,36.13ZM5.55,42.35v71.87l58.45-36.53L5.55,42.35ZM75.85,70.39h-12.64c-.22.91.17.65.5.91,1.6,1.24,3.97,2.19,5.68,3.36.52.05,5.13-2.83,5.94-3.38.36-.24.72.07.52-.88ZM14.24,115.41h110.97l-55.51-33.96L14.24,115.41Z"/>
  <path d="M66.68,21.53c5.26-.64,11.25.67,15.3,4.22,1.78,1.56,3.72,4.29.57,5.73-2.02.92-5.74-3.11-8.29-3.93-13.55-4.4-24.36,11.11-15.79,22.1,6.76,8.66,20.81,6.21,24.4-4.04.82-2.33.53-6.75,4.45-5.47s-.11,9.41-1.51,11.57c-8.17,12.62-27.74,11.08-33.94-2.57-5.29-11.67,1.92-26.06,14.8-27.62Z"/>
  <path d="M70.8,33.97c.9.53,3.51-.33,3.09,2.26-.37,2.25-2.81-.19-3.18.21l-.02,2.89c6.19,2.36,3.82,7.76-1.34,9.36-.59-1.22-2.07-.86-3.35-1.82-1.49-1.12-1.77-2.6.17-3.18l2.96,1.43c1.05-4.21-1.98-3.16-3.35-5.14-.92-1.33-.89-3.32.18-4.54,1.19-1.36,3.55-.78,3.17-2.56,1.37-.43,1.27.86,1.66,1.09Z"/>
  <circle cx="87.8" cy="13.88" r="2.74"/>
  <path d="M54.8,102.86l29.72.12c2.18,1.65,1.48,4.6-1.37,4.93-8.42.98-18.65-.75-27.26,0-2.85-.07-3.63-3.8-1.09-5.06Z"/>
</svg>