<?xml version="1.0" encoding="UTF-8"?>
<svg id="Layer_1" xmlns="http://www.w3.org/2000/svg" version="1.1" viewBox="0 0 109.38 113.78">
  <!-- Generator: Adobe Illustrator 29.8.3, SVG Export Plug-In . SVG Version: 2.1.1 Build 3)  -->
  <defs>
    <style>
      .st0 {
        fill: #fdf3e5;
      }
    </style>
  </defs>
  <path class="st0" d="M89.92,58.68c1.6-1.42,2.4-3.48,4.01-4.9,3.48-3.07,8.73-3.79,12.96-1.87,1.87.85,3.09,1.85,2.17,4.08l-19.02,26.72-.14,25.44c-.45,2.42-2.28,4.45-4.57,5.25-26.5.73-53.17.2-79.72.27-2.73-.57-4.71-2.51-5.37-5.23V39.43c.99-2.42,4.11-1.72,4.41.76l.06,67.65c.35,1.04,1.3,1.47,2.37,1.5h76.01c.76.29,2.44-1.12,2.44-1.69v-18.48c-3.12,3.73-8.8,12.31-13.89,13.12-4.65.73-11.02-.32-15.84-.06-3.07-1.1-3.99-4.19-2.84-7.11-2.43,1.18-6.92,5.88-9.56,5.58-3.36-.37-3.42-3.73-2.84-6.36-3.56,2.13-7.49,7.55-11.75,8.01-1.16.13-6.43.15-7.21-.29-1.31-.74-1.22-2.75-.03-3.59,1.48-1.05,4.86-.24,6.71-.53,2.18-.34,8.17-6.34,10.36-7.99,1.52-1.15,2.62-2.29,4.66-1.57,3.21,1.14,2.36,4.17,1.93,6.73l8-5.57c1.6-.48,3.51.14,4.37,1.6,1.4,2.37-.71,4.35-.48,6.81h9.05c0-3.74,2-8.02,3.92-11.2,4.4-7.29,10.77-14.3,15.46-21.5V24.82h-15.38c-.1,0-1.73-.54-1.94-.64-1.26-.61-3.1-3.01-3.1-4.4V4.4H6.32c-.73,0-1.6,1.16-1.69,1.93-.52,4.28.46,9.53-.04,13.91-.6,2.28-4.04,2.44-4.35.07-.31-2.23-.35-13.45.06-15.46C.8,2.41,3.82.07,6.3,0l61.72.07c7.57,6.89,14.83,14.36,21.89,21.78v36.83h0ZM82.17,20.17l-12.41-12.41v12.02l.39.39h12.02ZM100.46,55.39c-4.21.62-6.45,5.99-8.88,8.97-.07.26,3.17,2.75,3.44,2.83.38.1.64-.05.86-.35l8-11.12c.01-.6-2.89-.4-3.42-.32h0ZM88.77,68.06l-13.41,18.91,4.13,2.93,13.41-18.91s-4.13-2.93-4.13-2.93ZM70.54,97.96c.47.53,6.11-4.11,5.94-4.77-.77-.38-2.9-2.56-3.62-2.09-.67.43-2.76,6.37-2.32,6.86Z"/>
  <path class="st0" d="M22.66,30.82c1.27-.26,6.57-.23,7.93-.04s2.58,1.34,2.74,2.68c.15,1.26.17,7.72-.15,8.65-.86,2.57-6.83,2.28-9.04,2.09s-3.73-.87-4-3.24c-.17-1.52-.21-6.02.02-7.48.18-1.17,1.34-2.43,2.5-2.67h0ZM28.93,35.16h-4.39v4.39h4.39v-4.39Z"/>
  <path class="st0" d="M32.46,49.46c.18.18.68.97.74,1.19.31,1.07.28,7.11.12,8.42-.17,1.44-1.29,2.54-2.71,2.71-1.22.15-7.74.14-8.6-.2-.58-.23-1.48-1.34-1.68-1.94-.35-1.08-.38-7.04-.18-8.31.13-.83,1.09-2.22,1.86-2.53s7.75-.36,8.84-.18c.44.07,1.3.54,1.61.85h0ZM28.93,52.99h-4.39v4.39h4.39v-4.39Z"/>
  <path class="st0" d="M21.01,67.55c.29-.3,1.18-.78,1.61-.85,1.22-.2,7.55-.18,8.65.11,1.17.3,1.93,1.42,2.07,2.59.2,1.65.2,6.12,0,7.77-.17,1.47-1.53,2.54-2.98,2.71-1.6.18-5.66.2-7.24,0-1.23-.15-2.53-1.1-2.84-2.32s-.29-6.79-.1-8.13c.08-.57.45-1.46.84-1.87h-.01ZM28.93,71.08h-4.39v4.39h4.39v-4.39Z"/>
  <path class="st0" d="M39.97,39.61l27.33-.06c3.7.41,3.65,4.26-.26,4.65-8.31.82-17.91-.61-26.35,0-3.23-.05-3.91-3.76-.72-4.59Z"/>
  <path class="st0" d="M39.45,30.82l29.21.14c2.01,1.14,1.63,3.66-.57,4.21h-28.19c-2.42-.06-2.65-3.86-.46-4.35h0Z"/>
  <path class="st0" d="M39.45,48.65l29.27.08c1.68,1.17,1.7,2.99-.06,4.06l-28.49.2c-2.64,0-3.07-3.5-.72-4.34Z"/>
  <path class="st0" d="M39.45,75.53l28.38-.06c2.42.28,2.93,3.03.83,4.2l-28.75.2c-2.42-.05-2.65-3.85-.46-4.34Z"/>
  <path class="st0" d="M69.42,61.18c-.4.44-1.02.56-1.58.62-8.82.83-18.97-.66-27.93,0-2.8-.33-2.59-4.27.26-4.41,8.67.73,18.91-.96,27.4,0,2.03.23,3.31,2.21,1.86,3.8h0Z"/>
  <path class="st0" d="M39.19,66.74l28.9-.06c2.61.3,2.62,4.03-.52,4.4-8.32,1-18.62-.76-27.14,0-2.54-.14-3.55-2.97-1.24-4.34Z"/>
  <circle class="st0" cx="2.34" cy="30.01" r="2.23"/>
</svg>