<?xml version="1.0" encoding="UTF-8"?>
<svg id="Layer_1" data-name="Layer 1" xmlns="http://www.w3.org/2000/svg" viewBox="0 0 114.91 113.42">
  <path d="M89.15,88.35c-.34,4.62-3.5,7.9-8.18,8.14-.04,4.49-3.44,7.87-7.88,7.95-.57,7.47-8.85,10.87-14.17,5.41-4.68,6.1-13.62,4.04-14.88-3.56-4.99.55-9.02-2.86-9.25-7.89-4.98-.46-8.4-4.41-8.03-9.43-6.56-.67-8.96-8.33-4.92-13.29l-10.06-13.66L.66,52.58c-.61-.7-.85-1.57-.51-2.47l20.75-25.92c1.13-1.21,1.94-2.45,3.82-1.55,4,2.01,8.78,6.5,12.75,8.13,1.75.72,11.36,3.38,12.96,3.38,3.51,0,9.36-3.12,13.08-3.59,5.13-.64,11.29.49,16.54-.11,3.58-1.52,9-6.8,12.33-7.9.8-.26,1.41-.31,2.19.06l20.16,26.18c.39,1.05.06,1.84-.67,2.62-2.81,3-8.29,6.08-10.76,9.15-2.82,3.51-4.57,11-7.29,14.93-.22.92,1.17,3.33,1.17,4.8,0,4.23-3.77,8.14-8.05,8.04ZM5.61,51.06l7.68,6.21,19.69-23.95-8.5-5.57-.64-.02L5.73,50.12l-.12.94ZM83.89,33.16l17.62,22.7c.46.2,7.43-5.88,7.69-6.39.61-1.21-14.72-18.92-16.17-21.72l-9.14,5.41ZM79.58,35.18l-15.72-.04-16.17,4.71-8.68,15.14c-1.11,3.47,2.64,6.56,5.57,3.94,2.8-3.27,4.46-9.05,7.06-12.19.95-1.14,2.34-.92,3.72-.88,3.51.11,7.09.73,10.61.81l1.3.66,24.62,24.66.82.32,5.83-12.82-18.95-24.31ZM43.75,37.07c-1.59,0-5.52-2.02-6.7-1.33l-20.34,25.24,8.15,11.31c1.04-.12,1.7-.93,2.72-1.3,4.83-1.75,10.02,1.05,10.63,6.22,5.12-1.02,9.85,2.47,9.8,7.82,5.16.12,9.12,4.7,7.81,9.8,4.34.65,7.28,4.59,6.82,8.94-.08.79-.59,1.68-.61,2.36-.07,2.24,5.18,2.62,6.05-.19.76-2.44-.48-3.34-1.83-4.98-.94-1.13-4.29-3.94-4.7-4.84-.54-1.17.19-2.86,1.37-3.2,3.57-1.04,8.12,10.91,12.67,5.83,1.51-1.68.91-3.35-.34-4.91-2.46-3.08-7.87-6.81-9.78-9.8-1.62-2.55.95-4.61,3.4-3.07,2.85,1.8,6.52,7.11,9.29,9.47,1.59,1.36,2.9,2.15,4.92.8,2.61-1.75,1.26-4.08-.19-5.94-3.89-4.98-9.99-9.41-14.15-14.31-1.57-2.1.68-4.58,2.94-3.27l15.89,15.76c3.72,1.52,6.67-2.66,4.01-5.64l-26.83-26.69-10.16-.66c-1.93,3.25-3.61,7.32-5.8,10.36-5.77,7.99-17.85,1.38-13.57-8.35,1.86-4.23,5.39-9.01,7.62-13.26.2-.38,1.11-1.97.92-2.17ZM25.25,83.62c2.54,2.55,5.94-.3,7.53-2.53,2.94-4.12-1.03-7.86-4.38-5.36-2.18,1.62-5.8,5.23-3.15,7.89ZM39.42,81.52c-1.52.3-7.71,6.49-8.01,8.01-.59,3.05,2.52,5.26,5.27,3.62.66-.39,6.28-6.04,6.49-6.56,1.11-2.73-.74-5.66-3.75-5.07ZM47.59,89.67c-.62.09-1.08.39-1.57.74-.64.45-6.08,6.01-6.27,6.46-1.39,3.41,1.99,6.18,5.1,4.44.71-.4,5.74-5.51,6.15-6.25,1.5-2.76-.29-5.84-3.41-5.39ZM55.63,106.72c.77-.78,1.96-1.52,2.33-2.74.89-2.94-1.16-5.21-4.19-4.51-.81.19-4.4,3.59-4.75,4.38-1.02,2.3.03,4.96,2.72,5.04,2.02.06,2.67-.93,3.89-2.17Z"/>
  <path d="M29.62,6.45c.75-.12,1.48.33,2.07.75,2.21,1.58,13.39,12.8,15,15.03,2.12,2.93-.42,5.29-3.1,3.43-1.86-1.29-13.89-13.32-15.18-15.18-1.07-1.54-.82-3.7,1.21-4.02Z"/>
  <path d="M84.78,6.45c2.33-.21,2.86,2.37,1.71,4.02-1.28,1.85-13.32,13.89-15.18,15.18-2.68,1.86-5.21-.5-3.1-3.43,1.61-2.23,12.79-13.44,15-15.03.46-.33.99-.69,1.56-.74Z"/>
  <path d="M59,25.89c-1.32,1.23-3.61.25-3.85-1.7-.29-2.41-.33-10.72.03-13.05.42-2.69,4.11-2.69,4.53,0,.37,2.38.3,10.22.03,12.72-.06.5-.41,1.72-.74,2.03Z"/>
  <path d="M58.99.62c1.32,1.07.88,3.63-1.04,3.84-5.02.55-2.3-6.54,1.04-3.84Z"/>
</svg>