<?xml version="1.0" encoding="UTF-8"?>
<svg id="Layer_1" data-name="Layer 1" xmlns="http://www.w3.org/2000/svg" viewBox="0 0 122.21 139.41">
  <path d="M5.57,115.89c-3.89-.65-5.78-5.14-5.55-8.71,6.48-29.65,11.67-59.61,18.17-89.25C19.8,10.6,20.17,1.67,29.3.22c25,1.07,64.97-7.39,71.74,25.92,11.7,4.08,19.28,12.75,20.78,25.23,3.99,33.27-23.19,49.89-52.68,51.88-7.24.49-11.21-2.61-13.44,5.91-1.68,6.43-2.99,21.97-6.7,26.48-1.02,1.24-2.37,2.27-3.88,2.83-2.98,1.12-14.31,1.07-17.84.71-2.88-.29-5.37-1.98-6.25-4.81-1.62-5.18,1.83-13.1,2.49-18.49H5.57ZM6.36,110.36h15.8c1.03,0,3.1-2.35,3.17-3.54,5.7-25.87,9.81-52.28,16.57-77.82,1.56-3.1,4.76-5.34,8.29-5.54,12.08.57,24.75-.7,36.76,0,2.62.15,5.49.73,8.08,1.2-3.23-13.8-17.54-18.27-30.19-18.97-11.66-.64-24.07.36-35.77.2-1.48.51-2.39,1.48-3.05,2.88L5.86,105.92c-.09.95-.48,4.14.49,4.44ZM37.75,74.82c3.65-.85,7.52-.16,11.25-.4,21.65-1.35,41.87-10.27,46.3-33.47.62-3.23,1.13-7.21.32-10.38-1.9-2.62-39.16-1.16-44.66-1.58-2.87-.05-4.56,2.23-5.05,4.82l-8.16,41ZM53.69,100.63c4.12-4.12,8.79-2.54,13.9-2.89,14.69-.99,30.42-4.4,40.27-16.2,9.29-11.13,13.14-33.76,1.38-44.44-.88-.8-6.84-5-7.5-4.54-.44,5.54-1,10.66-2.76,16-7.17,21.7-28.74,30.04-49.95,31.41-5.5.35-11.57-2.13-13.52,4.64-4.21,14.62-5.38,31.4-9.52,46.2-.18,1.52.53,2.66,2.08,2.87,2.68.36,11.11.31,13.85-.01,2.09-.25,3.39-1.98,4.03-3.87,2.46-7.34,2.57-17.1,5.05-24.57.49-1.47,1.62-3.51,2.71-4.6Z"/>
  <path d="M17.32,68.21c1.7-1.59,5.44.13,4.6,2.79l-6.95,34.15c-.84,3.33-5.67,2.49-5.57-.8,2.88-10.85,3.97-22.65,6.89-33.42.18-.67.58-2.31,1.02-2.73Z"/>
  <path d="M21.06,57.11c3.69-.58,4.2,7.11-.1,7-3.55-.09-3.18-6.49.1-7Z"/>
</svg>