<?xml version="1.0" encoding="UTF-8"?>
<svg id="Layer_1" data-name="Layer 1" xmlns="http://www.w3.org/2000/svg" viewBox="0 0 99.16 109.1">
  <path d="M9.45,109.1c-4.94-.95-8.77-4.79-9.17-9.9s-.35-13.31,0-18.34c.31-4.49,4.47-10.11,9.28-10.11h8.63V1.61c0-.41.96-1.46,1.49-1.5l63.62-.11,1.31.39,13.81,13.68.69,1.23.04,29.98c-.23,1.7-2.36,2.43-3.6,1.28-.13-.12-.65-.99-.65-1.05v-27.59h-12.04c-.43,0-1.6-1.17-1.6-1.6V4.27H22.45v66.48h46.13c4.66,0,8.93,5.51,9.28,9.9.38,4.91.42,13.88-.01,18.75-.17,1.95-.98,3.88-2.13,5.44h19.18v-41.23c0-.23.93-1.22,1.2-1.36,1.42-.74,2.83.33,3.07,1.78v43.05c-.13,1.1-.63,1.48-1.5,2.02H9.45ZM91.7,13.65l-6.18-6.18v6.18h6.18ZM10.04,75.07c-2.99.48-5.19,2.77-5.49,5.81-.57,5.76.4,12.44.02,18.3.48,3.22,2.79,5.4,6.04,5.68h57.11c3.3-.42,5.58-2.74,5.87-6.07.5-5.77-.37-12.25-.03-18.1-.48-3.22-2.79-5.4-6.04-5.68l-57.48.06Z"/>
  <path d="M51.48,49.07c-2.68,5.06-9.55,15.73-15.93,15.73-2.47,0-5.1-2.14-5.41-4.62-.75-5.79,7.59-10.46,12.05-12.42,1.76-.77,4.68-1.42,6.1-2.21.28-.15.38-.25.55-.51.63-.96,1.5-3.47,1.95-4.66.87-2.31,1.52-4.73,2.29-7.07-3.17-5.91-5.93-14.74-2.19-20.96,2.48-4.13,7.96-4.23,9.21.82.84,3.38.17,7.75-.43,11.16-.49,2.8-1.4,5.55-1.81,8.32,2.47,3.69,5.65,6.89,9.13,9.64,5.08.25,15.78.06,19.25,4.4,1.39,1.73,1.28,4.2.09,6.02-4.51,6.88-16.4-2.62-20.74-5.82-4.76.18-9.51.96-14.11,2.18ZM54.83,26.64c.41-2.3,1.04-4.62,1.25-6.95.08-.86.35-5.84-.51-6.04-1.25.5-1.68,2.19-1.93,3.4-.56,2.74-.14,5.49.6,8.15.11.39.24,1.25.58,1.44ZM61.01,43.05c.38-.33-1.42-1.5-1.61-1.69-1.09-1.13-2.08-2.59-3.29-3.63l-2.13,6.39,7.03-1.07ZM72.95,47.1c2.22,1.08,4.6,2.94,7.02,3.52,1.05.25,2.57.62,2.96-.7.08-.25-.03-.4-.17-.6-.91-1.36-6.55-2.31-8.22-2.44-.34-.03-1.45-.18-1.59.21ZM45.24,51.15c-2.59.92-10.91,5.18-10.88,8.21,0,.89.76,1.23,1.56,1.12,2.63-.36,6.92-5.6,8.43-7.77.17-.24,1.04-1.4.89-1.56Z"/>
  <circle cx="97.02" cy="54.58" r="2.12"/>
  <path d="M44.11,81.48c2.69,2.69,2.56,8.57,2.2,12.17-.65,6.5-6.86,7.45-12.26,6.94-1.48-.14-2.1-.77-2.24-2.24.41-5.41-.51-11.53,0-16.85.11-1.16.6-2.02,1.84-2.21,3.2-.49,8.06-.21,10.46,2.19ZM36.08,96.32h3.3c.97,0,2.37-1.6,2.57-2.55.26-1.23.26-6.47,0-7.69-.2-.95-1.61-2.55-2.57-2.55h-3.3v12.78Z"/>
  <path d="M18.19,92.06v6.92c0,.06-.52.94-.65,1.05-1.16,1.08-3.24.48-3.56-1.1.31-5.58-.58-11.95-.06-17.43.11-1.17.61-2.03,1.84-2.21s4.83-.14,6.14,0c6.34.74,7.75,9.44,2.13,12.1-.28.13-1.71.67-1.89.67h-3.94ZM18.19,87.8h3.52c.81,0,1.65-1.42,1.61-2.23-.03-.74-.9-2.03-1.61-2.03h-3.52v4.26Z"/>
  <path d="M54.83,83.54v4.26h7.78c.71,0,1.58,1.29,1.61,2.03.03.81-.81,2.23-1.61,2.23h-7.78v6.92c0,.06-.52.94-.65,1.05-1.16,1.08-3.24.48-3.56-1.1.31-5.58-.58-11.95-.06-17.43.12-1.3.68-2.07,2.03-2.23,1.65-.2,8.48-.25,9.97.05,1.59.32,2.19,2.4,1.1,3.56-.12.13-.99.65-1.05.65h-7.78Z"/>
</svg>