<?xml version="1.0" encoding="UTF-8"?>
<svg id="Layer_1" xmlns="http://www.w3.org/2000/svg" version="1.1" viewBox="0 0 104.31 127.41">
  <!-- Generator: Adobe Illustrator 29.8.3, SVG Export Plug-In . SVG Version: 2.1.1 Build 3)  -->
  <defs>
    <style>
      .st0 {
        fill: #272f40;
      }
    </style>
  </defs>
  <path class="st0" d="M77.67,127.41h-6.5c-9.15-2.4-17.05-7.97-24.01-14.19C27.45,95.6-2.92,51.29.23,24.11c.4-3.47,2.65-7.89,5.27-10.19,3.27-2.87,14.32-10.29,18.21-12.24,4.63-2.33,9.75-2.6,13.39,1.54,3.71,7.8,8.73,16,12.01,23.9,2.78,6.71,3.07,10.85-2.97,15.82-4.68,3.85-10.19,3.99-9.4,11.45.84,7.97,13.78,27.9,22.31,28.59,3.07.25,8.99-5.86,12.64-7.1,6.81-2.31,9.87.77,14.24,5.21,2.59,2.62,17.48,18.89,18.01,20.91.81,3.1.28,6.36-1.55,8.95-1.93,2.74-16.46,12.4-20.06,14.38-1.59.87-3.19,1.16-4.65,2.09h0ZM28.54,5.99c-1.52.32-18.18,11.36-19.61,12.84-4.09,4.25-3.36,11.16-2.52,16.44,3.99,25.05,31.38,64.98,52.1,79.58,5.39,3.8,13.47,8.5,20.16,5.82,2.9-1.16,14.09-8.95,16.74-11.21,1.54-1.31,3.68-3.27,3.06-5.48-4.4-5.2-8.86-10.5-13.54-15.44-2.06-2.17-6.25-7.29-9.01-7.5-3.96-.3-9.21,5.93-13.25,7.25-8.81,2.87-18.34-7.59-22.9-14.03s-12.83-21.05-7.09-28.79c2.73-3.68,12.82-6.93,12.48-11.9l-12.07-25.87c-1.05-1.9-2.5-2.15-4.55-1.72h0Z"/>
</svg>