<?xml version="1.0" encoding="UTF-8"?>
<svg id="Layer_1" data-name="Layer 1" xmlns="http://www.w3.org/2000/svg" viewBox="0 0 117.7 117.72">
  <path d="M117.7,34.85v2.67c-.53,1-.63,1.86-1.34,2.84-2.52,3.48-7.59,6.87-10.36,10.37,4.73,1.96,7.81,6.77,7.26,11.94-1.09,10.23-13.95,13.96-20.47,5.95-.51-.62-1.46-2.8-2-2.68l-24.91,24.91c-.12.54,2.05,1.49,2.68,2,10.14,8.25,1.15,24.15-11.13,19.82-3.13-1.1-5.48-3.63-6.76-6.61-5.69,4.25-11.25,16.35-19.4,9.7-3.64-2.97-6.88-7.44-10.54-10.52-1.58-5.42,4.49-2.59,7.51-5.9,5.95-6.53-3.27-15.75-9.8-9.8-3.34,3.05-.39,8.31-5.48,7.75-3.29-3.67-8.32-7.32-11.26-11.14-2.1-2.72-2.28-5.79-.34-8.68l10.36-10.37c-17.33-8.74-.3-32.01,13.21-17.89l2,2.68,29.51-29.03c3.28.06,2.43,2.05,2.79,4.1,1.44,8.18,14.33,7.2,13.68-1.97-.2-2.86-2.81-5.56-5.59-6.12-1.35-.27-3.38.39-3.96-1.4-.41-1.26-.01-1.76.69-2.7,1.99-2.67,10.34-10.89,13.04-13.04,6.89-5.49,11.81,3.44,16.39,7.36,11.3-18.89,34.03,3.95,15.22,15.22,2.97,3.47,7.4,6.13,9.02,10.53ZM55.51,30.17l-11.04,10.86c0,1.36,11.87,10.95,12.32,13.12.62,2.96-2.45,2.51-4.04,2.84-8.79,1.81-6.81,15.21,2.85,13.55,2.51-.43,4.69-3.1,5.18-5.51.41-1.99-.23-4.56,3.1-3.96l12.86,12.24c1.4,0,13.31-14.28,15.46-14.67,2.98-.54,2.53,2.78,2.84,4.38.98,5.1,7.64,7,11.45,3.59,3.55-3.18,2.61-9.32-1.71-11.33-2.23-1.04-6.06.09-5.85-3.22.15-2.29,13.72-12.76,14.07-15.41.08-.59.09-1.17-.31-1.66-2.92-3.45-7.52-6.69-10.22-10.17-.71-.91-1.4-1.76-.92-2.92.79-1.9,2.1-1.17,3.51-1.52,11.07-2.71,5.37-16.68-3.33-13.36-1.73.66-3.34,2.33-3.94,4.09s0,4.07-1.72,4.97c-1.3.68-2.06.05-3.13-.78-3.48-2.71-6.72-7.3-10.17-10.22-.64-.5-1.49-.4-2.21-.17-2.15.7-7.98,8.45-10.34,10.05,7.22,2.9,9.76,11.97,4.69,18.06-5.63,6.76-16.03,5.13-19.41-2.85ZM49.83,53.23l-8.86-8.7c-1.4,0-13.3,14.28-15.46,14.67-3.46.63-2.3-5.08-4.44-7.47-6.69-7.47-17.46,4.27-9.19,10.19,2.84,2.03,7.06.12,6.86,4.16-1.63,3.24-13.4,12.23-13.98,14.8-.11.51-.16,1.02,0,1.53.41,1.37,6.69,6.24,7.79,7.93,3.27-8.85,16.01-9.78,20.57-1.51,3.41,6.18.9,13.77-5.69,16.39,1.6,1.14,6.86,7.64,8.21,7.86.42.07.84.02,1.25-.07l14.52-13.91c4.26-.66,2.49,3.7,4.16,6.4,5.33,8.59,17.84-1.22,10.82-8.48-3-3.11-7.15-.53-7.87-4.47l14.68-16.01-8.49-8.59c-2.89,7.24-11.97,9.76-18.06,4.69-6.68-5.56-5.05-16.49,3.18-19.4Z"/>
  <path d="M97.22,27.55c1.17-.24,1.58.13,2.43.77,1.09.82,5.59,5.28,6.34,6.36.38.54.71.92.67,1.65-.11,1.77-7.21,7.38-8.5,9.23-1.08.86-2.85.08-3.36-1.03-1.14-2.5,4.93-6.23,6.16-8.23.15-.85-4.91-4.58-5.26-5.71-.41-1.36.04-2.75,1.51-3.05Z"/>
  <circle cx="90.43" cy="50.1" r="2.27"/>
</svg>