<?xml version="1.0" encoding="UTF-8"?>
<svg id="Layer_1" data-name="Layer 1" xmlns="http://www.w3.org/2000/svg" viewBox="0 0 116.28 83.1">
  <path d="M53.99,5.33c1.89,1.89,1.51,25.83,1.28,30.3s-1.2,16.97-2.78,20.22c-.88,1.8-18.27,15.32-21.36,17.64-2.19,1.64-12.67,9.97-14.37,9.61-2.03-.43-1.49-3.53-1.07-5.03,1.03-3.68,14.15-25.39,12.54-26.97C11.17,53.93,1.66,58.17.19,36.62-.58,25.36.48,11.47,14.21,10.07l-1.99-1.98,37.52-4.02c1.21-.02,3.4.41,4.24,1.25ZM51.22,11.08c-8.31-.75-38.43,5.68-43.03,11.74-3.74,4.94-.88,19.61,1.42,25.35,4.04,3.32,21.22-4.85,22.41,1.53l-11.79,27.37c10.41-7.81,18.21-19.87,30.99-24V11.08Z"/>
  <path d="M74.72,45.08c-12.15-1.79-11.92-25.96-5.93-32.93,6.88-8,30.63-10.75,40.78-12.16,9.07,16.94,9.71,35.85-2.84,51.1-3.17,3.85-26.48,25.73-29.91,24.92-1.04-.53-1.84-1.71-2.09-2.81-1.22-5.55,13.04-21.68,14.48-28.12-4.54-.47-10.13.64-14.5,0ZM82.22,64.07l16.01-12.48c4.57-5.16,10.87-8.66,11.9-16.1.61-4.43-.73-22.55-1.99-26.83-.37-1.26-.6-2.49-1.93-3.13-2.19-1.05-33.75,6.2-35.32,9.79-1.8,4.12-1.36,20.06,1.25,23.32,3.45,4.31,19.57.99,20.97,5.06,1.72,5-8.72,15.63-10.9,20.36Z"/>
</svg>