<?xml version="1.0" encoding="UTF-8"?>
<svg id="Layer_1" data-name="Layer 1" xmlns="http://www.w3.org/2000/svg" viewBox="0 0 101.7 101.48">
  <path d="M49.16,73.72c-1.06-.23-2.01-2.46-2.74-3.3-4.08-4.75-8.66-5.02-14.65-4.75.07,1.72.32,3.35-1.59,4.02-6.39.45-13.54-.58-19.83,0-1.9.17-2.76,1.22-1.95,3.11.73,1.71,8.15.59,10,.93,1.45.27,2.01,2.37.94,3.37-1.52,1.42-11.34.26-13.86.66-1.84.34-1.83,3.38.3,3.71,3.57.56,8.38-.41,12.06.01.95.11,1.93.66,2.1,1.66.81,4.58-10.42.8-11.59,3.23-.28.59-.23,2.04.22,2.51,1.19,1.27,7.54.37,9.57.63,2.4.31,2.55,3.62-.61,4.01-1.68.21-5.97-.81-5.53,2.12.53,3.61,8.57-.42,8.78,3.56.08,1.48-1.07,2.01-2.34,2.12-6.11.54-11.3-.72-10.06-8.08-3.4-1.32-4.96-4.46-3.89-8.01-5.79-1.81-5.64-9.55.02-11.38-.09-.57-.29-1.1-.31-1.69-.22-6.43.92-15.93,0-21.83-.24-1.54-2.36-4.98-2.94-7.12C-1.23,34.13.88,22.92.17,13.52c.42-4.19,4.12-6.1,8.06-5.17,1.33-3.41,4.46-4.96,8.01-3.89,1.81-5.78,9.54-5.65,11.38.02.57-.09,1.1-.29,1.69-.31,6.43-.22,15.93.92,21.83,0,1.37-.21,4.59-2.15,6.48-2.71,9.28-2.76,20.64-.6,30.31-1.29,4.2.42,6.1,4.13,5.17,8.06,3.4,1.32,4.96,4.46,3.89,8.01,5.8,1.81,5.64,9.55-.02,11.38.09.57.29,1.1.31,1.69.22,6.43-.92,15.93,0,21.83.21,1.32,2.09,4.46,2.64,6.26s1.21,4.44,1.36,6.4c.48,6.35.56,17.56.01,23.86-.38,4.41-3.91,6.36-8.07,5.44-1.33,3.4-4.46,4.96-8.01,3.89-1.81,5.79-9.55,5.64-11.38-.02-.57.09-1.1.29-1.69.31-5.26.18-12.97-.76-17.81,0-1.03.16-2.66,1.31-3.75,1.71-3.83,1.42-10.61,3.11-14.6,2.23-2.05-.45-1.98-3.6.53-3.94,4.37-.6,6.7.14,11.4-1.53,1.26-.45,4.99-2.51,5.82-2.51h12.21c.17-.4-.29-.86-.29-1.01v-18.53h-16.52ZM8.22,49.72v16.24c.4.17.86-.29,1.01-.29h18.53v-16.52c0-.85,2.61-2.15,3.3-2.74,4.71-4.04,5.03-8.71,4.75-14.65-1.72.07-3.35.32-4.02-1.59-.45-6.39.58-13.54,0-19.83-.29-3.16-3.72-2.93-4.04,0-.24,2.22.48,6.45-.05,8.28-.38,1.3-2.54,1.82-3.4.57-1.43-2.09-.08-10.82-.57-13.72-.34-1.81-3.25-1.77-3.67.05-.53,3.87.51,8.83-.08,12.56-.27,1.69-2.21,2.56-3.44,1.17-1.88-2.13,1.76-13.19-3.66-10.88-1.71.73-.59,8.18-.93,10-.18.95-1.42,1.71-2.36,1.53-2.26-.43-1.49-4.54-1.66-6.12-.24-2.2-2.64-2.39-3.68-.51l-.05,24.65c-.34,3.86,3.58,8.72,4.02,11.79ZM51.75,8.2h-16.24c-.17.4.29.86.29,1.01v18.53h16.52c.85,0,2.15,2.61,2.74,3.3,4.04,4.71,8.71,5.03,14.65,4.75-.07-1.72-.32-3.35,1.59-4.02,6.39-.45,13.54.58,19.83,0,3.16-.29,2.93-3.72,0-4.04-2.22-.24-6.45.48-8.28-.05-1.3-.38-1.82-2.54-.57-3.4,2.09-1.43,10.82-.08,13.72-.57,1.81-.34,1.77-3.25-.05-3.67-3.87-.53-8.83.51-12.56-.08-1.69-.27-2.56-2.21-1.17-3.44,2.13-1.88,13.19,1.76,10.88-3.66-.73-1.71-8.18-.59-10-.93-.95-.18-1.71-1.42-1.53-2.36.43-2.26,4.54-1.49,6.12-1.66,2.2-.24,2.39-2.64.51-3.68l-24.65-.05c-3.86-.34-8.72,3.58-11.79,4.02ZM69.71,39.81c-7.63.49-14.87-1.25-19.11-8.05h-10.78c.49,7.63-1.25,14.87-8.05,19.11v10.78c7.64-.48,14.87,1.22,19.11,8.05h10.78c-.49-7.63,1.25-14.87,8.05-19.11v-10.78ZM93.27,35.5c-.4-.17-.86.29-1.01.29h-18.53v16.52c0,.85-2.61,2.15-3.3,2.74-4.75,4.08-5.02,8.66-4.75,14.65,1.72-.07,3.35-.32,4.02,1.59.45,6.39-.58,13.54,0,19.83.29,3.16,3.72,2.93,4.04,0,.24-2.22-.48-6.45.05-8.28.38-1.3,2.54-1.82,3.4-.57,1.43,2.09.08,10.82.57,13.72.34,1.81,3.25,1.77,3.67-.05.53-3.87-.51-8.83.08-12.56.27-1.69,2.21-2.56,3.44-1.17,1.88,2.13-1.76,13.19,3.66,10.88,1.71-.73.59-8.18.93-10,.18-.95,1.42-1.71,2.36-1.53,2.26.43,1.49,4.54,1.66,6.12.24,2.2,2.64,2.39,3.68.51l.05-24.65c.64-3.06-4.02-9.86-4.02-11.79v-16.24Z"/>
  <circle cx="27.79" cy="98.72" r="1.98"/>
</svg>