<?xml version="1.0" encoding="UTF-8"?>
<svg id="Layer_1" data-name="Layer 1" xmlns="http://www.w3.org/2000/svg" viewBox="0 0 127.4 139.07">
  <path d="M94.94,56.85l29.56,29.09c7.88,10.09-1.48,24.05-13.63,19.95-2.74-.93-4.71-2.97-6.89-4.75l-1.12,5.25c1.64,1.91,7.29,10.2,3.11,11.56-3.86,1.26-3.52-2.14-4.69-4.44-3.39-6.67-12.88-8.04-17.83-2.29-1.31,1.52-4.35,7.1-4.81,9.02-1.93,8.12,4.55,14.02,12.47,13.26,1.78-.17,3.8-1.95,5,1,1.48,3.64-3.92,4.5-6.53,4.58-7.08.23-12.68-4.08-15.79-10.16l-20.1.33c-3.6,6.31-9.02,10.38-16.6,9.76-7.8-.64-12.81-6.8-15.72-13.5s-1.68-13.88,3.55-19.08l-1.51-5.28c-10.91,13.28-30.03.82-21.09-14.18l30.48-30.64c-7.41-9.16-8.79-20.98-4.61-31.93-9.45-5.46-7.9-20.07,2.45-23.64,5.53-1.91,10.75.07,14.75,3.97,11.41-5.91,25.06-6.47,36.36,0,2.18-1.59,3.36-3.18,6.12-4.01,14.86-4.48,23.9,14.72,11.5,23.61,3.58,9.59,3.23,19.04-1.78,27.97-.54.96-3.06,3.83-2.63,4.57ZM40.78,8.31c-7.7-8.63-19.35,4.27-10.08,11.07,2.56-4.22,6.02-8.34,10.08-11.07ZM59.65,5.67c-18.95,2.13-34.88,24.36-25.73,42.49,7.68,15.21,30.1,18.63,44.77,12.88C112.33,47.85,93.3,1.88,59.65,5.67ZM96.47,18.98c4.15-1.6,4.03-8.03,1.35-11.03-2.83-3.17-8.33-3.32-11.22-.22,3.8,3.23,7.61,6.71,9.87,11.25ZM60.92,69.14c-7.09-.45-13.47-2.38-19.61-5.86-3.76-2.13-3.64-4.53-7.25-.67-2.8,2.99-5.06,7.83-5.47,11.91-.47,4.71-.63,24.25.74,27.99.14.39.17.73.59.98,7.83-3.28,15.67-.17,20.11,6.75,2.46,3.84,5.01,8.74,4.57,13.4h18.17c.78-12.56,11.57-25.82,25.27-20.14.14-1.43.69-2.67.81-4.13.49-6.07.72-20.61-.11-26.38-.66-4.55-4.13-10.02-8-12.54-7.23,5.11-15.34,8.33-24.3,8.69v38.12c-.46,4.07-5.6,3.13-5.53-.8v-37.32ZM23.4,73.88c-.68-.18-.79.28-1.19.59-2.17,1.67-15.47,15.09-16.26,16.91-2.66,6.11,3.43,12.06,9.43,9.43,2.66-1.17,5.14-4.92,7.42-6.79l.6-20.13ZM104.36,73.88v19.55c2.75,2.25,5.92,7.32,9.67,7.71,6.22.65,10.37-6.22,6.52-11.27l-16.19-16ZM35.18,107.54c-5.65.4-9.96,5.26-10.04,10.83-.06,3.98,4.65,12.24,8.27,14.03,8.55,4.21,17.15-2.74,15.58-12.02-.39-2.29-4.36-8.9-6.22-10.37s-5.18-2.64-7.59-2.47Z"/>
  <circle cx="102.06" cy="127.19" r="2.71"/>
  <path d="M66.45,52.16c.7.73,6.33-4.26,8-.7,2.03,4.34-7.18,6.54-10.16,6.64-3.14.1-12.99-1.8-11.5-6.36,1.2-3.68,5.95.19,8.12.41v-6.71c-5.81-2.16-9.67-9.61-4.36-14.43,2.79-2.53,11.2-2.57,14.04-.19,3.15,2.64,3.53,8,.79,11.07-.69.78-4.94,3.78-4.94,4.14v6.12ZM59.86,38.21c.14.2,3.72,2.9,3.96,2.86,1.4-1.3,5.63-3.51,3.43-5.71-2.38-2.38-9.9-.58-7.39,2.86Z"/>
  <circle cx="76.61" cy="22.25" r="2.72"/>
  <circle cx="50.75" cy="22.26" r="2.71"/>
</svg>