<?xml version="1.0" encoding="UTF-8"?>
<svg id="Layer_1" xmlns="http://www.w3.org/2000/svg" version="1.1" viewBox="0 0 134.67 115.61">
  <!-- Generator: Adobe Illustrator 29.8.3, SVG Export Plug-In . SVG Version: 2.1.1 Build 3)  -->
  <defs>
    <style>
      .st0 {
        fill: #fdf3e5;
      }
    </style>
  </defs>
  <path class="st0" d="M134.67,96.69c-.78,3.15-2.2,5.95-5.07,7.66-5.11,3.04-13.62.87-19.46,1.51-3.06-1.17-2.44-4.69.84-5.16,4.16-.6,9.33.32,13.59-.06,2.5-.22,4.29-2.24,4.82-4.63l-.09-38.44c-.39-1.9-2.56-3.96-4.47-4.19-2.01-.25-5.37.6-6.97-.64-.23-.18-1.04-1.15-1.04-1.32v-4.86c-2.83,2.12-5.19,5.2-8.33,6.76l-33.8.06c-2.49.55-4.37,2.54-4.6,5.11-1.05,11.78.82,25.09,0,37.03.03,2.06,2.1,4.7,4.14,5.04,3.74.63,8.87-.28,12.81.05,3.25.28,4.56,2.88,1.95,5.12l-15.33.11c-2.29-.57-4.43-1.68-6.06-3.39-1.84,2.12-4.52,3.67-7.35,3.93-9.69.87-20.6-.65-30.43.02l-12.12,8.87c-6.01,1.96-3.54-5.53-4.03-8.89h-4.07c-3.92,0-9.11-5.4-9.24-9.39.52-12.47-.95-25.89-.09-38.26.32-4.65,4.63-10.36,9.59-10.36h28.74c-9.24-16.71-2-38,15.39-45.63,14.85-6.52,32.19-1.19,40.78,12.42,6.36,10.07,6.58,22.33,1.31,32.94h10.89l10.9-9.57c6.16-2.3,3.7,6.23,4.19,9.57h3.81c3.82,0,8.33,5.57,8.79,9.19v39.4ZM75.61,30.03c0-4.8-.64-9.85-1.91-14.49-1.59-5.8-5.79-15.83-10.92-5.82-2.96,5.79-3.87,13.87-3.97,20.31h16.8ZM39.92,30.03h13.25l.39-.66c.06-5.73.78-11.89,2.62-17.33.62-1.84,1.59-3.56,2.24-5.37-10.13,3.45-17.48,12.65-18.5,23.36ZM94.51,30.03c-1.04-10.59-8.43-19.95-18.5-23.36.42,1.39,1.21,2.69,1.71,4.06,2.21,6.12,3.09,12.8,3.14,19.3,0,0,13.65,0,13.65,0ZM53.57,35.28h-13.65c.37,4.76,2.31,9.1,4.72,13.12h10.24c-.63-4.35-1.49-8.69-1.31-13.12ZM75.61,35.28h-16.8c-.09,4.37.55,8.75,1.59,12.97.38.56,1.15.38,1.77.6,1.92.67,3.55,1.4,4.95,2.95,2.17-1.74,4.21-3.08,6.94-3.83,1-4.14,1.58-8.42,1.55-12.69ZM94.51,35.28h-13.65l-1.31,12.86h10.1c2.88-3.64,4.23-8.3,4.86-12.86ZM18.92,107.71l9.33-6.55c10.09-.68,21.27.86,31.23,0,3.3-.29,5.14-2.42,5.38-5.64.89-11.85-.69-24.79,0-36.76-.43-3.13-2.55-4.86-5.64-5.13l-48.76.08c-2.65.45-4.44,2.15-4.9,4.81v37.74c1.21,6.79,7.2,4.01,11.34,4.94.83.19,2.02,1.69,2.02,2.44,0,0,0,4.07,0,4.07Z"/>
  <path class="st0" d="M101.07,67.3h13.52c1.98,0,2.91,3.84.75,4.95-1.39.72-3.73.05-5.31.34-1.9,3.92-4.6,7.52-7.65,10.59,0,.3,2.7,2.05,3.17,2.34,2.39,1.48,6.21,2.08,5.42,5.47-1.09,4.7-10.66-2.55-12.44-3.97-2.04,1.42-7.8,5.79-10.15,5.66s-3.42-2.88-1.76-4.53c.94-.93,7.65-3.75,7.89-4.72-1.11-2.22-5.97-5.35-3.55-8.01,2.98-3.28,5.6,2.84,7.6,4.2,2.09-2.11,3.92-4.5,5.4-7.08h-19.29c-.3,0-1.36-1.01-1.51-1.38-.57-1.41.12-3.87,1.77-3.87h10.89v-3.81c0-.09.74-1.3.91-1.45,1.3-1.15,4.34-.21,4.34,1.19v4.07h0Z"/>
  <circle class="st0" cx="99.26" cy="103.38" r="2.6"/>
  <path class="st0" d="M34.87,61.31c1.57-.18,2.79.87,3.44,2.21l9.88,26.08c1.01,3.87-3.13,5.67-4.99,1.84-.48-.99-1.14-4.28-2.1-4.46l-12.04.04c-.56.19-1.61,3.97-2.04,4.79-1.65,3.17-5.91,1.75-4.81-2.19,2.44-8.72,7.46-17.82,10.16-26.58.45-.84,1.56-1.62,2.5-1.72h0ZM39.39,81.73l-3.94-11.29-4.46,11.29h8.4Z"/>
</svg>