<?xml version="1.0" encoding="UTF-8"?>
<svg id="Layer_1" data-name="Layer 1" xmlns="http://www.w3.org/2000/svg" viewBox="0 0 136.4 139.57">
  <path d="M129.83,102.69c-4,4.09-9.43,6.07-15.07,6.45-20.69,1.4-44.51-.02-65.57.03-.82,0-1.54-.18-2.32-.36-1.3.32-6.92,23.87-9.08,25.25-4.6,2.94-6.43-7.88-8.72-9.89l-15.06,14.95c-.69.46-1.41.57-2.22.37-1.23-.31-11.33-10.42-11.66-11.67-.13-.5-.17-.93-.09-1.45.43-2.74,13.24-13.19,15.4-16.22-2.15-1.49-14.09-4.66-9.66-8.87l22.7-7.52c-.75-2.16-1.08-4.97-1.2-7.28-1.24-22.45.62-45.45.45-67.9C29.45,8.65,37.56,1.28,47.61.53c22.15-1.66,46.36,1.27,68.72.02,10.54,1.1,18.83,9.25,19.57,19.92,1.57,22.5-1.21,46.82-.02,69.52-.66,4.72-2.73,9.3-6.06,12.7ZM48.61,103.61h68.12c5.54,0,13.21-7.6,13.58-13.27l.06-70.27c-.89-7.67-7.09-13.46-14.81-14.02-22.19-1.62-46.33,1.24-68.73.02-8.12,1.3-13.4,7.42-14.04,15.58-1.68,21.55,1.25,45.32.06,67.1.36.91.02,2.97,1.3,3,4.7-.68,10.86-4.39,15.31-4.86,1.3-.14,2.83.53,3.09,1.93.45,2.46-4.65,14.08-3.95,14.79ZM35.97,124.15l9.48-30.41-30.4,9.88c1.95,1.94,8.9,2.95,7.74,6.72l-16,16.43,6.04,6.04,15.83-15.79c3.87-2.24,5.08,4.44,6.44,6.62.26.41-.02.69.89.5Z"/>
  <path d="M117.26,54.78c0,19.66-15.94,35.59-35.59,35.59s-35.59-15.94-35.59-35.59,15.94-35.59,35.59-35.59,35.59,15.94,35.59,35.59ZM111.83,54.78c0-16.65-13.5-30.16-30.16-30.16s-30.16,13.5-30.16,30.16,13.5,30.16,30.16,30.16,30.16-13.5,30.16-30.16Z"/>
  <path d="M111.52,16.62c-1.4-1.73-.08-4.47,2.07-4.61,3.88-.25,8.52,3.02,9.97,6.58,1.05,2.6,1.28,9.73.85,12.53-.34,2.2-2.8,3.23-4.53,1.81-3.01-2.45,2.04-12.78-4.31-15.04-1.22-.43-3.23-.27-4.05-1.28Z"/>
  <circle cx="104.9" cy="14.54" r="2.68"/>
  <path d="M83.66,30.66c.93.99.87,3.68.94,4.98,4.79-.26,11.81,11.63,6.28,13.32-4.66,1.42-2.49-6.94-7.4-8.05-7.47-1.68-10.31,7.9-4.22,10.54,3.23,1.4,5.85.34,9.25,2.99,6.11,4.74,5.65,13.98-.83,18.14-.69.44-2.79,1.15-2.95,1.4-.78,1.18.65,5.71-3.13,5.58-3.16-.11-2.53-3.22-2.63-5.51-4.76-.96-9.62-7.16-8.16-12.02.43-1.44,2.81-1.82,4.03-1.02,1.92,1.25.34,6.08,4.75,7.48,6.72,2.14,10.51-6.23,5.49-9.83-2.37-1.7-4.39-.93-6.95-1.74-10.31-3.26-9.79-18.9.85-21.28.26-.3-.1-2.86.06-3.7.35-1.91,3.32-2.7,4.63-1.29Z"/>
</svg>